<svg class="icon n-set" id="n-set" viewBox="0 0 18 18" width="100%" height="100%" action="togglePanel">
  <path d="M11.485 18h-4.97a2.978 2.978 0 0 1-2.121-.879L.879 13.606A2.976 2.976 0 0 1 0 11.485v-4.97c0-.802.312-1.555.879-2.121L4.394.879A2.976 2.976 0 0 1 6.515 0h4.971c.801 0 1.555.312 2.121.879l3.515 3.515A2.98 2.98 0 0 1 18 6.515v4.971c0 .801-.312 1.555-.879 2.121l-3.515 3.515a2.98 2.98 0 0 1-2.121.878zM6.515 2c-.264 0-.521.107-.707.293L2.293 5.808A1.006 1.006 0 0 0 2 6.515v4.971c0 .263.107.521.293.707l3.515 3.515c.186.185.443.292.707.292h4.971c.263 0 .521-.107.707-.293l3.515-3.515a1.01 1.01 0 0 0 .292-.707v-4.97c0-.263-.107-.521-.293-.707l-3.515-3.515A1.006 1.006 0 0 0 11.485 2h-4.97z"></path><path d="M10.243 13H7.757a.997.997 0 0 1-.707-.293L5.293 10.95A1 1 0 0 1 5 10.243V7.757c0-.265.105-.52.293-.707L7.05 5.293A1 1 0 0 1 7.757 5h2.485c.265 0 .52.105.707.293l1.757 1.757a.996.996 0 0 1 .294.707v2.485c0 .265-.105.52-.293.707l-1.757 1.757a.996.996 0 0 1-.707.294zm-2.072-2h1.657L11 9.829V8.171L9.829 7H8.171L7 8.171v1.657L8.171 11z"></path>
</svg>