<svg class="icon n-voice" xmlns="http://www.w3.org/2000/svg" viewBox="0 0 18 18">
	<path style="fill:none;" d="M10.383,2.904c-0.145-0.06-0.651-0.222-1.09,0.217l-2,2C6.727,5.688,5.973,6,5.171,6H4
		C2.897,6,2,6.897,2,8v2c0,1.103,0.897,2,2,2h1.171c0.801,0,1.555,0.312,2.122,0.879l2,2c0.438,0.438,0.944,0.277,1.09,0.217
		C10.527,15.036,11,14.792,11,14.171V3.829C11,3.208,10.527,2.964,10.383,2.904z"></path>
	<path d="M11.148,1.057c-1.141-0.472-2.395-0.224-3.269,0.65l-2,2C5.69,3.896,5.438,4,5.171,4H4C1.794,4,0,5.794,0,8v2
		c0,2.206,1.794,4,4,4h1.171c0.267,0,0.519,0.104,0.708,0.293l2,2c0.581,0.582,1.33,0.886,2.102,0.886
		c0.389,0,0.784-0.077,1.167-0.236C12.291,16.47,13,15.408,13,14.171V3.829C13,2.592,12.291,1.53,11.148,1.057z M11,14.171
		c0,0.62-0.473,0.864-0.617,0.924c-0.146,0.06-0.651,0.221-1.09-0.217l-2-2C6.727,12.312,5.973,12,5.171,12H4c-1.103,0-2-0.897-2-2
		V8c0-1.103,0.897-2,2-2h1.171c0.801,0,1.555-0.312,2.122-0.879l2-2c0.439-0.439,0.945-0.277,1.09-0.217
		C10.527,2.964,11,3.208,11,3.829V14.171z"></path>
	<path d="M16.895,4.553c-0.247-0.494-0.847-0.694-1.342-0.447c-0.494,0.247-0.694,0.848-0.447,1.342
		c1.112,2.225,1.112,4.881,0,7.105c-0.247,0.494-0.046,1.095,0.447,1.342C15.696,13.966,15.849,14,15.999,14
		c0.367,0,0.72-0.203,0.896-0.553C18.287,10.663,18.287,7.337,16.895,4.553z"></path>
</svg>