<svg width="65" height="45" viewBox="0 0 92 64" fill="none" xmlns="http://www.w3.org/2000/svg">
	<g clip-path="url(#clip0_25494_106042)">
		<rect width="92" height="64" fill="#5E5E5E" />
		<path d="M8 14C8 10.6863 10.6863 8 14 8H78C81.3137 8 84 10.6863 84 14V64H8V14Z" fill="#242424" />
		<path
			d="M27.0001 18.75C22.4437 18.75 18.75 22.4437 18.75 27.0001C18.75 31.5565 22.4437 35.2501 27.0001 35.2501C31.5565 35.2501 35.2501 31.5565 35.2501 27.0001C35.2501 26.4283 35.1919 25.8693 35.0806 25.3291C35.0104 24.9876 34.714 24.7396 34.3655 24.7305C34.017 24.7215 33.7082 24.9537 33.6203 25.2911C33.1695 27.0202 31.5964 28.2955 29.7274 28.2955C27.5056 28.2955 25.7046 26.4945 25.7046 24.2728C25.7046 22.4037 26.98 20.8306 28.7091 20.3798C29.0464 20.2919 29.2787 19.9831 29.2696 19.6346C29.2605 19.2861 29.0125 18.9898 28.671 18.9195C28.1308 18.8083 27.5718 18.75 27.0001 18.75Z"
			fill="white" />
	</g>
	<defs>
		<clipPath id="clip0_25494_106042">
			<rect width="92" height="64" rx="9" fill="white" />
		</clipPath>
	</defs>
</svg>