<svg width="16px" height="15px" viewBox="0 0 16 15" version="1.1" xmlns="http://www.w3.org/2000/svg" xmlns:xlink="http://www.w3.org/1999/xlink" class="icon icon-danmu">
  <g id="页面-1" stroke="none" stroke-width="1" fill="none" fill-rule="evenodd">
    <g id="弹幕标识-分" fill="#FFFFFF">
      <path d="M10.1239282,3.70109911 C10.3288623,3.70109911 10.4984999,3.8447054 10.5276228,4.03186258 L10.5320517,4.08921576 L10.5319846,4.34975541 L10.7575865,4.35022122 C10.9625206,4.35022122 11.1321582,4.49382751 11.1613483,4.68097832 L11.1657771,4.7383315 L11.1657771,7.18708512 C11.1657771,7.40142572 10.9830543,7.57524644 10.7575865,7.57524644 L9.49536976,7.57486357 L9.49536976,8.01356308 L10.6996091,8.01394594 C10.9250098,8.01394594 11.1077326,8.18770285 11.1077326,8.40204345 C11.1077326,8.59692174 10.9566826,8.75823554 10.7599352,8.78599325 L10.6996091,8.79020477 L9.49536976,8.78988571 L9.49557107,9.43584281 C9.49557107,9.65018342 9.31284825,9.82394032 9.08744761,9.82394032 C8.88251353,9.82394032 8.71287589,9.68036594 8.68375297,9.49320876 L8.67932414,9.43584281 L8.67898862,8.78988571 L7.41730868,8.79020477 C7.19184093,8.79020477 7.00911811,8.61644786 7.00911811,8.40204345 C7.00911811,8.20722896 7.16016808,8.04591517 7.35698264,8.01815746 L7.41730868,8.01394594 L8.67898862,8.01356308 L8.67898862,7.57486357 L7.41730868,7.57524644 C7.2123746,7.57524644 7.04273696,7.43160824 7.01354694,7.24445106 L7.00911811,7.18708512 L7.00911811,4.7383315 C7.00911811,4.52398451 7.19184093,4.35022122 7.41730868,4.35022122 L7.8321425,4.34975541 L7.83247801,4.08921576 C7.83247801,3.8748624 8.01520083,3.70109911 8.24060148,3.70109911 C8.44553556,3.70109911 8.6151732,3.8447054 8.64436322,4.03186258 L8.64879205,4.08921576 L8.64852363,4.34975541 L9.71560344,4.34975541 L9.71580475,4.08921576 C9.71580475,3.8748624 9.89852757,3.70109911 10.1239282,3.70109911 Z M6.13863142,3.9630745 C6.34355208,3.9630745 6.51319643,4.10668079 6.54234619,4.29383797 L6.54677502,4.35119115 L6.54677502,5.94551767 C6.54677502,6.14039596 6.3957586,6.30170976 6.19894405,6.32946747 L6.13863142,6.33367899 L4.98481364,6.33361518 L4.98481364,7.02545227 L6.13863142,7.0256437 C6.34355208,7.0256437 6.51319643,7.16928189 6.54234619,7.35643908 L6.54677502,7.41380502 L6.54677502,8.93894783 C6.54677502,9.04921296 6.49746737,9.15424559 6.41116556,9.2278833 C6.08089558,9.50960814 5.48234581,9.62306381 4.57720687,9.62306381 C4.35179952,9.62306381 4.16906999,9.4493069 4.16906999,9.2349663 C4.16906999,9.0206257 4.35179952,8.84680498 4.57720687,8.84680498 C5.10088927,8.84680498 5.4784538,8.80175453 5.69478877,8.73315788 L5.73019928,8.72052334 L5.73019928,7.80177491 L4.57720687,7.80190253 C4.37229293,7.80190253 4.20264187,7.65826434 4.17349211,7.47110715 L4.16906999,7.41380502 L4.16906999,5.94551767 C4.16906999,5.75070318 4.32008641,5.58936386 4.51689425,5.56163805 L4.57720687,5.55743292 L5.73019928,5.55729892 L5.73019928,4.73895684 L4.57720687,4.73930142 C4.37229293,4.73930142 4.20264187,4.59569513 4.17349211,4.40854433 L4.16906999,4.35119115 C4.16906999,4.15632562 4.32008641,3.99500544 4.51689425,3.96728601 L4.57720687,3.9630745 L6.13863142,3.9630745 Z M8.67898862,6.35078029 L7.82435849,6.35078029 L7.82489532,6.79841331 L8.67898862,6.79796664 L8.67898862,6.35078029 Z M10.348792,6.35078029 L9.49536976,6.35078029 L9.49536976,6.79796664 L10.3493289,6.79841331 L10.348792,6.35078029 Z M8.67898862,5.12552927 L7.82489532,5.12599509 L7.82435849,5.57441937 L8.67898862,5.57441937 L8.67898862,5.12552927 Z M10.3493289,5.12599509 L9.49536976,5.12552927 L9.49536976,5.57441937 L10.348792,5.57441937 L10.3493289,5.12599509 Z" id="形状" fill-rule="nonzero"></path>
      <path d="M14.1176471,1.62880284 L1.88235294,1.62880284 C1.72641372,1.62880284 1.6,1.75749223 1.6,1.91623864 L1.6,12.6337614 C1.6,12.7925078 1.72641372,12.9211972 1.88235294,12.9211972 L8.57505882,12.9211972 L8.57505882,14.55 L1.88235294,14.55 C0.842758118,14.55 0,13.6920707 0,12.6337614 L0,1.91623864 C0,0.857929262 0.842758118,0 1.88235294,0 L14.1176471,0 C15.1572419,0 16,0.857929262 16,1.91623864 L16,7.27595812 L14.4,7.27595812 L14.4,1.91623864 C14.4,1.75749223 14.2735863,1.62880284 14.1176471,1.62880284 Z" id="路径"></path>
      <circle id="椭圆形" cx="13" cy="11.5" r="3"></circle>
    </g>
  </g>
</svg>
