<svg width="16px" height="15px" viewBox="0 0 16 15" version="1.1" xmlns="http://www.w3.org/2000/svg" xmlns:xlink="http://www.w3.org/1999/xlink" class="icon icon-fullscreen-enter">
  <g id="页面-1" stroke="none" stroke-width="1" fill="none" fill-rule="evenodd">
    <g id="全屏" transform="translate(-19.000000, 0.000000)" fill="#FFFFFF">
      <g id="进入" transform="translate(19.000000, 0.000000)">
        <path d="M1.778,0 L6.222,0 L6.222,1.61686875 L1.778,1.61686875 L1.778,5.65813125 L0,5.65813125 L0,1.61686875 C0,0.7238625 0.796,0 1.778,0 Z M0,8.89186875 L0,12.9331313 C0,13.8261375 0.796,14.55 1.778,14.55 L6.222,14.55 L6.222,12.9331313 L2.823,12.9331313 L5.136,10.8297469 C5.47480256,10.5084081 5.46903006,9.99973955 5.12300716,9.6848276 C4.77698426,9.36991565 4.21762835,9.36426654 3.864,9.6721125 L1.778,11.5690688 L1.778,8.89186875 L0,8.89186875 L0,8.89186875 Z M14.222,12.9331313 L9.778,12.9331313 L9.778,14.55 L14.222,14.55 C15.204,14.55 16,13.8261375 16,12.9331313 L16,8.89186875 L14.222,8.89186875 L14.222,12.9331313 Z M16,1.61686875 C16,0.7238625 15.204,0 14.222,0 L9.778,0 L9.778,1.61686875 L12.723,1.61686875 L10.136,3.9685125 C9.90860045,4.17530396 9.81979081,4.47670909 9.90302482,4.75919149 C9.98625883,5.04167388 10.2288913,5.26231775 10.5395248,5.33800868 C10.8501584,5.41369961 11.1816005,5.33293834 11.409,5.12614687 L14.222,2.568075 L14.222,5.65813125 L16,5.65813125 L16,1.61686875 Z" id="形状"></path>
      </g>
    </g>
  </g>
</svg>
