<svg width="16px" height="15px" viewBox="0 0 16 15" version="1.1" xmlns="http://www.w3.org/2000/svg" xmlns:xlink="http://www.w3.org/1999/xlink" class="icon icon-fullscreen">
  <g id="页面-1" stroke="none" stroke-width="1" fill="none" fill-rule="evenodd">
    <g id="全屏进入-纯" fill="#FFFFFF">
      <path d="M14.222,8.89186875 L14.222,12.9331313 L9.778,12.9331313 L9.778,14.55 L14.222,14.55 C15.204,14.55 16,13.8261375 16,12.9331313 L16,8.89186875 L14.222,8.89186875 L14.222,8.89186875 Z M1.778,14.5481312 L6.222,14.5481312 L6.222,12.9312625 L1.778,12.9312625 L1.778,8.89 L0,8.89 L0,12.9312625 C0,13.8242687 0.796,14.5481312 1.778,14.5481312 Z M14.222,1.61686875 L9.778,1.61686875 L9.778,0 L14.222,0 C15.204,0 16,0.7238625 16,1.61686875 L16,5.65813125 L14.222,5.65813125 L14.222,1.61686875 Z M1.778,0 L6.222,0 L6.222,1.61686875 L1.778,1.61686875 L1.778,5.65813125 L0,5.65813125 L0,1.61686875 C0,0.7238625 0.796,0 1.778,0 Z" id="形状"></path>
    </g>
  </g>
</svg>
