<svg width="16px" height="15px" viewBox="0 0 16 15" version="1.1" xmlns="http://www.w3.org/2000/svg" xmlns:xlink="http://www.w3.org/1999/xlink" class="icon icon-fullscreen-exit">
  <g id="页面-1" stroke="none" stroke-width="1" fill="none" fill-rule="evenodd">
    <g id="全屏退出-箭头" fill="#FFFFFF">
      <path d="M1.8666526,0 L6.28394476,0 L6.28394476,1.61686875 L1.8666526,1.61686875 L1.8666526,5.65813125 L0.0997357295,5.65813125 L0.0997357295,1.61686875 C0.0997357295,0.7238625 0.890773877,0 1.8666526,0 Z M6.28394476,14.55 L6.28394476,10.5087375 C6.28394476,9.61573125 5.49290662,8.89186875 4.5170279,8.89186875 L0.0997357295,8.89186875 L0.0997357295,10.5087375 L3.02538436,10.5087375 L0.248800707,13.0495313 C-0.0878899321,13.37087 -0.0821534113,13.8795386 0.261712559,14.1944505 C0.60557853,14.5093625 1.1614477,14.5150116 1.51287172,14.2071656 L4.48224607,11.4908625 C4.49417784,11.4799434 4.50577625,11.4687235 4.5170279,11.4572156 L4.5170279,14.55 L6.28394476,14.55 L6.28394476,14.55 Z M14.2340769,8.89186875 L14.2340769,12.9331312 L9.81678473,12.9331312 L9.81678473,14.55 L14.2340769,14.55 C15.2089619,14.55 16,13.8261375 16,12.9331312 L16,8.89186875 L14.2340769,8.89186875 L14.2340769,8.89186875 Z M9.81678473,0 L9.81678473,4.04217188 C9.81678473,4.93426875 10.6078229,5.65813125 11.5837016,5.65813125 L16,5.65813125 L16,4.04217188 L13.0743514,4.04217188 L15.6263438,1.70689688 C15.8523259,1.50010541 15.9405819,1.19870028 15.8578667,0.916217877 C15.7751516,0.633735474 15.5340316,0.4130916 15.2253343,0.337400673 C14.9166371,0.261709746 14.5872611,0.342471019 14.361279,0.5492625 L11.5837016,3.091875 L11.5837016,0 L9.81678473,0 Z" id="形状"></path>
    </g>
  </g>
</svg>
