<svg width="16px" height="15px" viewBox="0 0 16 15" version="1.1" xmlns="http://www.w3.org/2000/svg" xmlns:xlink="http://www.w3.org/1999/xlink" class="icon icon-mforward">
  <g id="页面-1" stroke="none" stroke-width="1" fill="none" fill-rule="evenodd">
    <g id="默认" fill="#FFFFFF">
      <path d="M8.28533265,5.48475393 C8.72960538,5.86828617 9,6.54551053 9,7.27469386 C9,8.0038772 8.72960538,8.68110155 8.28533265,9.06463379 L2.29993175,14.2313622 C1.29583176,15.0994989 0,14.0914081 0,12.4424746 L0,2.10796544 C0,0.459031947 1.29658558,-0.549058853 2.30068558,0.31802551 L8.28533265,5.48580622 L8.28533265,5.48475393 Z" id="路径"></path>
      <path d="M16,7.29974751 C16,7.90113583 15.7596492,8.45967138 15.3647401,8.77598663 L10.0443838,13.0372059 C9.15185045,13.7531949 8,12.9217798 8,11.5618347 L8,3.0385282 C8,1.67858305 9.15252052,0.847167956 10.0450539,1.56228908 L15.3647401,5.82437626 C15.7596492,6.13982365 16,6.6983592 16,7.29974751 Z" id="路径"></path>
    </g>
  </g>
</svg>
