<svg width="16px" height="15px" viewBox="0 0 16 15" version="1.1" xmlns="http://www.w3.org/2000/svg" xmlns:xlink="http://www.w3.org/1999/xlink" class="icon icon-mprev">
  <g id="页面-1" stroke="none" stroke-width="1" fill="none" fill-rule="evenodd">
    <g id="默认" fill="#FFFFFF" transform="translate(8, 7.275) rotate(180) translate(-8, -7.275)translate(0, -0)">
      <path d="M13.515,-2.30926389e-14 C12.6782871,-2.30926389e-14 12,0.814280357 12,1.81875 L12,12.73125 C12,13.7357196 12.6782871,14.55 13.515,14.55 C14.3517129,14.55 15.03,13.7357196 15.03,12.73125 L15.03,1.81875 C15.03,0.814280357 14.3517129,-2.30926389e-14 13.515,-2.30926389e-14 Z" id="路径"></path>
      <path d="M12.0471102,5.48475393 C12.6394738,5.86828617 13,6.54551053 13,7.27469386 C13,8.0038772 12.6394738,8.68110155 12.0471102,9.06463379 L4.06657567,14.2313622 C2.72777567,15.0994989 1,14.0914081 1,12.4424746 L1,2.10796544 C1,0.459031947 2.72878078,-0.549058853 4.06758078,0.31802551 L12.0471102,5.48580622 L12.0471102,5.48475393 Z" id="路径"></path>
    </g>
  </g>
</svg>
