<svg width="16px" height="15px" viewBox="0 0 16 15" version="1.1" xmlns="http://www.w3.org/2000/svg" xmlns:xlink="http://www.w3.org/1999/xlink" class="icon icon-pause">
  <g id="页面-1" stroke="none" stroke-width="1" fill="none" fill-rule="evenodd">
    <g id="暂停粗">
      <rect id="画布" x="0" y="0" width="16" height="14.55"></rect>
      <g id="路径" transform="translate(3.000000, 0.000000)" fill="#FFFFFF">
        <path d="M1.515,0 C0.678287143,0 0,0.814280357 0,1.81875 C0,4.71325284 0,6.88412997 0,8.33138139 C0,9.30912997 0,10.7757528 0,12.73125 C0,13.7357196 0.678287143,14.55 1.515,14.55 C2.35171286,14.55 3.03,13.7357196 3.03,12.73125 L3.03,1.81875 C3.03,0.814280357 2.35171286,0 1.515,0 Z"></path>
        <path d="M8.84833333,0 C8.01162048,0 7.33333333,0.814280357 7.33333333,1.81875 L7.33333333,12.73125 C7.33333333,13.7357196 8.01162048,14.55 8.84833333,14.55 C9.68504619,14.55 10.3633333,13.7357196 10.3633333,12.73125 L10.3633333,1.81875 C10.3633333,0.814280357 9.68504619,0 8.84833333,0 Z"></path>
      </g>
    </g>
  </g>
</svg>
