<svg width="16px" height="15px" viewBox="0 0 16 15" version="1.1" xmlns="http://www.w3.org/2000/svg" xmlns:xlink="http://www.w3.org/1999/xlink" class="icon icon-pip">
  <g id="页面-1" stroke="none" stroke-width="1" fill="none" fill-rule="evenodd">
    <g id="默认" fill="#FFFFFF">
      <path d="M14,0 C15.1045695,0 16,0.930608127 16,2.07857143 L16,12.4714286 C16,13.6193919 15.1045695,14.55 14,14.55 L2,14.55 C0.8954305,14.55 0,13.6193919 0,12.4714286 L0,2.07857143 C0,0.930608127 0.8954305,0 2,0 L14,0 Z M13.85,1.75 L1.84000001,1.75 C1.75715729,1.75 1.69,1.81715729 1.69,1.90000001 L1.69,12.65 C1.69,12.7328427 1.75715729,12.8 1.84000001,12.8 L13.85,12.8 C13.9328427,12.8 14,12.7328427 14,12.65 L14,1.90000001 C14,1.81715729 13.9328427,1.75 13.85,1.75 Z" id="形状"></path>
      <path d="M9.33333333,10.5083333 L11.1111111,10.5083333 C11.8222222,10.5083333 12.4444444,9.9425 12.4444444,9.29583333 C12.4444444,8.64916667 11.8222222,8.08333333 11.1111111,8.08333333 L9.33333333,8.08333333 C8.62222222,8.08333333 8,8.64916667 8,9.29583333 C8,9.9425 8.62222222,10.5083333 9.33333333,10.5083333 Z" id="路径" fill-rule="nonzero"></path>
    </g>
  </g>
</svg>
