<svg width="16px" height="15px" viewBox="0 0 16 15" version="1.1" xmlns="http://www.w3.org/2000/svg" xmlns:xlink="http://www.w3.org/1999/xlink" class="icon icon-pip-exit">
  <g id="页面-1" stroke="none" stroke-width="1" fill="none" fill-rule="evenodd">
    <g id="画中画退出" fill="#FFFFFF">
      <path d="M14.1176471,1.746 L1.88235294,1.746 C1.77839059,1.746 1.69411765,1.8328538 1.69411765,1.94 L1.69411765,12.61 C1.69411765,12.717185 1.77839059,12.804 1.88235294,12.804 L6.58828235,12.804 L6.58829176,14.55 L1.88235294,14.55 C0.842757647,14.55 0,13.681462 0,12.61 L0,1.94 C0,0.8685671 0.842757647,0 1.88235294,0 L14.1176471,0 C15.1572706,0 16,0.8685671 16,1.94 L16,5.82 L14.3058824,5.82 L14.3058824,1.94 C14.3058824,1.8328538 14.2216471,1.746 14.1176471,1.746 Z M9.88235294,8.73 C9.36254118,8.73 8.94117647,9.164269 8.94117647,9.7 L8.94117647,13.58 C8.94117647,14.115731 9.36263529,14.55 9.88235294,14.55 L15.0588235,14.55 C15.5786353,14.55 16,14.115731 16,13.58 L16,9.7 C16,9.164269 15.5786353,8.73 15.0588235,8.73 L9.88235294,8.73 Z" id="形状"></path>
      <path d="M7.68316856,4.91409622 C7.95252195,4.91409622 8.17086256,4.71405806 8.17086256,4.46730322 L8.17086256,3.84179301 C8.17086256,3.59503816 7.95252195,3.395 7.68316856,3.395 L3.82102224,3.395 L3.80867383,3.39514297 L3.78181165,3.39514297 C3.512468,3.39514297 3.29411765,3.5951722 3.29411765,3.84193598 L3.29411765,7.3802149 C3.29411765,7.626934 3.512468,7.82700791 3.78181165,7.82700791 L4.46458324,7.82700791 C4.73392689,7.82700791 4.95227724,7.626934 4.95227724,7.3802149 L4.95227724,5.9238931 L6.97116458,7.80806388 C7.15984363,7.98418969 7.46862221,7.98678109 7.66084193,7.81387219 L8.14808725,7.37574697 C8.34028745,7.20283808 8.34311608,6.91998236 8.15447604,6.7438923 L6.19383887,4.91409622 L7.68316856,4.91409622 Z" id="路径"></path>
    </g>
  </g>
</svg>
