<svg width="16px" height="15px" viewBox="0 0 16 15" version="1.1" xmlns="http://www.w3.org/2000/svg" xmlns:xlink="http://www.w3.org/1999/xlink" class="icon icon-pip-enter">
  <g id="页面-1" stroke="none" stroke-width="1" fill="none" fill-rule="evenodd">
    <g id="画中画进入" fill="#FFFFFF">
      <path d="M14.1176471,1.746 L1.88235294,1.746 C1.77839059,1.746 1.69411765,1.8328538 1.69411765,1.94 L1.69411765,12.61 C1.69411765,12.717185 1.77839059,12.804 1.88235294,12.804 L6.58828235,12.804 L6.58829176,14.55 L1.88235294,14.55 C0.842757647,14.55 0,13.681462 0,12.61 L0,1.94 C0,0.8685671 0.842757647,0 1.88235294,0 L14.1176471,0 C15.1572706,0 16,0.8685671 16,1.94 L16,5.82 L14.3058824,5.82 L14.3058824,1.94 C14.3058824,1.8328538 14.2216471,1.746 14.1176471,1.746 Z M9.88235294,8.73 C9.36254118,8.73 8.94117647,9.164269 8.94117647,9.7 L8.94117647,13.58 C8.94117647,14.115731 9.36263529,14.55 9.88235294,14.55 L15.0588235,14.55 C15.5786353,14.55 16,14.115731 16,13.58 L16,9.7 C16,9.164269 15.5786353,8.73 15.0588235,8.73 L9.88235294,8.73 Z" id="形状"></path>
    </g>
  </g>
</svg>
