<svg width="16px" height="15px" viewBox="0 0 16 15" version="1.1" xmlns="http://www.w3.org/2000/svg" xmlns:xlink="http://www.w3.org/1999/xlink" class="icon icon-setting icon-setting-circle">
  <g id="页面-1" stroke="none" stroke-width="1" fill="none" fill-rule="evenodd">
    <g id="设置" fill="#FFFFFF" fill-rule="nonzero">
      <g id="六边形-圆">
        <path d="M9.40388813,4.89151039 C10.6774465,5.62669996 11.1138807,7.25511192 10.3786911,8.52867031 C9.90310684,9.35251814 9.02413128,9.86006374 8.07286601,9.8601196 C7.12160073,9.86017545 6.24256557,9.35273309 5.76688455,8.52894112 C5.29120354,7.70514916 5.29114394,6.69016119 5.7667282,5.86631337 C6.50191777,4.59275498 8.13032974,4.15632082 9.40388813,4.89151039 Z M7.40407689,6.03838472 C6.98882907,6.27630818 6.73321501,6.71793598 6.73426452,7.19562284 C6.73532051,7.6733097 6.99287866,8.11381214 7.40917116,8.34991206 C8.04518209,8.69695205 8.84260959,8.47401746 9.2051797,7.84780694 C9.56774981,7.22159642 9.36283182,6.42118223 8.74365251,6.04507162 L8.74365251,6.04431094 C8.33053656,5.80272285 7.81932471,5.80046127 7.40407689,6.03838472 Z" id="同心圆"></path>
        <path d="M10.663183,0 C11.6143273,0 12.4932119,0.507463293 12.9687841,1.33117847 L15.6433118,5.96367956 C16.1188961,6.78741567 16.1188961,7.8023004 15.6433118,8.62603651 L12.97,13.2235466 C12.4804367,14.0711674 11.6384254,14.5817871 10.66,14.5532037 L5.31,14.554344 C4.41792033,14.5283258 3.481349,13.9022711 3.01,13.1444366 L0.401698615,8.66254883 C-0.117315828,7.82819753 -0.134568239,6.77580048 0.356818883,5.92488522 L3.00928708,1.33117847 C3.48485926,0.507463293 4.36374383,0 5.31488819,0 L10.663183,0 Z M5.48401343,1.75 C5.0382622,1.75 4.62632755,1.98764913 4.40345194,2.37368104 L1.91873073,6.67882049 C1.68876043,7.0774614 1.69697972,7.57034484 1.94011387,7.96109629 L4.40345194,12.2697996 C4.62441108,12.6247598 5.06632937,12.7366649 5.48401343,12.748782 L10.4955094,12.748782 C10.954041,12.7623064 11.3500498,12.6670361 11.579478,12.2697996 L14.0821752,7.96109629 C14.3049928,7.57516486 14.3049928,7.06359457 14.0821752,6.67766314 L11.5760709,2.37368104 C11.3531952,1.98764913 10.9412606,1.75 10.4955094,1.75 L5.48401343,1.75 Z" id="六边形"></path>
      </g>
  </g>
  </g>
</svg>
