<svg width="16px" height="15px" viewBox="0 0 16 15" version="1.1" xmlns="http://www.w3.org/2000/svg" xmlns:xlink="http://www.w3.org/1999/xlink" class="icon icon-setting icon-setting-dot">
  <g id="页面-1" stroke="none" stroke-width="1" fill="none" fill-rule="evenodd">
    <g id="设置" transform="translate(0.000000, -25.000000)" fill="#FFFFFF">
      <g id="六边形-点" transform="translate(0.000000, 25.000000)">
        <circle id="圆心" cx="8" cy="7.1" r="2"></circle>
        <path d="M10.663183,0 C11.6143273,0 12.4932119,0.507463293 12.9687841,1.33117847 L15.6433118,5.96367956 C16.1188961,6.78741567 16.1188961,7.8023004 15.6433118,8.62603651 L12.97,13.2235466 C12.4804367,14.0711674 11.6384254,14.5817871 10.66,14.5532037 L5.31,14.554344 C4.41792033,14.5283258 3.481349,13.9022711 3.01,13.1444366 L0.401698615,8.66254883 C-0.117315828,7.82819753 -0.134568239,6.77580048 0.356818883,5.92488522 L3.00928708,1.33117847 C3.48485926,0.507463293 4.36374383,0 5.31488819,0 L10.663183,0 Z M5.48401343,1.75 C5.0382622,1.75 4.62632755,1.98764913 4.40345194,2.37368104 L1.91873073,6.67882049 C1.68876043,7.0774614 1.69697972,7.57034484 1.94011387,7.96109629 L4.40345194,12.2697996 C4.62441108,12.6247598 5.06632937,12.7366649 5.48401343,12.748782 L10.4955094,12.748782 C10.954041,12.7623064 11.3500498,12.6670361 11.579478,12.2697996 L14.0821752,7.96109629 C14.3049928,7.57516486 14.3049928,7.06359457 14.0821752,6.67766314 L11.5760709,2.37368104 C11.3531952,1.98764913 10.9412606,1.75 10.4955094,1.75 L5.48401343,1.75 Z" id="六边形" fill-rule="nonzero"></path>
      </g>
    </g>
  </g>
</svg>
