<svg width="16px" height="15px" viewBox="0 0 16 15" version="1.1" xmlns="http://www.w3.org/2000/svg" xmlns:xlink="http://www.w3.org/1999/xlink" class="icon icon-volume-muted icon-volume-muted-fill">
  <g id="页面-1" stroke="none" stroke-width="1" fill="none" fill-rule="evenodd">
    <g id="静音" fill="#FFFFFF">
      <path d="M6.2237039,0.498276618 C7.72298868,-0.736978795 9.83587859,0.465848411 9.83587859,2.55460742 L9.83587859,11.9953381 C9.83587859,14.0840886 7.72298868,15.2869498 6.22377956,14.0517879 L3.35676817,11.6896714 C3.2269956,11.5828241 3.07025769,11.5251929 2.90933577,11.5251929 L2.26980941,11.5251929 C1.0162315,11.5251929 0,10.383448 0,8.97513731 L0,5.57506323 C0,4.16666754 1.0162315,3.02500767 2.26980941,3.02500767 L2.90932064,3.02500767 C3.07025013,3.02500767 3.22698803,2.96729141 3.3567606,2.86035908 L6.2237039,0.498276618 Z M11.1391381,4.95449123 C11.2092344,4.89070004 11.3043443,4.85485756 11.4035213,4.85485756 C11.5026983,4.85485756 11.5978082,4.89070004 11.6679044,4.95449123 L13.2515146,6.39513894 L14.8342286,4.95367638 C14.980101,4.8213743 15.2162263,4.8213743 15.3620987,4.95367638 L15.890865,5.43443552 C16.0363783,5.56706402 16.0363783,5.7817513 15.890865,5.91437981 L14.3054623,7.35584236 L15.8899688,8.79567523 C16.0244009,8.91790213 16.0351554,9.11102063 15.9213363,9.24384052 L15.8899688,9.27643436 L15.3620987,9.75637865 C15.2920024,9.82016984 15.1968925,9.85601232 15.0977156,9.85601232 C14.9985386,9.85601232 14.9034287,9.82016984 14.8333324,9.75637865 L13.2497222,8.31573094 L11.6652158,9.75637865 C11.5951195,9.82016984 11.5,9.85601232 11.4008326,9.85601232 C11.3016556,9.85601232 11.2065457,9.82016984 11.1364495,9.75637865 L10.6094756,9.27561952 C10.4639623,9.14299101 10.4639623,8.92830373 10.6094756,8.79567523 L12.1930859,7.35502752 L10.6094756,5.91519465 C10.4764641,5.79427028 10.4630285,5.60230797 10.5781082,5.46702936 L10.6094756,5.43443552 L11.1373457,4.95449123 L11.1391381,4.95449123 Z" id="形状"></path>
    </g>
  </g>
</svg>
