<svg width="16px" height="15px" viewBox="0 0 16 15" version="1.1" xmlns="http://www.w3.org/2000/svg" xmlns:xlink="http://www.w3.org/1999/xlink" class="icon icon-volume-small">
  <g id="页面-1" stroke="none" stroke-width="1" fill="none" fill-rule="evenodd">
    <g id="音量小" fill="#FFFFFF">
      <path d="M9.84,2.55465418 C9.84,0.465846743 7.72621987,-0.736978983 6.22630341,0.49827491 L3.3581749,2.86040547 C3.22836279,2.96733767 3.07152857,3.02496885 2.91054641,3.02496885 L2.27076574,3.02496885 C1.01665967,3.02496885 0,4.16662732 0,5.57502127 L0,8.97509117 C0,10.3834001 1.01665967,11.5251436 2.27076574,11.5251436 L2.91056155,11.5251436 C3.07152857,11.5251436 3.22836279,11.5827748 3.3581749,11.689707 L6.2263791,14.0517355 C7.72629556,15.2869809 9.84,14.0841212 9.84,11.9953733 L9.84,2.55465418 Z M7.21651001,1.98478466 C7.71628723,1.57317517 8.42066667,1.97397631 8.42066667,2.67001874 L8.42066667,12.1073565 C8.42066667,12.8033564 7.71628723,13.2041661 7.21651001,12.7925651 L4.34927938,10.4313825 C3.95997525,10.1107008 3.48970796,9.93786919 3.0069103,9.93786919 L2.36733165,9.93786919 C1.94944071,9.93786919 1.61066667,9.55745267 1.61066667,9.08815616 L1.61066667,5.68930404 C1.61066667,5.22000754 1.94944071,4.83959101 2.36733165,4.83959101 L3.00689516,4.83959101 C3.48970796,4.83959101 3.95997525,4.66667441 4.34935505,4.34607769 L7.21651001,1.98478466 Z M14.6158179,4.48819 C15.5058101,5.23888009 16.0016523,6.23717812 15.9999959,7.275 C15.9999959,8.3614 15.4675245,9.34789 14.6001571,10.07442 C14.5110805,10.1459994 14.3899204,10.1856327 14.264084,10.1843848 C14.1382477,10.1830769 14.0183676,10.1409956 13.9315614,10.06763 L13.2364628,9.50697 C13.0244396,9.33625 13.0485332,9.05398 13.2473049,8.87162 C13.7283302,8.43001297 13.9930059,7.86239424 13.9917952,7.275 C13.992755,6.69194779 13.7317455,6.128296 13.2569423,5.68808 C13.0605799,5.50572 13.0376911,5.22539 13.2497142,5.05467 L13.9460175,4.49401 C14.0330275,4.42047177 14.1532574,4.37837238 14.2793922,4.37725443 C14.405527,4.37618037 14.5268573,4.4161808 14.6158179,4.48819 L14.6158179,4.48819 Z" id="形状"></path>
    </g>
  </g>
</svg>
