<svg width="16px" height="15px" viewBox="0 0 16 15" version="1.1" xmlns="http://www.w3.org/2000/svg" xmlns:xlink="http://www.w3.org/1999/xlink" class="icon icon-volume-large icon-volume-large-fill">
    <g id="页面-1" stroke="none" stroke-width="1" fill="none" fill-rule="evenodd">
        <g id="音量大" fill="#FFFFFF">
            <path d="M6.2237039,0.498276618 C7.72298868,-0.736978795 9.83587859,0.465848411 9.83587859,2.55460742 L9.83587859,11.9953381 C9.83587859,14.0840886 7.72298868,15.2869498 6.22377956,14.0517879 L3.35676817,11.6896714 C3.2269956,11.5828241 3.07025769,11.5251929 2.90933577,11.5251929 L2.26980941,11.5251929 C1.0162315,11.5251929 0,10.383448 0,8.97513731 L0,5.57506323 C0,4.16666754 1.0162315,3.02500767 2.26980941,3.02500767 L2.90932064,3.02500767 C3.07025013,3.02500767 3.22698803,2.96729141 3.3567606,2.86035908 L6.2237039,0.498276618 Z M14.065358,2.20966 C15.3083895,3.56568797 16.0026527,5.3834439 15.9999924,7.275 C16.0022935,9.17216341 15.3038383,10.9947614 14.0543866,12.35198 C13.9851593,12.4255235 13.8910145,12.4665246 13.7930497,12.4658049 C13.6950849,12.4650659 13.6014918,12.422667 13.5332442,12.3481 L12.996559,11.77968 C12.844871,11.6118702 12.8468989,11.3463697 13.0011304,11.18119 C13.949467,10.1298546 14.4778939,8.730195 14.4758719,7.275 C14.4758719,5.76471 13.9181581,4.3941 13.0102733,3.37851 C12.857738,3.21304204 12.8565239,2.94899889 13.0075304,2.78196 L13.5433014,2.21354 C13.6115489,2.13897299 13.7051421,2.09657408 13.8031069,2.09583515 C13.9010717,2.09511535 13.9952165,2.13611652 14.0644437,2.20966 L14.065358,2.20966 Z M11.9021601,4.48819 C12.5776161,5.23888009 12.9539336,6.23717812 12.9526765,7.275 C12.9526765,8.3614 12.5485594,9.34789 11.8902744,10.07442 C11.82267,10.1459994 11.7307161,10.1856327 11.635213,10.1843848 C11.53971,10.1830769 11.4487275,10.1409956 11.3828463,10.06763 L10.8553039,9.50697 C10.6943898,9.33625 10.7126755,9.05398 10.8635325,8.87162 C11.2286047,8.43001297 11.4294794,7.86239424 11.4285605,7.275 C11.4292889,6.69194779 11.2311968,6.128296 10.8708468,5.68808 C10.7218183,5.50572 10.7044469,5.22539 10.8653611,5.05467 L11.3938177,4.49401 C11.4598536,4.42047177 11.5511016,4.37837238 11.6468311,4.37725443 C11.7425607,4.37618037 11.8346437,4.4161808 11.9021601,4.48819 L11.9021601,4.48819 Z" id="形状"></path>
        </g>
    </g>
</svg>
