<svg width="16px" height="15px" viewBox="0 0 16 15" version="1.1" xmlns="http://www.w3.org/2000/svg" xmlns:xlink="http://www.w3.org/1999/xlink" class="icon icon-widescreen-enter">
  <g id="页面-1" stroke="none" stroke-width="1" fill="none" fill-rule="evenodd">
    <g id="宽屏进去-水平" fill="#FFFFFF" fill-rule="nonzero">
      <path d="M14,2.07857143 L2,2.07857143 L2,12.4714286 L14,12.4714286 L14,2.07857143 Z M16,2.07857143 L16,12.4714286 C16,13.6193919 15.1045695,14.55 14,14.55 L2,14.55 C0.8954305,14.55 0,13.6193919 0,12.4714286 L0,2.07857143 C0,0.930608127 0.8954305,0 2,0 L14,0 C15.1045695,0 16,0.930608127 16,2.07857143 Z" id="形状"></path>
      <path d="M5.49307915,7.01312524 L6.22796513,7.74801121 C6.45229915,7.9262697 6.58640178,8.19448534 6.59182018,8.47574948 C6.59723858,8.75701363 6.47337426,9.02025968 6.25574432,9.19000397 C6.08600003,9.40763391 5.82275398,9.53149823 5.54148984,9.52607983 C5.26022569,9.52066143 4.99201005,9.3865588 4.81375157,9.16222478 L3.34397961,7.69245282 C3.11964559,7.51419434 2.98554296,7.2459787 2.98012456,6.96471455 C2.97470616,6.68345041 3.09857048,6.42020436 3.31620042,6.25046007 L4.73041398,4.8362465 C4.90015827,4.61861656 5.16340433,4.49475225 5.44466847,4.50017065 C5.72593261,4.50558905 5.99414826,4.63969168 6.17240674,4.8640257 C6.39674076,5.04228418 6.53084339,5.31049983 6.53626179,5.59176397 C6.54168019,5.87302811 6.41781587,6.13627417 6.20018593,6.30601846 L5.49307915,7.01312524 Z M10.5839855,7.00976062 L9.84909954,6.27487465 C9.44323322,5.86900833 9.43079605,5.22340618 9.82132034,4.83288189 C10.2118446,4.4423576 10.8574468,4.45479477 11.2633131,4.86066108 L12.7330851,6.33043304 C12.9574191,6.50869152 13.0915217,6.77690716 13.0969401,7.05817131 C13.1023585,7.33943545 12.9784942,7.6026815 12.7608642,7.77242579 L11.3466507,9.18663936 C10.9561264,9.57716365 10.3105242,9.56472648 9.90465793,9.15886016 C9.49879161,8.75299384 9.48635444,8.1073917 9.87687873,7.7168674 L10.5839855,7.00976062 Z" id="形状"></path>
    </g>
  </g>
</svg>
