<svg width="16px" height="15px" viewBox="0 0 16 15" version="1.1" xmlns="http://www.w3.org/2000/svg" xmlns:xlink="http://www.w3.org/1999/xlink" class="icon icon-widescreen-exit">
  <g id="页面-1" stroke="none" stroke-width="1" fill="none" fill-rule="evenodd">
    <g id="宽屏退出-水平" fill="#FFFFFF" fill-rule="nonzero">
      <path d="M14,2.07857143 L2,2.07857143 L2,12.4714286 L14,12.4714286 L14,2.07857143 Z M16,2.07857143 L16,12.4714286 C16,13.6193919 15.1045695,14.55 14,14.55 L2,14.55 C0.8954305,14.55 0,13.6193919 0,12.4714286 L0,2.07857143 C0,0.930608127 0.8954305,0 2,0 L14,0 C15.1045695,0 16,0.930608127 16,2.07857143 Z" id="形状"></path>
      <path d="M4.09307915,7.01312524 L3.35819318,6.27823926 C3.13385915,6.09998078 2.99975652,5.83176513 2.99433812,5.55050099 C2.98891972,5.26923685 3.11278404,5.00599079 3.33041398,4.8362465 C3.50015827,4.61861656 3.76340433,4.49475225 4.04466847,4.50017065 C4.32593261,4.50558905 4.59414826,4.63969168 4.77240674,4.8640257 L6.24217869,6.33379765 C6.46651271,6.51205613 6.60061534,6.78027178 6.60603374,7.06153592 C6.61145214,7.34280006 6.48758783,7.60604612 6.26995789,7.77579041 L4.85574432,9.19000397 C4.68600003,9.40763391 4.42275398,9.53149823 4.14148984,9.52607983 C3.86022569,9.52066143 3.59201005,9.3865588 3.41375157,9.16222478 C3.18941754,8.9839663 3.05531491,8.71575065 3.04989651,8.43448651 C3.04447811,8.15322236 3.16834243,7.88997631 3.38597237,7.72023202 L4.09307915,7.01312524 Z M12.0930792,7.00993581 L12.8279651,7.74482178 C13.2338314,8.1506881 13.2462686,8.79629025 12.8557443,9.18681454 C12.46522,9.57733883 11.8196179,9.56490166 11.4137516,9.15903535 L9.94397961,7.68926339 C9.71964559,7.51100491 9.58554296,7.24278927 9.58012456,6.96152512 C9.57470616,6.68026098 9.69857048,6.41701493 9.91620042,6.24727064 L11.330414,4.83305707 C11.7209383,4.44253278 12.3665404,4.45496995 12.7724067,4.86083627 C13.1782731,5.26670259 13.1907102,5.91230473 12.8001859,6.30282903 L12.0930792,7.00993581 Z" id="形状"></path>
    </g>
  </g>
</svg>
