
<svg xmlns="http://www.w3.org/2000/svg" viewBox="0 0 512 512"  fill="none" color="#FFFFFF">
  <path fill="currentColor" d="M189,176 C175.031,218.857 157.332,260.823 141.424,303 C135.268,319.321 129.144,335.656 123.05,352 C119.669,361.07 116.995,371.434 112.291,379.896 C110.272,383.526 106.449,385.35 103,387.397 C96.6834,391.144 89.9563,394.468 84,398.785 C66.3331,411.591 60.6692,437.585 70.3765,457 C72.9737,462.194 76.6711,466.961 81.0039,470.816 C84.2738,473.725 88.0024,476.178 92,477.96 C120.407,490.624 145.425,470.258 169,456.576 C248.444,410.469 327.979,364.431 407,317.603 C432.777,302.328 469.246,289.422 468.996289,254 C468.96,248.941 468.056,243.811 466.48,239 C461.102,222.582 447.102,214.737 433,206.719 C420.004,199.33 406.97,192.014 394,184.579 C373.794,172.994 353.205,161.049 330,172.981 C299.61,188.609 296.525,238.547 329,254 L329,256 C317.837,260.81 307.533,268.103 297,274.15 C277.608,285.282 258.071,296.328 239,308 C242.429,295.438 247.98,283.185 252.576,271 C261.752,246.674 270.967,222.362 280.05,198 C286.699,180.166 296.265,161.454 290.43,142 C284.725,122.98 268.012,114.759 252,105.579 C219.963,87.2121 188.102,68.5323 156,50.2809 C140.102,41.242 124.278,29.243 105,31.1705 C70.3247,34.6377 51.5462,75.3892 71.5702,104 C77.5834,112.592 86.1358,117.28 95,122.424 L128,141.424 C147.836,152.936 167.843,167.145 189,176 Z"></path>
</svg>

