<svg width="12.9338439px" height="32px" viewBox="0 0 12.9338439 32" version="1.1" xmlns="http://www.w3.org/2000/svg" xmlns:xlink="http://www.w3.org/1999/xlink">
  <defs>
    <rect id="path-f1l02fvxtt-1" x="0" y="0" width="13" height="32"></rect>
  </defs>
  <g id="页面-1" stroke="none" stroke-width="1" fill="none" fill-rule="evenodd">
    <g id="矩形" transform="translate(0, 0)">
      <mask id="mask-f1l02fvxtt-2" fill="white">
        <use xlink:href="#path-f1l02fvxtt-1"></use>
      </mask>
      <g id="path-1"></g>
      <path d="M8.93384394,0 C11.1429829,0 12.9338439,2.04669829 12.9338439,4.57142857 C12.9338439,5.19052241 12.8238129,5.80316549 12.6104241,6.3722025 L4.03899549,29.2293454 C3.40868032,30.9101858 1.9625278,32 0.362415368,32 L-51,32 C-53.209139,32 -55,29.9533017 -55,27.4285714 L-55,4.57142857 C-55,2.04669829 -53.209139,0 -51,0 L8.93384394,0 Z M8.93384394,1.14285714 L-51,1.14285714 C-52.6568542,1.14285714 -54,2.6926407 -54,4.6043956 L-54,27.6813187 C-54,29.5930735 -52.6568542,31.1428571 -51,31.1428571 L0.362415368,31.1428571 C1.56249969,31.1428571 2.64711408,30.3176372 3.11985046,29.0448855 L11.691279,5.96796241 C11.8513207,5.53708101 11.9338439,5.0731806 11.9338439,4.6043956 C11.9338439,2.6926407 10.5906982,1.14285714 8.93384394,1.14285714 Z" id="形状" fill-opacity="0.1" fill="#FFFFFF" fill-rule="nonzero" mask="url(#mask-f1l02fvxtt-2)"></path>
    </g>
  </g>
</svg>
