<svg width="16px" height="32px" viewBox="0 0 16 32" version="1.1" xmlns="http://www.w3.org/2000/svg" xmlns:xlink="http://www.w3.org/1999/xlink">
  <defs>
    <rect id="path-zmk9yx3i1c-1" x="0" y="0" width="16" height="32"></rect>
    <rect id="path-zmk9yx3i1c-3" x="0" y="0" width="16" height="32"></rect>
  </defs>
  <g id="页面-1" stroke="none" stroke-width="1" fill="none" fill-rule="evenodd">
    <g id="矩形备份-2">
      <g id="矩形-Clipped">
        <mask id="mask-zmk9yx3i1c-2" fill="white">
          <use xlink:href="#path-zmk9yx3i1c-1"></use>
        </mask>
        <g id="path-1"></g>
        <path d="M-50,0 L9.93384394,0 C12.1429829,0 13.9338439,2.04669829 13.9338439,4.57142857 C13.9338439,5.19052241 13.8238129,5.80316549 13.6104241,6.3722025 L5.03899549,29.2293454 C4.40868032,30.9101858 2.9625278,32 1.36241537,32 L-50,32 C-52.209139,32 -54,29.9533017 -54,27.4285714 L-54,4.57142857 C-54,2.04669829 -52.209139,0 -50,0 Z" id="矩形" fill-opacity="0.08" fill="#FFFFFF" fill-rule="nonzero" mask="url(#mask-zmk9yx3i1c-2)"></path>
      </g>
      <g id="矩形-Clipped">
        <mask id="mask-zmk9yx3i1c-4" fill="white">
          <use xlink:href="#path-zmk9yx3i1c-3"></use>
        </mask>
        <g id="path-1"></g>
        <path d="M9.93384394,0 C12.1429829,0 13.9338439,2.04669829 13.9338439,4.57142857 C13.9338439,5.19052241 13.8238129,5.80316549 13.6104241,6.3722025 L5.03899549,29.2293454 C4.40868032,30.9101858 2.9625278,32 1.36241537,32 L-50,32 C-52.209139,32 -54,29.9533017 -54,27.4285714 L-54,4.57142857 C-54,2.04669829 -52.209139,0 -50,0 L9.93384394,0 Z M9.93384394,1.14285714 L-50,1.14285714 C-51.6568542,1.14285714 -53,2.67788086 -53,4.57142857 L-53,27.4285714 C-53,29.3221191 -51.6568542,30.8571429 -50,30.8571429 L1.36241537,30.8571429 C2.56249969,30.8571429 3.64711408,30.0397822 4.11985046,28.7791519 L12.691279,5.92200903 C12.8513207,5.49523126 12.9338439,5.03574895 12.9338439,4.57142857 C12.9338439,2.67788086 11.5906982,1.14285714 9.93384394,1.14285714 Z" id="矩形" fill-opacity="0.1" fill="#FFFFFF" fill-rule="nonzero" mask="url(#mask-zmk9yx3i1c-4)"></path>
      </g>
    </g>
  </g>
</svg>
