<?xml
version="1.0" encoding="UTF-8"?>
<svg width="16px" height="28px" viewBox="0 0 16 28" version="1.1" xmlns="http://www.w3.org/2000/svg" xmlns:xlink="http://www.w3.org/1999/xlink">
    <title>矩形备份 2</title>
    <defs>
        <rect id="path-1" x="0" y="0" width="16" height="28"></rect>
    </defs>
    <g id="PCW" stroke="none" stroke-width="1" fill="none" fill-rule="evenodd">
        <g id="TVG调整细节" transform="translate(-1035, -766)">
            <g id="矩形备份-2" transform="translate(1035, 766)">
                <mask id="mask-2" fill="white">
                    <use xlink:href="#path-1"></use>
                </mask>
                <g id="蒙版"></g>
                <path d="M-50,0 L9.93384394,0 C12.1429829,-4.33003142e-15 13.9338439,1.790861 13.9338439,4 C13.9338439,4.54170711 13.8238129,5.0777698 13.6104241,5.57567719 L5.03899549,25.5756772 C4.40868032,27.0464126 2.9625278,28 1.36241537,28 L-50,28 C-52.209139,28 -54,26.209139 -54,24 L-54,4 C-54,1.790861 -52.209139,4.05812251e-16 -50,0 Z" id="矩形" fill-opacity="0.08" fill="#FFFFFF" mask="url(#mask-2)"></path>
                <path d="M9.93384394,0 C12.1429829,0 13.9338439,1.790861 13.9338439,4 C13.9338439,4.54170711 13.8238129,5.0777698 13.6104241,5.57567719 L5.03899549,25.5756772 C4.40868032,27.0464126 2.9625278,28 1.36241537,28 L-50,28 C-52.209139,28 -54,26.209139 -54,24 L-54,4 C-54,1.790861 -52.209139,0 -50,0 L9.93384394,0 Z M9.93384394,1 L-50,1 C-51.6568542,1 -53,2.34314575 -53,4 L-53,24 C-53,25.6568542 -51.6568542,27 -50,27 L1.36241537,27 C2.56249969,27 3.64711408,26.2848094 4.11985046,25.1817579 L12.691279,5.1817579 C12.8513207,4.80832735 12.9338439,4.40628033 12.9338439,4 C12.9338439,2.34314575 11.5906982,1 9.93384394,1 Z" id="矩形" fill-opacity="0.1" fill="#FFFFFF" fill-rule="nonzero" mask="url(#mask-2)"></path>
            </g>
        </g>
    </g>
</svg>
