<svg class="icon n-voice-no" xmlns="http://www.w3.org/2000/svg" viewBox="0 0 18 18">
	<path fill="#fff" d="M2.707,1.293c-0.391-0.391-1.023-0.391-1.414,0s-0.391,1.023,0,1.414l14,14C15.488,16.902,15.744,17,16,17
		s0.512-0.098,0.707-0.293c0.391-0.391,0.391-1.023,0-1.414L2.707,1.293z"></path>
	<path fill="#fff" d="M10.383,15.096c-0.146,0.06-0.651,0.221-1.09-0.217l-2-2C6.727,12.312,5.973,12,5.171,12H4c-1.103,0-2-0.897-2-2V8
		c0-0.701,0.364-1.317,0.912-1.674L1.494,4.908C0.59,5.642,0,6.748,0,8v2c0,2.206,1.794,4,4,4h1.171
		c0.267,0,0.519,0.104,0.708,0.293l2,2c0.581,0.582,1.33,0.886,2.102,0.886c0.389,0,0.784-0.077,1.167-0.236
		c0.554-0.229,1.004-0.599,1.323-1.059l-1.51-1.51C10.867,14.835,10.509,15.043,10.383,15.096z"></path>
	<path fill="#fff" d="M9.293,3.121c0.439-0.439,0.945-0.276,1.09-0.217C10.527,2.964,11,3.208,11,3.829v3.757l2,2V3.829
		c0-1.237-0.709-2.299-1.852-2.772c-1.142-0.473-2.395-0.224-3.269,0.65L6.5,3.086L7.914,4.5L9.293,3.121z"></path>
	<path fill="#fff" d="M15.364,11.95l1.517,1.517c0.004-0.007,0.01-0.012,0.014-0.02c1.392-2.785,1.392-6.11,0-8.895
		c-0.247-0.494-0.847-0.694-1.342-0.447c-0.494,0.247-0.694,0.848-0.447,1.342C16.119,7.475,16.198,9.858,15.364,11.95z"></path>
</svg>