<svg id="n-zoom-s" viewBox="0 0 18 18" version="1.1" xmlns="http://www.w3.org/2000/svg" xmlns:xlink="http://www.w3.org/1999/xlink" xml:space="preserve">
  <path fill="#fff" d="M6 0a1 1 0 0 0-1 1v2c0 .178-.031.347-.075.511L1.707.293A.999.999 0 1 0 .293 1.707l3.218 3.218A1.96 1.96 0 0 1 3 5H1a1 1 0 0 0 0 2h2c2.206 0 4-1.794 4-4V1a1 1 0 0 0-1-1zM17 13a1 1 0 0 0 0-2h-2c-2.206 0-4 1.794-4 4v2a1 1 0 0 0 2 0v-2c0-.178.031-.347.075-.511l3.218 3.218a.997.997 0 0 0 1.414 0 .999.999 0 0 0 0-1.414l-3.218-3.218A1.96 1.96 0 0 1 15 13h2zM6 16H4c-1.103 0-2-.897-2-2v-2a1 1 0 0 0-2 0v2c0 2.206 1.794 4 4 4h2a1 1 0 0 0 0-2zM14 0h-2a1 1 0 0 0 0 2h2c1.103 0 2 .897 2 2v2a1 1 0 0 0 2 0V4c0-2.206-1.794-4-4-4z"></path>
</svg>