<svg width="14px" height="14px" viewBox="0 0 14 14" version="1.1" xmlns="http://www.w3.org/2000/svg" xmlns:xlink="http://www.w3.org/1999/xlink">
    <defs>
        <circle id="path-obfrdtbdfc-1" cx="7" cy="7" r="7"></circle>
        <linearGradient x1="93.603674%" y1="70.8349447%" x2="3.75511277%" y2="46.3820921%" id="linearGradient-obfrdtbdfc-3">
            <stop stop-color="#62C9FF" offset="0%"></stop>
            <stop stop-color="#3399FF" offset="100%"></stop>
        </linearGradient>
        <linearGradient x1="43.6166942%" y1="97.8171907%" x2="49.0102442%" y2="4.56830528%" id="linearGradient-obfrdtbdfc-4">
            <stop stop-color="#FBCC00" offset="0%"></stop>
            <stop stop-color="#F69D00" offset="100%"></stop>
        </linearGradient>
        <radialGradient cx="19.2935403%" cy="73.3379376%" fx="19.2935403%" fy="73.3379376%" r="138.359604%" gradientTransform="translate(0.192935,0.733379),scale(0.620866,1.000000),rotate(-26.630455),translate(-0.192935,-0.733379)" id="radialGradient-obfrdtbdfc-5">
            <stop stop-color="#C962E8" offset="0%"></stop>
            <stop stop-color="#9933CC" offset="100%"></stop>
        </radialGradient>
    </defs>
    <g id="页面-1" stroke="none" stroke-width="1" fill="none" fill-rule="evenodd">
        <g id="360-small">
            <g id="Clipped">
                <mask id="mask-obfrdtbdfc-2" fill="white">
                    <use xlink:href="#path-obfrdtbdfc-1"></use>
                </mask>
                <g id="椭圆形"></g>
                <g id="编组" mask="url(#mask-obfrdtbdfc-2)" fill-rule="nonzero">
                    <g transform="translate(-0.063053, -0.081162)" id="路径">
                        <path d="M9.50749713,7.08116209 L4.50749713,3.08116209 C4.5010477,2.84157688 4.50749713,2.16125209 4.50749713,1.62447698 C4.50749713,1.08770186 4.50749713,1.42931865 4.50749713,0.526016344 C4.50749713,0.288857074 4.90995916,0.288857074 5.5400879,0.156127999 C6.57805888,-0.221850542 8.20441208,0.223898368 8.63362915,0.0811620892 C9.29996743,-0.14042892 11.9244324,1.79631485 12.6274493,2.6606668 C13.3304661,3.52501875 14.0953041,4.68199499 14.0953041,7.05323574 L9.50749713,7.08116209 Z" fill="url(#linearGradient-obfrdtbdfc-3)"></path>
                        <path d="M0.0461169022,2.0580115 L1.85477731,0.526123276 C2.52149959,0.669043863 3.98942809,2.60242875 4.19475639,4.00586653 C4.30577516,4.76469002 4.69532986,5.75052021 4.48150137,7.08709405 C4.29985583,8.22250249 4.17468624,9.05502006 2.92421968,10.5783918 C1.67375311,12.1017636 0,12.6130503 0,12.6130503 C0,12.6130503 0,7.63635274 0,6.04751138 C0,4.98828381 0.0153723007,3.65845051 0.0461169022,2.0580115 Z" fill="url(#linearGradient-obfrdtbdfc-4)" transform="translate(2.272277, 6.569587) rotate(180.000000) translate(-2.272277, -6.569587) "></path>
                        <path d="M9.50749713,7.08116209 C10.1976484,7.0346492 10.9598685,7.03509539 11.7971546,7.05323574 C12.3553454,7.0653293 13.1106448,7.0653293 14.0630527,7.05323574 C14.2300783,7.36462971 13.7530941,10.2469104 12.5074971,11.4778293 C12.087065,12.0009418 10.4801166,13.3993194 9.08263201,13.9140248 C8.40433084,14.1638489 6.87988662,14.2919131 5.72482225,14.0811621 C4.50014044,13.8577088 2.93678133,12.9223581 2.58647486,12.658044 C2.98659124,12.3279288 3.623912,11.8023015 4.49843715,11.0811621 C5.33538237,10.3910114 5.90170501,9.98532001 7.06305269,9.04482004 C8.22440036,8.10432006 9.21459436,7.10090233 9.50749713,7.08116209 Z" fill="url(#radialGradient-obfrdtbdfc-5)"></path>
                    </g>
                </g>
            </g>
            <polygon id="路径" fill="#FFFFFF" fill-rule="nonzero" points="4.44444444 3 10.4444444 7 4.44444444 11"></polygon>
        </g>
    </g>
</svg>
