<svg width="14px" height="14px" viewBox="0 0 14 14" version="1.1" xmlns="http://www.w3.org/2000/svg" xmlns:xlink="http://www.w3.org/1999/xlink">
    <g id="页面-1" stroke="none" stroke-width="1" fill="none" fill-rule="evenodd">
        <g id="bilibili-small" fill="#00A1D6" fill-rule="nonzero">
            <path d="M11.3560999,0.291141524 C11.5202441,0.470571308 11.612463,0.713958725 11.612463,0.967744223 C11.612463,1.22152972 11.5202441,1.46491714 11.3560999,1.64434692 L10.5559999,2.51841963 L11.3749999,2.51841963 C12.0713144,2.5184196 12.7390995,2.82092026 13.2314027,3.35935343 C13.7237058,3.8977866 14.0001855,4.6280308 14,5.38938877 L14,11.1297963 C14,12.714966 12.8247473,14 11.3749999,14 L2.62499996,14 C1.17525252,14 -4.44089078e-17,12.714966 -4.44089078e-17,11.1297963 L-4.44089078e-17,5.38938877 C-4.44089078e-17,3.80421901 1.17525252,2.51918502 2.62499996,2.51918502 L3.44119996,2.51918502 L2.64249997,1.64511232 C2.41497685,1.4049708 2.32366161,1.04928239 2.40365121,0.714755769 C2.48364081,0.380229145 2.72248706,0.118924241 3.0283895,0.0312734817 C3.33429195,-0.0563772772 3.65964523,0.0432665561 3.87939995,0.291906918 L5.73579992,2.32171501 C5.79109993,2.38218064 5.83729993,2.44800397 5.87439992,2.51841963 L8.12349989,2.51841963 C8.16059988,2.44800397 8.20749989,2.38064985 8.26279989,2.32094961 L10.1184999,0.291141524 C10.2826008,0.111664418 10.5051955,0.0108312502 10.7372999,0.0108312502 C10.9694043,0.0108312502 11.1919989,0.111664418 11.3560999,0.291141524 Z M11.3749999,4.43954261 L2.62499996,4.43954261 C2.16688057,4.43935658 1.78618403,4.82557169 1.75209998,5.3250962 L1.74999998,5.39704265 L1.74999998,11.1374501 C1.74999998,11.6418406 2.10699998,12.0551499 2.55989996,12.0911232 L2.62499996,12.0941848 L11.3749999,12.0941848 C11.8331192,12.0943708 12.2138158,11.7081557 12.2478998,11.2086312 L12.25,11.1374501 L12.25,5.39704265 C12.25,4.86892516 11.8579998,4.44030807 11.3749999,4.44030806 L11.3749999,4.43954261 Z M4.37499994,6.35301183 C4.85799994,6.35301183 5.24999993,6.78162892 5.24999993,7.30974643 L5.24999993,8.266481 C5.24999993,8.79487092 4.85824909,9.22321558 4.37499994,9.22321558 C3.8917508,9.22321558 3.49999996,8.79487092 3.49999996,8.266481 L3.49999996,7.30974643 C3.49999996,6.78162894 3.89199995,6.35301183 4.37499994,6.35301183 L4.37499994,6.35301183 Z M9.62499987,6.35301183 C10.1079999,6.35301183 10.4999999,6.78162892 10.4999999,7.30974643 L10.4999999,8.266481 C10.4999999,8.79487092 10.108249,9.22321558 9.62499987,9.22321558 C9.14175072,9.22321558 8.74999989,8.79487092 8.74999989,8.266481 L8.74999989,7.30974643 C8.74999989,6.78162894 9.14199988,6.35301183 9.62499987,6.35301183 Z" id="形状"></path>
        </g>
    </g>
</svg>
