<svg width="14px" height="14px" viewBox="0 0 14 14" version="1.1" xmlns="http://www.w3.org/2000/svg" xmlns:xlink="http://www.w3.org/1999/xlink">
    <g id="页面-1" stroke="none" stroke-width="1" fill="none" fill-rule="evenodd">
        <g id="iqiyi-small" fill="#00E043" fill-rule="nonzero">
            <path d="M2.16861342,9.88404361 C2.76751268,10.1627107 3.40529314,10.2326946 4.0620498,10.180767 C4.14273167,10.174424 4.20633943,10.1634507 4.22965046,10.2698432 C4.30321074,10.605026 4.49255218,10.7577432 4.8480788,10.7974501 C5.14431043,10.8304969 5.44096229,10.8137303 5.73741511,10.8152949 C5.85885813,10.8159292 5.91658285,10.7579757 5.92014363,10.6414134 C5.92427946,10.5066045 5.92357172,10.3714996 5.92091773,10.236585 C5.91815314,10.0957291 5.86343631,10.0467404 5.71251168,10.0458101 C5.54241181,10.0447106 5.37226771,10.0464866 5.20214574,10.044774 C5.14559323,10.0442243 5.08590015,10.0510113 5.03027655,10.0082809 C5.05506941,9.96730546 5.09474686,9.96500084 5.12604204,9.94984119 C5.50220359,9.76726984 5.7687988,9.50648987 5.76961711,9.07620506 C5.77266922,7.48780265 5.77154128,5.89937908 5.77023639,4.31095551 C5.76997098,4.00336454 5.63382032,3.75865339 5.38047305,3.56935852 C5.18704003,3.42469689 4.96125021,3.35420553 4.72937829,3.29591379 C4.17093055,3.15552309 3.60390154,3.1630712 3.03676192,3.22070751 C2.7329,3.25161885 2.4364472,3.32817828 2.17248388,3.48049374 C1.82728578,3.67968363 1.61359381,3.95378378 1.61539592,4.36592777 C1.62213086,5.92316514 1.61936628,7.48046595 1.61719884,9.03774562 C1.61669011,9.43274249 1.80386411,9.71430618 2.16861342,9.88404361 Z M3.18781922,4.45016219 C3.18781922,4.3949785 3.18755381,4.3386742 3.19845737,4.28492825 C3.22143666,4.17151625 3.28991009,4.08996701 3.40748269,4.05370644 C3.59494419,3.99596443 3.78523665,3.99336381 3.97404727,4.04379028 C4.11652333,4.08186914 4.17577408,4.15599713 4.18296201,4.30017247 C4.18869024,4.41409192 4.18596989,4.52839193 4.18596989,4.64252281 C4.18619106,5.32396746 4.18605835,6.00543324 4.18605835,6.68687789 C4.18601411,7.44443797 4.18623528,8.20197691 4.18596989,8.95953699 C4.18583719,9.24799337 4.10756605,9.33442668 3.80602639,9.36842493 C3.64618869,9.38646006 3.48785494,9.37876395 3.34414034,9.29565011 C3.25054229,9.24150243 3.20148736,9.16027033 3.19146847,9.05757791 C3.18713359,9.01292351 3.18753168,8.96774055 3.18753168,8.92281129 C3.18737689,7.4319635 3.18733264,5.94105229 3.18781922,4.45016219 Z" id="形状"></path>
            <path d="M0.104649473,2.54434825 C0.478209431,2.5435132 0.851750688,2.54228053 1.22532934,2.54528269 C1.3062664,2.54593879 1.33630683,2.51476395 1.34678169,2.42895358 C1.39159916,2.06272864 1.55352938,1.78619104 1.89536546,1.65630247 C2.00241485,1.61562408 2.11281249,1.58888289 2.22493097,1.57057165 C3.36029437,1.38517276 4.50300888,1.28447084 5.65041836,1.24176448 C6.06627059,1.22627645 6.4827214,1.23655542 6.89892903,1.22383099 C7.22286431,1.21398943 7.54752907,1.22951723 7.87185717,1.236456 C8.073648,1.24077037 8.27556979,1.24428948 8.47741674,1.25071134 C9.15061402,1.27212418 9.8215854,1.32379729 10.4912661,1.3964458 C10.9569862,1.44696575 11.4220142,1.50571682 11.8833573,1.59146755 C12.3459723,1.67747673 12.5887274,1.94494818 12.6526428,2.43853669 C12.6636975,2.52386988 12.6991063,2.54545455 12.7723929,2.54498447 C13.1459529,2.54279746 13.5194942,2.54206183 13.8930728,2.54545455 C13.98022,2.54623703 14.0065942,2.50999229 13.9986632,2.42281008 C13.9785178,2.20251841 13.9559781,1.9828431 13.9046887,1.7676611 C13.7472664,1.10774047 13.3817122,0.677933142 12.7381252,0.523430763 C12.1366246,0.379048264 11.5286708,0.288466244 10.9172378,0.216970868 C10.4702603,0.164701304 10.0220669,0.128138458 9.57353679,0.0936830862 C9.04558477,0.0531040897 8.51720253,0.0230426285 7.98839008,0.00548690175 C7.65805766,-0.00550779278 7.32707054,0.00341917921 6.99638272,0.00341917921 C6.4424867,0.00208708126 5.88849715,-0.00403654361 5.33523709,0.0378149035 C4.97525705,0.0650332462 4.61419212,0.0762267782 4.25430559,0.104498858 C3.70222397,0.147901078 3.1507409,0.200011595 2.6016708,0.276139452 C2.10093473,0.345567106 1.6022001,0.425154432 1.11352882,0.568204833 C0.664886516,0.699544791 0.372637716,1.00689936 0.19422827,1.44994804 C0.0660233689,1.76829732 0.0258634829,2.10726414 0.000555460292,2.44889516 C-0.00571074449,2.53307519 0.0418002659,2.54450729 0.104649473,2.54434825 Z" id="路径"></path>
            <path d="M13.8860458,11.4564043 C13.5157378,11.4626789 13.145355,11.4691514 12.7751218,11.4678648 C12.6878805,11.4675679 12.6630025,11.496427 12.6503578,11.5853992 C12.6103472,11.8668048 12.5144828,12.1171939 12.2616625,12.265448 C12.1231688,12.3466414 11.9747051,12.3960858 11.8196573,12.4217383 C10.966604,12.5628271 10.1085003,12.6570447 9.2469922,12.7122886 C8.77677942,12.7424145 8.30563138,12.7629206 7.83472652,12.769314 C7.26861189,12.7770335 6.70234761,12.7733915 6.13595241,12.7626633 C5.38286002,12.7483921 4.63163816,12.7116156 3.88161342,12.6402201 C3.30854044,12.5856689 2.73707609,12.5162132 2.16912835,12.418987 C1.97530446,12.3858129 1.78787778,12.3249476 1.63135219,12.1862142 C1.44452408,12.0206209 1.37780241,11.7952114 1.34325381,11.553868 C1.3350609,11.4966645 1.32148089,11.4659646 1.25941685,11.4686961 C0.999226712,11.4802952 0.739504198,11.4439343 0.511767681,11.4577107 C0.347498107,11.4577107 0.215869202,11.4583639 0.0842028969,11.4574336 C0.021428044,11.4569981 -0.00380534786,11.4878167 0.000459454366,11.5536701 C0.021128758,11.8749004 0.0624673836,12.1924492 0.173408267,12.4941631 C0.345459222,12.9621433 0.642741898,13.288421 1.1127302,13.4265408 C1.54181011,13.5526656 1.97913905,13.6290095 2.41875001,13.6926064 C3.2860006,13.818078 4.15852606,13.8847231 5.03153785,13.94448 C5.6425638,13.9863039 6.25476819,13.992519 6.86644883,13.9983977 C7.49965922,14.0044942 8.13322502,13.9942213 8.7657059,13.9497253 C9.11667265,13.9250229 9.46840632,13.9113455 9.81911121,13.8833177 C10.3558586,13.8403656 10.8919326,13.7878136 11.4258929,13.7143002 C11.9238829,13.6457351 12.4190672,13.5643636 12.9041694,13.4208996 C13.3426768,13.2911921 13.6250326,12.98451 13.8023024,12.5573047 C13.9320046,12.2449022 13.9707619,11.909757 13.999063,11.573147 C14.0068444,11.4799983 13.9658985,11.4550188 13.8860458,11.4564043 Z" id="路径"></path>
            <path d="M11.2998851,6.91933298 C11.6540627,5.76795446 12.008592,4.61667277 12.3616939,3.46481016 C12.4205269,3.27296619 12.3666587,3.18391826 12.1936762,3.1830711 C11.8314308,3.181401 11.4691853,3.18161884 11.1068779,3.18319213 C10.9680492,3.18377303 10.9377431,3.21027685 10.8956042,3.36680662 C10.7623403,3.86164112 10.6293453,4.35659663 10.4989154,4.85249614 C10.4095901,5.19230154 10.3247744,5.53372862 10.2307532,5.9026277 C10.2155071,5.84110016 10.2077289,5.81115932 10.2005713,5.78102487 C10.009281,4.97160593 9.79068429,4.17186876 9.5750044,3.37113923 C9.53276209,3.2143432 9.49840141,3.18413613 9.36449617,3.18345842 C8.99548618,3.18154627 8.62643481,3.18094116 8.25738346,3.18365204 C8.09937817,3.18481386 8.04331711,3.28410026 8.0963786,3.45570936 C8.14704042,3.61959727 8.19788842,3.78336416 8.24838473,3.94732468 C8.59132943,5.06150105 8.9257512,6.1794533 9.28125275,7.28813527 C9.42595647,7.73923245 9.51503354,8.18619066 9.49771875,8.67327976 C9.47545983,9.29806762 9.49163685,9.92481603 9.49279531,10.5507173 C9.49316768,10.7660637 9.53905085,10.8178369 9.71993566,10.8179821 C10.0619081,10.8181818 10.4039012,10.8181818 10.7458323,10.8179821 C10.9295925,10.8178369 10.9589263,10.7839024 10.9589677,10.5706375 C10.9591746,9.77044045 10.9592366,8.9702192 10.9588022,8.16999795 C10.9587608,8.09038972 10.9623396,8.0125726 10.9861087,7.93628037 C11.0915903,7.59770935 11.1955826,7.25846067 11.2998851,6.91933298 Z" id="路径"></path>
            <path d="M7.36141867,3.18204521 C7.12037353,3.18173053 6.87935844,3.18181818 6.63831331,3.18204521 C6.49046209,3.18219045 6.46164603,3.22864186 6.46160096,3.46721676 C6.46148078,4.64416367 6.46157091,5.82111059 6.46157091,6.9980575 C6.46160096,8.1869138 6.46139061,9.37574588 6.46176622,10.5646022 C6.46184135,10.7656335 6.49505942,10.8176523 6.61974364,10.8179186 C6.86813551,10.8183543 7.11655743,10.8181818 7.36499438,10.817967 C7.50975067,10.8179186 7.53823619,10.7730163 7.5383113,10.5414612 C7.53855169,9.80041695 7.53843149,9.05934852 7.53843149,8.31832848 C7.53838641,6.7015091 7.53850661,5.0846655 7.53826623,3.46784612 C7.53823617,3.22980376 7.50821821,3.18219042 7.36141867,3.18204521 Z" id="路径"></path>
            <path d="M13.8389229,3.18229702 C13.5877051,3.18157086 13.3364721,3.18181818 13.0852543,3.18217598 C12.9504123,3.18239383 12.9231916,3.22538259 12.923146,3.43875303 C12.9230244,4.62718884 12.9231004,5.81562464 12.9231004,7.00406046 C12.9231004,8.19646595 12.9230244,9.38882303 12.9231916,10.5812285 C12.923222,10.7754283 12.9495004,10.8173278 13.0727003,10.8176909 C13.3288728,10.8184412 13.585091,10.8181818 13.8413091,10.8178361 C13.9682783,10.8176425 13.9997546,10.768796 13.9997546,10.5645752 C14.0000738,8.1877278 14.0000738,5.81083196 13.9998002,3.43398455 C13.9997546,3.23419337 13.9663481,3.1827085 13.8389229,3.18229702 Z" id="路径"></path>
            <path d="M0.118154554,10.1803377 C0.399220904,10.1829482 0.680287255,10.1813311 0.961368799,10.1812387 C1.03070073,10.1811925 1.06690166,10.1243862 1.07428774,10.0233869 C1.07760085,9.97850094 1.07676497,9.9327602 1.07676497,9.88745837 C1.07688655,9.13502317 1.07685616,8.38261106 1.07685616,7.63019895 C1.07685616,6.85888991 1.07709932,6.08758086 1.07665859,5.31624873 C1.07658259,5.12903511 1.05095927,5.09140295 0.927113176,5.09119504 C0.668433043,5.09080232 0.409737718,5.09082541 0.151057585,5.09119504 C0.0222418463,5.09140295 9.87926497e-05,5.1255006 9.87926497e-05,5.32373357 C0,6.22362493 2.27971613e-05,7.12349317 6.8391484e-05,8.02336141 C6.8391484e-05,8.67366539 -0.000205174452,9.32399248 0.00034195742,9.97434267 C0.00046353238,10.1233004 0.0307677618,10.1795061 0.118154554,10.1803377 Z" id="路径"></path>
            <path d="M0.000921373341,4.31032344 C0.00184805888,4.40446539 0.0403280886,4.45250387 0.119339024,4.45305421 C0.395337974,4.45502474 0.671321738,4.45506025 0.947320689,4.45305421 C1.03625165,4.45239737 1.07517225,4.40650693 1.07570396,4.30222827 C1.07732945,3.97969936 1.07732945,3.65717044 1.07570396,3.33464152 C1.07520264,3.22983027 1.03676817,3.18402861 0.947837208,3.18337177 C0.674314471,3.18133023 0.400806921,3.1811882 0.127314573,3.1836203 C0.0358314325,3.18441917 0.00145309446,3.22833905 0.000632762058,3.33409119 C-0.000567362665,3.49388218 0.000313747199,3.65370868 0.000359308026,3.81351742 C0.000404854007,3.97909576 -0.000780083774,4.14472736 0.000921373341,4.31032344 Z" id="路径"></path>
        </g>
    </g>
</svg>
