<svg width="14px" height="14px" viewBox="0 0 14 14" version="1.1" xmlns="http://www.w3.org/2000/svg" xmlns:xlink="http://www.w3.org/1999/xlink">
    <defs>
        <polygon id="path-z0_lcohu95-1" points="0 3.57590431e-16 6.125 3.57590431e-16 6.125 14 0 14"></polygon>
    </defs>
    <g id="页面-1" stroke="none" stroke-width="1" fill="none" fill-rule="evenodd">
        <g id="le-small" transform="translate(-0.000000, 0.000000)">
            <path d="M8.22607574,5.08931342 C8.32527037,4.14286188 8.80378554,3.1238906 9.48994829,2.58207134 C10.162885,2.05272363 11.2183165,2.02131382 11.8367623,2.66798642 C12.2504703,3.10125706 12.5573125,3.93038373 12.0232483,4.28651558 C11.4965907,4.6366426 8.86356688,6.29027683 8.49403366,6.17387575 C8.3488126,6.12860868 8.13005523,5.99419315 8.22607574,5.08931342 M12.2036504,11.0317728 C10.9411004,11.8881521 10.107865,11.3971428 9.83223606,11.2109935 C8.7405655,10.4747105 8.41573593,8.73146595 8.41573593,8.73146595 C8.41573593,8.73146595 12.0642488,6.66257547 12.9670527,5.97525493 C13.9436574,5.23111948 13.9698448,4.97383617 13.9698448,4.97383617 C13.4762521,2.08413344 11.9483893,0 10.1332589,0 C7.91976256,0 6.125,3.13405261 6.125,6.99930718 C6.125,10.8659475 7.91976256,14 10.1332589,14 C11.9801317,14 13.5355043,11.8184038 14,8.8515623 C13.2828886,9.9564486 13.1014284,10.4229767 12.2036504,11.0317728" id="e" fill="#E42112" fill-rule="nonzero"></path>
            <g id="l">
                <mask id="mask-z0_lcohu95-2" fill="white">
                    <use xlink:href="#path-z0_lcohu95-1"></use>
                </mask>
                <g id="path-nfznc5o0ik-5"></g>
                <path d="M5.51767585,11.6467784 L2.71334703,11.6467784 L2.71309729,11.6463335 C2.52104734,11.6374349 2.36670811,11.3629147 2.36221279,11.0216553 L2.36171331,11.0207654 L2.36171331,0.863070383 C2.36171331,0.385663167 2.14518886,-8.89850908e-05 1.877218,-8.89850908e-05 L0.485667531,-8.89850908e-05 C0.217946409,-8.89850908e-05 0.00117221549,0.385663167 0.00117221549,0.863070383 L0.00117221549,12.4676697 C0.000922475633,12.4801277 -7.64837858e-05,12.4925856 -7.64837858e-05,12.5059335 L-7.64837858e-05,13.140845 C-7.64837858e-05,13.6151377 0.21569875,14 0.482420914,14 L0.485667531,14 L1.877218,14 L5.51767585,14 C5.78389853,14 5.99992352,13.6151377 5.99992352,13.140845 L5.99992352,12.5059335 C5.99992352,12.0311958 5.78389853,11.6467784 5.51767585,11.6467784" id="Fill-36" fill="#E42112" fill-rule="nonzero" mask="url(#mask-z0_lcohu95-2)"></path>
            </g>
        </g>
    </g>
</svg>
