<svg width="14px" height="14px" viewBox="0 0 14 14" version="1.1" xmlns="http://www.w3.org/2000/svg" xmlns:xlink="http://www.w3.org/1999/xlink">
    <g id="页面-1" stroke="none" stroke-width="1" fill="none" fill-rule="evenodd">
        <g id="mgtv-small" transform="translate(0.000000, 0.000000)" fill="#ED6A2C" fill-rule="nonzero">
            <path d="M14,9.76818182 C14,9.73636363 14,9.73636363 14,9.70454546 L14,9.70454546 L14,5.40909091 L14,5.40909091 C14,4.99545454 13.7042254,4.64545454 13.3098592,4.51818182 L13.3098592,4.51818182 L11.8638498,4.10454546 L11.8638498,4.10454546 L9.79342724,8.33636363 L7.62441315,2.92727272 L7.62441315,2.92727272 L5.38967138,2.32272728 L5.38967138,2.32272728 L5.38967138,2.32272728 C5.29107983,2.29090909 5.19248828,2.29090909 5.09389673,2.29090909 C4.46948358,2.29090909 3.94366198,2.8 3.94366198,3.40454546 L3.94366198,3.40454546 L3.94366198,9.83181818 L3.94366198,9.83181818 C3.94366198,10.4045454 4.43661973,10.8818182 5.02816903,10.8818182 C5.06103288,10.8818182 5.09389673,10.8818182 5.12676058,10.8818182 L5.12676058,10.8818182 L6.04694838,10.7863637 L6.04694838,10.7863637 L6.04694838,10.7863637 L6.04694838,4.07272728 L8.64319254,10.5636363 L8.64319254,10.5636363 L10.6150235,10.3727272 L10.6150235,10.3727272 L10.6150235,10.3727272 L10.6150235,10.3727272 L10.6150235,10.3727272 L13.0469484,5.40909091 L13.0469484,8.97272728 L13.0469484,8.97272728 C13.0469484,8.97272728 13.0469484,9.00454546 13.0469484,9.00454546 C13.0469484,10.2772727 12.0610329,11.3909091 10.7464789,11.55 L4.50234743,12.1545454 C4.43661973,12.1545454 4.40375589,12.1545454 4.33802818,12.1545454 C3.25352114,12.1545454 2.36619719,11.2954546 2.36619719,10.2454545 L2.36619719,10.2136364 L2.36619719,3.11818182 L2.36619719,3.08636363 C2.36619719,1.94090909 3.31924884,1.01818182 4.50234743,1.01818182 C4.73239438,1.01818182 4.92957748,1.05 5.15962443,1.11363637 L12.5211268,3.15 L12.5211268,3.15 C12.5539906,3.15 12.5868545,3.18181818 12.6525822,3.18181818 C12.8826291,3.18181818 13.0469484,3.02272728 13.0469484,2.8 C13.0469484,2.64090909 12.9483569,2.48181818 12.7840376,2.45 L12.7840376,2.45 L12.7840376,2.45 L4.79812208,0.222727272 C4.40375589,0.0636363637 3.97652584,0 3.54929578,0 C1.61032864,0 0,1.55909091 0,3.43636363 L0,10.8181818 L0,10.8181818 C0,12.5681818 1.47887325,14 3.28638499,14 C3.38497653,14 3.48356809,14 3.54929578,14 L3.54929578,14 L10.6807512,13.3318182 L10.6807512,13.3318182 C10.6807512,13.3318182 10.6807512,13.3318182 10.6807512,13.3318182 L10.6807512,13.3318182 L10.6807512,13.3318182 C12.5868545,13.1090909 14,11.5818182 14,9.76818182" id="路径"></path>
        </g>
    </g>
</svg>
