<svg width="14px" height="14px" viewBox="0 0 14 14" version="1.1" xmlns="http://www.w3.org/2000/svg" xmlns:xlink="http://www.w3.org/1999/xlink">
    <g id="页面-1" stroke="none" stroke-width="1" fill="none" fill-rule="evenodd">
        <g id="souhu-mini" transform="translate(0.976758, 0.000000)">
            <path d="M1.87024248,9.16427612 C1.93028624,9.195551 2.02867449,9.20545626 2.02867449,9.03222656 C2.00856341,8.62541199 2.14169109,8.10438904 2.31879074,7.7686489 C2.31879074,7.7686489 2.31879074,7.7686489 2.31879074,7.7686489 C2.35985316,7.7228987 2.43022871,7.7190985 2.47597891,7.76016093 C2.48524044,7.76847348 2.49304242,7.7782803 2.49906027,7.78917342 C2.61574066,8.00032701 2.72352531,8.17169129 2.82243684,8.30325379 C2.92306154,8.41529914 3.08490357,8.62963683 3.3160056,8.81832782 C3.82466827,9.23364248 4.57927272,9.8360591 5.23464719,10.2591169 C6.17845923,10.8683672 7.92336904,11.7789825 9.68969906,11.1152981 C9.74640442,11.1199431 11.4541784,10.1979725 12.0322785,9.36660166 C12.5161661,8.44634997 13.0967889,6.98551276 12.6001504,5.13225058 C11.7791135,2.46328538 9.99299133,0.942024594 7.24178388,0.568445476 C4.79447466,0.393741067 2.79379254,1.25452993 1.23976969,3.15081206 C1.23440489,3.13999536 1.2290433,3.12914617 1.2236785,3.11832947 C2.59419741,1.12154942 4.49295793,0.0821062645 6.91996006,0 C9.56071757,0.0546974478 11.5935499,1.1915884 13.0185214,3.41067285 C14.2092695,5.54322042 14.3165334,7.73040371 13.3403452,9.97215777 C11.9959584,12.6139026 9.8450811,13.9565058 6.88777768,14 C4.30726559,13.8812436 2.33876584,12.7226868 0.982310637,10.5243619 C0.803811056,10.1856984 0.590476777,9.72092185 0.44715254,9.36660166 C0.406865823,9.07551244 0.406865823,8.63214111 0.475772269,8.28263855 C0.544678716,7.93313599 0.625099617,7.71418994 0.687396415,7.56086731 C0.728927614,7.45865222 0.777643841,7.37288766 0.833545097,7.30357361 C0.982310637,7.14054871 0.988603125,7.2609783 1.01369036,7.41384888 C1.03294296,7.53116574 1.11014418,8.11234863 1.18628252,8.30325379 C1.40812289,8.85948431 1.79317525,9.11923336 1.87024248,9.16427612 Z" id="路径" fill="#DA040D"></path>
            <path d="M2.97264669,8.34802784 C2.8748454,8.22743692 2.5636332,7.80842691 2.48243705,7.66589327 C2.42878902,7.62259397 2.36276375,7.62259397 2.30911572,7.66589327 C2.20957675,7.93074398 2.120177,8.04563618 2.06668413,8.30325379 C2.02326743,8.51234535 1.99348772,8.91171163 1.99348772,8.99145508 C1.99348772,9.17937645 1.86250628,9.14705833 1.70772112,8.99145508 C1.55293597,8.83585182 1.44854634,8.82096985 1.27945269,8.37132263 C1.11035904,7.92167542 1.06246196,7.31880756 1.06145037,7.30050659 C1.06145037,7.08957817 0.87922807,7.17710746 0.83790911,7.19932556 C0.672392365,7.41170725 0.576064861,7.66555463 0.508263122,7.93017919 C0.472954946,8.06798407 0.445382588,8.20871159 0.419803456,8.34802784 C0.418107085,8.3572671 0.395378642,8.4944683 0.393710502,8.50372314 C0.374248743,8.63400002 0.361558517,8.85422504 0.355639823,9.16439819 C0.20643331,8.62446065 0.114954685,8.2548894 0.0812039488,8.05568445 C-0.131042077,6.68553596 0.0727786013,5.38623202 0.692669201,4.15777262 C1.28342831,3.07662181 2.17917341,2.39987935 3.37989807,2.12761021 C3.95007333,2.05579118 4.51863947,2.06664037 5.0855643,2.16009281 C5.30762274,2.20774478 5.52218268,2.27810209 5.72921194,2.3712297 C5.77211105,2.39289559 5.77211105,2.414529 5.72921194,2.4361949 C4.2964523,3.29142923 3.47580157,4.55825058 3.26725974,6.23665893 C3.19826071,7.23955916 3.40744619,8.17612993 3.89481618,9.04640371 C3.82729754,9.04536427 3.67890098,8.97497448 3.61769009,8.93271462 C3.06669032,8.55230561 3.06669032,8.46398549 2.97264669,8.34802784 Z" id="路径" fill="#020202"></path>
            <path d="M6.08321814,3.24825986 C6.26253837,3.23169374 6.43416701,3.25875174 6.59813624,3.32946636 C7.97991899,4.21536427 9.35304467,5.11406032 10.7174811,6.02552204 C11.0913116,6.25543387 11.1717676,6.56401856 10.958849,6.9512761 C10.8998587,7.01081671 10.8408362,7.07038979 10.7818459,7.12993039 C9.35709965,8.05916009 7.94107485,9.00115545 6.53377148,9.95591647 C6.16956347,10.1105012 5.9281956,9.99681206 5.80966789,9.61484919 C5.78820224,7.61174478 5.78820224,5.60867285 5.80966789,3.60556845 C5.84008024,3.4344826 5.93128511,3.31536891 6.08321814,3.24825986 Z" id="路径" fill="#DA030D"></path>
        </g>
    </g>
</svg>
