
<svg width="14px" height="14px" viewBox="0 0 14 14" version="1.1" xmlns="http://www.w3.org/2000/svg" xmlns:xlink="http://www.w3.org/1999/xlink">
    <defs>
        <polygon id="path-nu8d0cr_ve-1" points="0 0 2.6893375 0 2.6893375 10.9372891 0 10.9372891"></polygon>
    </defs>
    <g id="页面-1" stroke="none" stroke-width="1" fill="none" fill-rule="evenodd">
        <g id="tencent-small" transform="translate(0.515818, 0.000000)">
            <g id="Clipped" transform="translate(2.168887, 0.000000)" fill="#0098FF" fill-rule="nonzero">
                <path d="M0.181562116,10.53801 C0.493339596,12.8843184 0.86714395,14.6487747 3.30467698,13.7708216 C5.6411596,12.9293186 7.8909689,11.4411633 9.86597038,9.75140725 C10.5725017,9.07505483 11.8064669,8.12510144 11.8311133,7.00009742 C11.8064669,5.8750934 10.5725017,4.92469001 9.86597038,4.24878759 C7.8909689,2.55858156 5.6411596,1.07042624 3.30467698,0.228923237 C0.866733181,-0.648129895 0.492928822,1.11587641 0.181562116,3.46173478 C0.0271110852,4.62363893 0,5.82334322 0,7.00009742 C0,8.17685162 0.0271110852,9.37610591 0.181562116,10.53801" id="路径"></path>
            </g>
            <g id="Clipped" transform="translate(0.000000, 1.531227)">
                <mask id="mask-nu8d0cr_ve-2" fill="white">
                    <use xlink:href="#path-nu8d0cr_ve-1"></use>
                </mask>
                <g id="path-i2426q6y3a-3"></g>
                <path d="M0.224693389,2.37015846 C0.492107274,0.817202919 0.89343349,-0.309601106 2.6893375,0.0765002732 C2.53776189,0.610652181 2.44164076,1.24605445 2.35044893,1.93050689 C2.1959979,3.09286105 2.16888682,4.29211533 2.16888682,5.46886953 C2.16888682,6.64562373 2.1959979,7.84487802 2.35044893,9.00678217 C2.44164076,9.69123461 2.53776189,10.3266369 2.6893375,10.8607888 C0.89343349,11.2477902 0.492107274,10.1209861 0.224693389,8.5675806 L0.20538701,8.4573302 L0.168828122,8.2327794 C0.0254679891,7.32512616 0,6.38822282 0,5.46886953 C0,4.54951625 0.0254679891,3.6126129 0.169238896,2.70450966 L0.206208557,2.48040886 L0.224693389,2.37015846 Z" id="路径" fill="#FF8800" fill-rule="nonzero" mask="url(#mask-nu8d0cr_ve-2)"></path>
            </g>
            <path d="M2.68892673,1.60772816 C2.81380203,1.63472826 2.94566049,1.66847838 3.08409133,1.71032853 C5.26530137,2.36778088 7.36476738,3.53013503 9.20832119,4.85043974 C9.8676135,5.37919163 11.0198346,6.12124428 11.0424272,7.00009742 C11.0194238,7.87895056 9.8676135,8.62145321 9.20832119,9.1497551 C7.36476738,10.4700598 5.26489059,11.6324139 3.08409133,12.2898663 C2.94566049,12.3317164 2.8142128,12.3654666 2.6893375,12.3924667 C2.53776189,11.8583148 2.44164076,11.2229125 2.35085971,10.53801 C2.1959979,9.37610591 2.16888682,8.17685162 2.16888682,7.00009742 C2.16888682,5.82334322 2.1959979,4.62408894 2.35085971,3.46218479 C2.44122999,2.78178236 2.53652956,2.1499801 2.68646208,1.6176282 L2.68892673,1.60772816 L2.68892673,1.60772816 Z" id="路径" fill="#43E700" fill-rule="nonzero"></path>
            <path d="M3.97588173,4.76943945 C3.97588173,4.76943945 3.84525558,5.01064032 3.84525558,7.00459744 C3.84525558,9.00260457 3.97588173,9.23210539 3.97588173,9.23210539 C4.02106687,9.47960628 4.11431257,9.55745655 4.35297227,9.49535633 C4.35297227,9.49535633 4.7526554,9.42515608 6.35919258,8.51750284 C7.96531899,7.60534958 8.23437597,7.26739838 8.23437597,7.26739838 C8.40607952,7.07299768 8.45085388,6.94474722 8.23437597,6.73864649 C8.23437597,6.73864649 7.79361546,6.28459487 6.35919258,5.45929192 C4.93955757,4.642089 4.35297227,4.50573851 4.35297227,4.50573851 C4.15538997,4.44363829 4.0284608,4.51383854 3.97588173,4.76943945" id="路径" fill="#FFFFFF" fill-rule="nonzero"></path>
        </g>
    </g>
</svg>
