<svg width="70px" height="14px" viewBox="0 0 70 14" version="1.1" xmlns="http://www.w3.org/2000/svg" xmlns:xlink="http://www.w3.org/1999/xlink">
    <g id="页面-1" stroke="none" stroke-width="1" fill="none" fill-rule="evenodd">
        <g id="360">
            <g id="影视" transform="translate(43.562082, 0.000000)" fill="#FEFFFE">
                <path d="M15.065034,0 C16.0573198,0.0566709318 16.6405284,0.709015703 16.8150972,1.95706227 C17.4055247,1.9475845 17.9524195,2.1339807 18.4557814,2.51622292 C18.4717507,3.81230139 18.0705487,4.88401665 17.252613,5.73139665 C18.030516,6.30582239 18.6139433,7.09798528 19.0026761,8.10782941 C19.0171141,8.60168009 18.8346701,8.88126042 18.4557814,8.94657038 C17.8835107,8.49583098 17.3729298,7.93667033 16.9244761,7.26908844 C16.8516297,9.41254691 16.7785646,11.5559774 16.7057182,13.6994359 C16.3340485,13.9527636 15.9328466,14.0459478 15.5025498,13.9790162 C15.5388636,11.926645 15.5025498,9.87639862 15.3931708,7.82824908 C14.940342,8.46759337 14.3934473,8.93354194 13.7524866,9.22615071 C13.445788,9.1239641 13.2270301,8.89098981 13.0962129,8.5271999 C14.4665124,7.05652351 15.7790598,5.47222569 17.0338551,3.77433438 C15.9400656,3.68115026 14.8462761,3.58793818 13.7524866,3.49475406 C13.2545936,2.97073665 13.32744,2.50478808 13.9712445,2.09685243 C14.4816067,2.00366831 14.9921876,1.91045623 15.5025498,1.81727211 C14.8854338,1.36398853 14.739741,0.75822184 15.065034,0 Z" id="路径" opacity="0.735"></path>
                <path d="M1.28328655,0.279580324 C3.18057378,0.233058158 5.07654846,0.27963624 6.97099184,0.419370487 C7.34397405,1.30508095 7.52619938,2.28361209 7.51788658,3.35496389 C8.98312697,2.53509459 10.4050533,1.6031695 11.7836656,0.559160649 C12.148335,0.652344771 12.3670929,0.931925095 12.4399392,1.39790162 C11.3146486,3.06352936 9.8927223,4.08863858 8.17416027,4.47328519 C7.89830656,4.40084593 7.67954867,4.21444973 7.51788658,3.91412454 C7.40850763,4.24031091 7.22628231,4.47328519 6.97099184,4.61307535 C6.15918129,4.66191804 5.35699608,4.8017082 4.56465499,5.03244584 C5.65122545,5.26421793 6.74501493,5.40400809 7.84602342,5.45181633 C8.30366494,5.71811659 8.37651132,6.09090899 8.06478132,6.57013762 C5.43968657,6.75653383 2.81459182,6.75653383 0.189497066,6.57013762 C-0.122232936,6.09090899 -0.0493865568,5.71811659 0.408254962,5.45181633 C1.29225562,5.40330914 2.1672872,5.26351898 3.03334971,5.03244584 C2.38867019,4.80279856 1.73239651,4.6630084 1.06452865,4.61307535 C0.631825531,3.51345798 0.522446583,2.34853064 0.736391806,1.1183213 C0.889084817,0.785452963 1.07131014,0.505872639 1.28328655,0.279580324 Z M2.15831813,1.39790162 C3.58330706,1.27058074 4.96870082,1.4103709 6.31471815,1.81727211 C4.85625926,2.00366831 3.39801913,2.00366831 1.93956023,1.81727211 C2.06118962,1.71030468 2.134036,1.57051451 2.15831813,1.39790162 Z M1.93956023,3.35496389 C3.29104651,2.98664477 4.67665903,2.98664477 6.09596026,3.35496389 C4.69853482,3.71570639 3.3129223,3.71570639 1.93956023,3.35496389 Z" id="形状" opacity="0.751"></path>
                <path d="M19.6589498,0.279580324 C21.4833907,0.233058158 23.3063002,0.279664199 25.1278972,0.419370487 C25.3046536,0.505369394 25.4505651,0.645159557 25.565413,0.838740973 C25.814797,3.43478408 25.8511108,6.04419112 25.6747919,8.66699006 C25.5415684,10.0795417 24.9218273,10.7318865 23.8153498,10.6240523 C23.8153498,11.0900289 23.8153498,11.5559774 23.8153498,12.021954 C24.2756164,12.1055205 24.7131322,12.0123364 25.1278972,11.7423736 C25.2576206,11.2162873 25.4035322,10.7037048 25.565413,10.2046818 C25.8462981,10.0135048 26.1015886,10.0601109 26.3310656,10.344472 C26.5036656,11.3485847 26.467133,12.3271159 26.2216867,13.2800654 C23.0696042,14.7968166 21.8301219,13.4454931 22.5028025,9.22615071 C23.0862298,9.22615071 23.6694383,9.22615071 24.2528656,9.22615071 C24.4521541,6.81454674 24.5252192,4.39150795 24.4716235,1.95706227 C23.1590761,1.95706227 21.8465288,1.95706227 20.5339814,1.95706227 C20.4976676,4.28876218 20.5339814,6.61858889 20.6433603,8.94657038 C21.01503,9.19989811 21.416232,9.29308224 21.8465288,9.22615071 C21.9454073,10.5475871 21.5807379,11.6193024 20.7527393,12.4413244 C19.9575543,13.4636938 19.0096764,13.9296423 17.9088866,13.8392261 C17.8089143,13.7234798 17.7358491,13.5836896 17.6901287,13.4198556 C18.4544688,12.4904187 19.256654,11.6050997 20.0964656,10.7638425 C19.783423,10.6337817 19.5283513,10.4007795 19.330813,10.0648917 C19.1849014,6.98950811 19.1849014,3.91412454 19.330813,0.838740973 C19.4876624,0.686593361 19.5970413,0.500197158 19.6589498,0.279580324 Z" id="路径" opacity="0.754"></path>
                <path d="M21.409013,3.07538357 C22.2717941,3.80374623 23.0737606,4.6424872 23.8153498,5.59160649 C23.1549197,6.66888539 22.3892671,7.60081049 21.5183919,8.38740973 C21.409013,6.61917601 21.3726992,4.84850994 21.409013,3.07538357 Z" id="路径" opacity="0.737"></path>
                <path d="M11.7836656,4.19370487 C12.3876561,4.0300665 12.7521068,4.30964683 12.877455,5.03244584 C12.6457904,5.75046403 12.281121,6.35623072 11.7836656,6.84971795 C10.8635698,7.57726983 9.91569188,8.22964256 8.9398129,8.80678022 C7.87621201,9.24977524 7.51176136,8.83040476 7.84602342,7.54866876 C9.39154796,6.84317577 10.7040953,5.72485447 11.7836656,4.19370487 Z" id="路径" opacity="0.727"></path>
                <path d="M1.28328655,6.98950811 C3.18057378,6.94298594 5.07654846,6.98956403 6.97099184,7.12929827 C7.40938266,7.92353006 7.51876161,8.80884911 7.29912868,9.78531136 C6.48316173,10.0537364 5.64466272,10.1469485 4.78341288,10.0648917 C4.81972669,11.1870712 4.78319412,12.3053925 4.67403393,13.4198556 C3.97772755,13.9855584 3.21207491,14.1253486 2.37707603,13.8392261 C2.08197162,13.6232782 1.8997463,13.2970919 1.83018129,12.8606949 C1.03149621,14.0110841 0.448068899,13.9179 0.0801181177,12.5811146 C0.699859237,11.7889797 1.31981911,10.9968168 1.93956023,10.2046818 C0.857802438,10.0065992 0.456819215,9.21446425 0.736391806,7.82824908 C0.889084817,7.49538075 1.07131014,7.21580043 1.28328655,6.98950811 Z M1.93956023,8.66699006 C3.29104651,8.29867094 4.67665903,8.29867094 6.09596026,8.66699006 C4.69853482,9.02773255 3.3129223,9.02773255 1.93956023,8.66699006 Z M2.37707603,12.3015343 C2.51839363,11.8385213 2.66430514,11.3725448 2.81459182,10.9036327 C2.74502681,10.5828701 2.59933405,10.3498959 2.37707603,10.2046818 C2.73452643,10.066709 3.09919584,10.0201029 3.47086551,10.0648917 C3.47086551,10.9036327 3.47086551,11.7423736 3.47086551,12.5811146 C3.09547696,12.5451326 2.73080754,12.4519485 2.37707603,12.3015343 Z" id="形状" opacity="0.707"></path>
                <path d="M11.7836656,8.38740973 C12.148335,8.38740973 12.5127856,8.38740973 12.877455,8.38740973 C12.8938619,9.90975256 12.3834997,11.0746519 11.3461498,11.8821638 C10.2471101,13.0062724 9.00740909,13.565433 7.62726553,13.5596902 C7.49032309,13.3498487 7.38094414,13.1168464 7.29912868,12.8606949 C6.99549273,13.1552608 6.66735588,13.2018668 6.31471815,13.0004851 C5.82863811,12.2685718 5.50050126,11.4764368 5.33030762,10.6240523 C5.70788375,10.323168 6.10886697,10.2765619 6.53347605,10.4842622 C6.95567879,11.1156384 7.28381563,11.8145892 7.51788658,12.5811146 C8.51301625,11.9215846 9.49742678,11.2226338 10.4711182,10.4842622 C11.0385762,9.90091782 11.476092,9.20196701 11.7836656,8.38740973 Z" id="路径" opacity="0.738"></path>
            </g>
            <g id="logo" fill="#00BA98">
                <path d="M0,0.0463462948 C3.66128528,-0.0831619577 7.3072575,0.0587493424 10.9378948,0.472080195 C12.7026804,2.03679419 13.3589541,4.21274854 12.9067159,7 C13.3589541,9.78725146 12.7026804,11.9632058 10.9378948,13.5279198 C7.3072575,13.9412507 3.66128528,14.083162 0,13.9536537 C0,13.3860085 0,12.8183633 0,12.2507181 C0.212948561,12.1125816 0.431705582,11.9706703 0.656273688,11.8249842 C3.64597222,11.7303861 6.63564889,11.6357597 9.62534742,11.5411616 C10.7829048,10.8575465 11.2933545,9.67494286 11.1566527,7.9933791 C7.80237225,7.9933791 4.44806993,7.9933791 1.09378948,7.9933791 C1.09378948,7.23650937 1.09378948,6.47966803 1.09378948,5.7227983 C4.44806993,5.7227983 7.80237225,5.7227983 11.1566527,5.7227983 C11.2060482,4.28946579 10.7685324,3.20148861 9.84410532,2.4588384 C6.78149478,2.36424032 3.71888423,2.26961387 0.656273688,2.1750158 C0.431705582,2.02932966 0.212948561,1.88741836 0,1.7492819 C0,1.1816367 0,0.613991495 0,0.0463462948 Z" id="路径" opacity="0.902"></path>
                <path d="M16.844358,0.0463462948 C20.2715723,0.0463462948 23.6986991,0.0463462948 27.1259791,0.0463462948 C27.2438896,0.953159502 27.0251317,1.662716 26.4697054,2.1750158 C23.4799412,2.26961387 20.4903302,2.36424032 17.5006317,2.4588384 C16.3480838,3.05702291 15.910568,4.14500008 16.1880843,5.7227983 C19.2515699,5.67551345 22.3141804,5.72282668 25.3759159,5.8647096 C26.9916618,7.135355 27.5385565,8.9802019 27.0166002,11.3992503 C26.7974047,12.5857139 26.25051,13.3898685 25.3759159,13.8117424 C22.5320633,14.0009669 19.6882106,14.0009669 16.844358,13.8117424 C15.4812557,13.2545986 14.642691,12.0720234 14.3286422,10.2639599 C14.1827963,8.08797717 14.1827963,5.91202283 14.3286422,3.7360401 C14.6763141,1.91469371 15.5149006,0.684805234 16.844358,0.0463462948 Z M16.1880843,7.9933791 C19.0328776,7.94609426 21.8767303,7.99340748 24.7196422,8.1352904 C25.1621895,9.03872612 25.2715684,10.0321052 25.0477791,11.1154277 C24.9384001,11.257339 24.8290212,11.3992503 24.7196422,11.5411616 C22.3133054,11.7303861 19.9069685,11.7303861 17.5006317,11.5411616 C16.3928636,10.7948785 15.9553478,9.61227483 16.1880843,7.9933791 Z" id="形状" opacity="0.889"></path>
                <path d="M31.0636212,0.0463462948 C33.6167446,-0.000910168149 36.168993,0.046374677 38.7201476,0.188257595 C39.7774045,0.803216023 40.5430571,1.79659512 41.0171055,3.1683949 C41.163017,5.7227983 41.163017,8.2772017 41.0171055,10.8316051 C40.5430571,12.2034049 39.7774045,13.196784 38.7201476,13.8117424 C36.1678992,14.0009669 33.6158696,14.0009669 31.0636212,13.8117424 C29.880141,13.3171815 29.0414232,12.3238024 28.5479054,10.8316051 C28.4019939,8.2772017 28.4019939,5.7227983 28.5479054,3.1683949 C29.0810184,1.67157127 29.9197362,0.63087894 31.0636212,0.0463462948 Z M31.501137,2.3169271 C33.8571596,2.18838384 36.19065,2.33029514 38.5013897,2.742661 C38.8384956,3.19090203 39.0937861,3.71126238 39.2670423,4.3036853 C39.4129538,6.10121897 39.4129538,7.89878103 39.2670423,9.6963147 C39.0950986,10.5712546 38.6941154,11.1862131 38.0638739,11.5411616 C35.9491413,11.7303861 33.8346275,11.7303861 31.7198949,11.5411616 C30.9542423,11.3046522 30.4801939,10.6896938 30.2979686,9.6963147 C30.1520571,7.89878103 30.1520571,6.10121897 30.2979686,4.3036853 C30.5095075,3.41798849 30.9104907,2.75571684 31.501137,2.3169271 Z" id="形状" opacity="0.895"></path>
            </g>
        </g>
    </g>
</svg>
