<svg width="31px" height="14px" viewBox="0 0 31 14" version="1.1" xmlns="http://www.w3.org/2000/svg" xmlns:xlink="http://www.w3.org/1999/xlink">
    <defs>
        <polygon id="path-0c3sif5og5-1" points="0 0 70 0 70 14 0 14"></polygon>
    </defs>
    <g id="页面-1" stroke="none" stroke-width="1" fill="none" fill-rule="evenodd">
        <g id="bilibili" transform="translate(-20.000000, 0.000000)">
            <mask id="mask-0c3sif5og5-2" fill="white">
                <use xlink:href="#path-0c3sif5og5-1"></use>
            </mask>
            <g id="bg"></g>
            <path d="M48.7379529,12.4928661 C48.5995728,12.4928661 48.4815297,12.5038039 48.3656971,12.4906785 C48.1309372,12.4639902 47.8961773,12.4692403 47.6609752,12.4622401 C47.5093318,12.4583025 47.5137529,12.4583025 47.5009318,12.3130481 C47.4633525,11.8698471 47.4222364,11.4270836 47.3820044,10.9843202 C47.3470778,10.5953708 47.3139196,10.205984 47.2754561,9.81747217 C47.2405295,9.46133634 47.1985292,9.10607552 47.1605078,8.75037721 C47.1242548,8.41611704 47.0906545,8.08141936 47.0530753,7.74759669 C47.0054061,7.32740719 46.9561843,6.90739161 46.9054108,6.48755837 C46.8598736,6.11654709 46.8147785,5.74466078 46.7643781,5.37408699 C46.6854149,4.79953201 46.6046559,4.22522013 46.5221023,3.65115958 C46.4336805,3.03951598 46.3275743,2.43093496 46.2166049,1.82322897 C46.19671,1.71428816 46.1993627,1.71035054 46.3045846,1.69285001 C46.7422726,1.61891026 47.1821711,1.55590835 47.627375,1.56553363 C47.6755649,1.56684617 47.7241969,1.56772121 47.7719446,1.57384638 C47.8501979,1.58347167 47.890872,1.62109782 47.895293,1.71122556 C47.9107669,2.02536013 47.9328723,2.33949468 47.9563041,2.65319172 C47.9938834,3.16726986 48.0345574,3.68134799 48.073463,4.19498862 C48.0982211,4.52574868 48.1194424,4.85563372 48.1446426,5.18551875 C48.1848745,5.71578489 48.227317,6.24561351 48.267991,6.77587964 C48.2927491,7.10007701 48.3144125,7.4251494 48.3396127,7.74934675 C48.3780762,8.22536124 48.4200765,8.70093819 48.4589821,9.17651516 C48.4837402,9.47927437 48.5058457,9.78247109 48.5319301,10.0852303 C48.5703936,10.5336815 48.6119518,10.9821326 48.6512996,11.4305837 C48.6809209,11.7805944 48.7078895,12.1314801 48.7379529,12.4928661 L48.7379529,12.4928661 Z M31.7927966,1.57034628 C31.8569024,1.57034628 31.9537243,1.56334607 32.0492198,1.57209634 C32.1707998,1.58303418 32.1942316,1.61409761 32.2017475,1.73485128 C32.2366741,2.28699308 32.2693901,2.83957239 32.3065273,3.3921517 C32.3472013,3.98804483 32.3918543,4.58306294 32.4365074,5.17808103 C32.4776235,5.72453516 32.5187397,6.27098927 32.5629506,6.8174434 C32.6111405,7.41771166 32.6646356,8.0171049 32.7132676,8.61737315 C32.7499627,9.07719965 32.7813524,9.53702613 32.8193738,9.99729014 C32.8556268,10.4243031 32.8980692,10.8504411 32.9369748,11.2770166 C32.970133,11.6440902 33.0037333,12.0116014 33.0360073,12.3791126 C33.0461758,12.4954911 33.0377757,12.5029289 32.9108904,12.4998663 C32.5788665,12.491991 32.248611,12.4534899 31.9165871,12.4626776 C31.8405443,12.4648652 31.8184389,12.4303016 31.8056177,12.358987 C31.778207,12.2036698 31.782628,12.0457275 31.7658279,11.8886602 C31.7202907,11.47346 31.6942062,11.0565098 31.6557427,10.6404347 C31.6212582,10.2624232 31.5797,9.88528673 31.5403523,9.50771274 C31.5054257,9.16251474 31.4709412,8.81731674 31.433804,8.47168122 C31.3966668,8.1326084 31.3573191,7.79309808 31.3184135,7.45358775 C31.2826027,7.14120325 31.2476761,6.82881875 31.2096547,6.51643425 C31.1535069,6.05879533 31.0978011,5.6011564 31.0367901,5.1443925 C30.9806422,4.72525476 30.9169785,4.30742955 30.8572938,3.8887293 C30.7759457,3.31996199 30.6844291,2.75250724 30.5831861,2.18724005 C30.5600442,2.05924182 30.5355795,1.93148125 30.509796,1.80397839 C30.4965328,1.73966393 30.5084697,1.7024753 30.582744,1.6924125 C30.7781562,1.66659922 30.9731263,1.62634799 31.1694228,1.60753492 C31.3657192,1.58959687 31.5620156,1.55328327 31.7927966,1.57034628 L31.7927966,1.57034628 Z M45.6966847,7.08651409 C46.0707089,7.08651409 46.0795511,7.08913917 46.1396779,7.4220868 C46.2135102,7.8329118 46.2652369,8.2472369 46.314311,8.661562 C46.3660378,9.10301293 46.4182067,9.54446386 46.4659544,9.9863523 C46.5044179,10.3420506 46.5366919,10.698624 46.5729448,11.0543223 C46.6109662,11.4270836 46.6511981,11.7985324 46.6905458,12.1708563 C46.7122092,12.3813002 46.7325462,12.5917441 46.7568622,12.8017505 C46.7639359,12.8625648 46.7453674,12.8949408 46.6847984,12.901941 C46.5570289,12.9163789 46.4301436,12.9330044 46.3028162,12.9465674 C46.0693826,12.9715056 45.8355069,12.9960064 45.6016312,13.0174445 C45.4809354,13.0283823 45.4729775,13.0218196 45.4504299,12.9063161 C45.2452913,11.8584718 45.0397106,10.8115024 44.8363404,9.76322052 C44.701055,9.06626182 44.5693065,8.3688656 44.4366738,7.6719069 C44.41888,7.57602086 44.4023731,7.4799053 44.3871576,7.38358563 C44.3783154,7.32845895 44.3933471,7.29302038 44.4565687,7.27814491 C44.8778987,7.18057944 45.3036497,7.10532715 45.6966847,7.08651409 L45.6966847,7.08651409 Z M29.9823599,7.08651409 C30.3824686,7.08651409 30.3807002,7.08782663 30.4425955,7.44702506 C30.538091,8.00310448 30.6057337,8.56224649 30.6663026,9.12313855 C30.7255453,9.6674051 30.7900932,10.2112342 30.8480095,10.7555007 C30.8873572,11.1278245 30.9183048,11.5010234 30.9549999,11.8729097 C30.9810843,12.1376052 31.0120319,12.4014258 31.0403269,12.6656838 C31.0438638,12.6980598 31.0456322,12.7304358 31.0478428,12.7632493 C31.0535902,12.8927532 31.0478428,12.9032535 30.9218417,12.9159414 C30.6720501,12.9417547 30.4218163,12.9631929 30.1720247,12.9876936 C30.0813923,12.9964439 29.9912021,13.0095693 29.901454,13.0183195 C29.7820845,13.0292574 29.7781055,13.0288199 29.7546737,12.9093787 C29.670673,12.4898035 29.589325,12.0693532 29.5070927,11.6497779 C29.309912,10.6391222 29.1105208,9.62934145 28.9146665,8.61868569 C28.8364132,8.2144234 28.7692126,7.80841105 28.6922857,7.40371124 C28.6781382,7.32977149 28.6887488,7.29520794 28.7661179,7.27726989 C29.1834688,7.18101696 29.6034725,7.10576468 29.9823599,7.08651409 L29.9823599,7.08651409 Z M35.2633527,11.324268 L35.2633527,13.0205071 C35.2633527,13.0366951 35.2615843,13.0533206 35.2637948,13.0695086 C35.2721949,13.1517611 35.2416894,13.1880747 35.1559202,13.1845746 C35.0431824,13.179762 34.9313288,13.1828245 34.818591,13.1854496 C34.583389,13.1898248 34.3477449,13.180637 34.1129849,13.2073253 C33.9830049,13.2222007 33.9856575,13.2143255 33.9728364,13.0786964 C33.9343729,12.6516834 33.8923725,12.2251079 33.8530248,11.7980949 C33.8167719,11.4038954 33.7840558,11.0088209 33.7469186,10.6146214 C33.7093394,10.2090466 33.667339,9.80478428 33.6293176,9.39964696 C33.6032332,9.12926374 33.5802435,8.85931802 33.5572538,8.5889348 C33.5271904,8.2371741 33.4993376,7.88585091 33.4679478,7.5340902 C33.4546845,7.38577319 33.4657373,7.36477255 33.6142859,7.34945959 C33.9975335,7.30770469 34.3835067,7.29585526 34.7686327,7.31402101 C34.8645704,7.31927116 34.9600659,7.33764673 35.0529088,7.35995991 C35.1700677,7.38752325 35.1828889,7.40458627 35.1890784,7.52577745 C35.2018996,7.76990988 35.2147208,8.0140423 35.2213524,8.25861224 C35.2288682,8.530308 35.2226787,8.80244128 35.2328472,9.07413706 C35.2584895,9.82359736 35.2545106,10.5739327 35.2633527,11.324268 L35.2633527,11.324268 Z M50.9462877,11.4012704 L50.9462877,13.0073817 C50.9462877,13.0345075 50.9454035,13.0616334 50.9467298,13.0891967 C50.9524773,13.1596363 50.9193191,13.1845746 50.8516764,13.1841371 C50.6854434,13.1828245 50.5196525,13.1841371 50.3538616,13.1863247 C50.1664073,13.1880747 49.9793952,13.1871997 49.7923831,13.2073253 C49.6690346,13.2213257 49.6681504,13.2121379 49.6570977,13.0909467 C49.6062552,12.5348673 49.55276,11.9787879 49.5014753,11.4218335 C49.4546117,10.9086304 49.4112851,10.3949897 49.3635373,9.8813491 C49.3144632,9.35152049 49.260968,8.82300441 49.2127781,8.29361331 C49.1889042,8.02848024 49.1690093,7.76334717 49.1491144,7.49821412 C49.1411564,7.3827106 49.1539776,7.36214747 49.2857261,7.35164715 C49.5147386,7.3337091 49.7428669,7.30308317 49.9736478,7.3070208 C50.2035445,7.31139593 50.4338833,7.29870805 50.6624537,7.34202186 C50.8560975,7.37877298 50.8658239,7.38971082 50.8773187,7.59446704 C50.9104769,8.19692287 50.9003084,8.80112874 50.9219717,9.40358458 C50.9440772,10.0449791 50.9286034,10.6863736 50.9462877,11.4012704 Z M45.3063023,4.17180042 C45.4415877,4.17967566 45.548136,4.17311296 45.6542422,4.19630116 C45.7218849,4.21161413 45.7559273,4.24180254 45.7625589,4.31355473 C45.7943908,4.65875273 45.8288753,5.00438826 45.8638019,5.35002377 C45.8916547,5.63046979 45.9212761,5.91091583 45.9500132,6.19136186 L45.9526658,6.20754985 C45.9756555,6.38430523 45.9703502,6.38911788 45.7966013,6.39874317 C45.6418631,6.40705592 45.4875671,6.42061883 45.3328289,6.42980661 C45.2311438,6.4359318 45.1988699,6.45299482 45.1820697,6.30642786 C45.1241534,5.78928713 45.0569528,5.27345894 44.992847,4.75675572 C44.9750836,4.61153504 44.9553343,4.46655901 44.9336044,4.32186748 C44.9207832,4.2400525 44.9530572,4.19498862 45.0304263,4.18842593 C45.1321114,4.17923814 45.2337965,4.17661307 45.3063023,4.17180042 L45.3063023,4.17180042 Z M29.6428202,4.17398799 C29.7471579,4.17967566 29.8545904,4.17180042 29.9598124,4.19586365 C30.0199392,4.20942657 30.0504447,4.23436483 30.0561921,4.30217939 C30.0690133,4.46405932 30.0942135,4.62550172 30.1096873,4.78738165 C30.1587614,5.28395926 30.2051829,5.78097438 30.2511622,6.27798949 C30.2608886,6.38605529 30.2586781,6.38824285 30.1565509,6.39568057 C29.9752862,6.40880597 29.7935793,6.42193137 29.6118725,6.4293691 C29.5062085,6.43418175 29.4929452,6.42149385 29.4796819,6.31474061 C29.4337026,5.94897949 29.3903759,5.58278084 29.346165,5.2165822 C29.3103541,4.91469802 29.2802907,4.61281383 29.236964,4.31180468 C29.2250271,4.22867714 29.2524379,4.20592646 29.3196384,4.19236354 C29.4261867,4.1709254 29.5331771,4.17792561 29.6428202,4.17398799 L29.6428202,4.17398799 Z M35.159015,5.54165459 C35.159015,5.85622665 35.1598992,6.17036122 35.1585729,6.4853708 C35.1585729,6.6266876 35.1568045,6.62756262 35.0148875,6.62581258 C34.8441619,6.62670297 34.6735244,6.61793841 34.5038094,6.59956177 C34.3941663,6.58599885 34.3919558,6.58949897 34.388861,6.47443296 C34.3778083,6.08985876 34.3663134,5.70528457 34.3583555,5.32071036 C34.3526081,5.06038995 34.3495133,4.80094455 34.3335974,4.54062415 C34.3251973,4.40630756 34.3327132,4.40499502 34.4631353,4.40324496 C34.6554528,4.40105739 34.8473281,4.40980767 35.0383192,4.43868354 C35.1532676,4.45618407 35.1585729,4.45618407 35.159015,4.5821879 C35.1598992,4.90201013 35.1598992,5.22183235 35.1598992,5.54209211 L35.159015,5.54209211 L35.159015,5.54165459 Z M50.849908,5.54996735 C50.849908,5.86497693 50.8507922,6.179549 50.8494659,6.49412107 C50.8494659,6.62625008 50.8472553,6.62712512 50.7132963,6.62625008 C50.5373825,6.62465478 50.3615924,6.61648204 50.1863023,6.60174934 C50.0992068,6.59518664 50.0735644,6.55887304 50.0793119,6.48055815 C50.0801961,6.46962031 50.0793119,6.45868249 50.0793119,6.44774466 C50.0660486,5.84047619 50.0527853,5.23364523 50.0404063,4.62637675 C50.0399641,4.59400076 50.0381957,4.56162478 50.039522,4.52881129 C50.0412905,4.40630756 50.0417326,4.40324496 50.1659652,4.40411998 C50.3370614,4.404995 50.5068313,4.41374527 50.6774854,4.43037078 C50.8857188,4.4509339 50.8490237,4.47630968 50.849908,4.63906464 C50.8507922,4.94226136 50.8503501,5.24633311 50.849908,5.54996735 L50.849908,5.54996735 Z M29.2135323,6.28848981 C29.2175112,6.46130758 29.2175112,6.46087006 29.050394,6.50112128 C28.936772,6.52868461 28.8231499,6.55887304 28.7086437,6.58381129 C28.6109376,6.60568696 28.5936953,6.59343658 28.5768952,6.4984962 C28.4601784,5.85447661 28.3439037,5.21001951 28.2280711,4.5655624 C28.2046394,4.43212085 28.2108289,4.42380809 28.3434616,4.40061989 C28.5065998,4.37218152 28.669296,4.34418066 28.8324342,4.31924241 C28.9363299,4.30305441 28.9495931,4.30874208 28.9703723,4.42205803 C29.0114884,4.6508775 29.050394,4.88057197 29.0808995,5.1111415 C29.1282052,5.4760276 29.1671108,5.84222624 29.2095533,6.20754985 C29.2130902,6.23423817 29.2122059,6.2618015 29.2135323,6.28848981 L29.2135323,6.28848981 Z M43.9198483,4.41899544 C44.133387,4.38443188 44.3486941,4.34943082 44.5640012,4.31574229 C44.6413703,4.30392943 44.6648021,4.35205589 44.6749706,4.42030798 C44.7116656,4.67231565 44.757645,4.92257326 44.7877084,5.17501843 C44.8319193,5.54077955 44.8924883,5.90479063 44.9039831,6.27361436 C44.9048673,6.3112405 44.9044252,6.34974167 44.9053094,6.38736782 C44.90752,6.44599461 44.8778987,6.47618303 44.8230771,6.48887091 C44.6771811,6.5212469 44.5312851,6.55362288 44.3858313,6.58818643 C44.315978,6.60481194 44.2925463,6.57549855 44.2810514,6.5081215 C44.2372826,6.2517387 44.1868822,5.99666845 44.1422292,5.74116067 C44.0666285,5.32027286 43.9932384,4.89894754 43.9198483,4.47762222 C43.9180799,4.46230925 43.9198483,4.44612125 43.9198483,4.41899544 L43.9198483,4.41899544 Z M34.0988375,5.89647788 C34.0926479,6.1204847 34.1063533,6.31561563 34.0754057,6.51074658 C34.0661214,6.57243595 34.0479949,6.61224966 33.9807943,6.61793733 C33.8366668,6.62975019 33.6929813,6.64112554 33.549738,6.65556347 C33.4803269,6.6630012 33.4608741,6.63325029 33.4493792,6.56587325 C33.4171053,6.36680469 33.4228527,6.16511105 33.4033999,5.96516748 C33.3667049,5.5875935 33.351231,5.20739443 33.3264729,4.8285079 C33.3202834,4.73619259 33.3109991,4.64475231 33.3034832,4.55243699 C33.2995043,4.50081042 33.3202834,4.47193455 33.3759891,4.46974699 C33.5625592,4.46230926 33.748245,4.42862074 33.9356992,4.43518343 C34.0453423,4.43912105 34.0546266,4.44612127 34.0625845,4.55549959 C34.0674477,4.6311894 34.0661214,4.70775422 34.0678898,4.78388154 L34.0988375,5.89647788 L34.0988375,5.89647788 Z M49.7830988,5.67947129 C49.7830988,5.94022922 49.7861935,6.20098716 49.7826567,6.46174508 C49.7804461,6.59737421 49.7649723,6.60918707 49.6354343,6.62099993 C49.5072227,6.63281279 49.3798953,6.64243808 49.2521258,6.65600099 C49.180062,6.66343872 49.1464617,6.64243808 49.1420406,6.56062309 C49.123472,6.21411254 49.0982718,5.86760201 49.0739558,5.52152898 C49.0549451,5.23452025 49.0332818,4.94794903 49.0129448,4.66137781 C49.0107342,4.6285643 49.0125027,4.59575082 49.0102921,4.56337483 C49.0071974,4.50606059 49.0248817,4.47237206 49.0898718,4.47018449 C49.2711365,4.4640593 49.4510749,4.42949576 49.6336659,4.43605846 C49.7450774,4.43999608 49.7468458,4.44174614 49.7552459,4.55637462 C49.7822146,4.93001099 49.7848672,5.30452239 49.7830988,5.67947129 L49.7830988,5.67947129 Z M28.6781382,10.3403006 C28.9071507,10.5896832 28.9186455,10.8850047 28.8430448,11.193889 C28.7670021,11.5027734 28.5936953,11.7574062 28.3836935,11.9857881 C28.0313326,12.3672997 27.6055816,12.6490583 27.1528619,12.8883781 C26.3734236,13.3005156 25.5471218,13.574399 24.6850091,13.7362789 C24.06473,13.8522199 23.440472,13.9414726 22.8095824,13.9755987 C22.6172649,13.986099 22.4253896,13.9948492 22.2330722,13.9935367 C22.0938078,13.9935367 21.9541013,13.9974743 21.8152791,13.9926617 C21.697236,13.9882866 21.6799937,13.9681609 21.6702673,13.8460947 C21.6344565,13.4081439 21.603951,12.9697556 21.5646033,12.5318047 C21.5186239,12.0242893 21.4646866,11.5172114 21.4151704,11.0096959 C21.3789174,10.6426223 21.3475277,10.2746736 21.3077379,9.90847494 C21.2617585,9.47708681 21.2100318,9.04657372 21.1596313,8.6151856 C21.113652,8.21704849 21.0694411,7.81803635 21.0208091,7.41946171 C20.9664297,6.97801078 20.9102818,6.53743488 20.8505971,6.09685898 C20.792179,5.67256828 20.7313143,5.24861097 20.6680061,4.82500779 C20.5650891,4.12781354 20.4530788,3.43196353 20.3320032,2.7376318 C20.2340303,2.17148859 20.1249562,1.60728171 20.0048425,1.04533031 C19.9889265,0.970078023 20.0119162,0.939889611 20.0786747,0.912326263 C20.7184065,0.649818272 21.3559278,0.382497645 21.9952175,0.118677115 C22.1141448,0.0696756205 22.2361669,0.0285493702 22.3626101,0.00536116807 C22.4501477,-0.0108268244 22.4726953,0.0071112239 22.4700426,0.0941763747 C22.463411,0.316870654 22.4726953,0.540439954 22.4505898,0.762259198 C22.4451965,0.821763842 22.4422467,0.88146065 22.4417476,0.941202136 C22.4315791,1.73966392 22.4218527,2.53856324 22.443074,3.33746254 C22.4616426,4.03748383 22.4987797,4.73706762 22.5398959,5.4366514 C22.5721698,5.9887932 22.6185913,6.540935 22.6663391,7.09220177 C22.7132026,7.63253071 22.7702347,8.17198461 22.8237299,8.71231355 C22.8338984,8.81512918 22.8431827,8.82475448 22.9612258,8.80900399 C23.1938412,8.77440504 23.4285365,8.75525747 23.6637371,8.75168974 C24.3945434,8.74993969 25.1134127,8.84925522 25.8243241,9.01594778 C26.4463716,9.16207723 27.0516189,9.35677064 27.631666,9.62890393 C27.9190369,9.76365802 28.1940287,9.91941277 28.4447046,10.1171688 C28.5300316,10.1836708 28.6060744,10.2602356 28.6781382,10.3403006 Z M44.250988,10.2090466 C44.5339378,10.4544915 44.6369492,10.7550632 44.5564854,11.1269495 C44.4897269,11.4336463 44.3385256,11.6913417 44.1369239,11.9219112 C43.8133,12.292485 43.4202651,12.5742435 42.9949561,12.8096257 C42.1611384,13.2716398 41.2729413,13.5717739 40.339207,13.7450291 C39.8295811,13.8407156 39.315531,13.9116775 38.798899,13.9576606 C38.5062228,13.9825989 38.2122202,14.0136623 37.8837332,13.9935367 L37.4999825,13.9935367 C37.4252661,13.9935367 37.3828236,13.9703485 37.3766341,13.8824083 C37.3483391,13.4982716 37.315623,13.1145725 37.2806964,12.7308733 C37.2435593,12.325736 37.2024431,11.9205987 37.1635375,11.5154613 C37.1281688,11.1431375 37.0954527,10.7699386 37.0569892,10.3976148 C37.0216205,10.0467291 36.9809465,9.6967185 36.942483,9.34627033 C36.9066722,9.01726033 36.8721876,8.68825031 36.8328399,8.35967781 C36.7855343,7.96154071 36.7355759,7.56340359 36.6856176,7.16526648 C36.6387541,6.79381768 36.5923326,6.4228064 36.5423743,6.05179512 C36.4892539,5.65414064 36.4332519,5.25686833 36.3743728,4.86000885 C36.2956774,4.34505568 36.2112346,3.83185258 36.1281181,3.31777443 C36.0121974,2.58978075 35.8780497,1.86474412 35.7257988,1.14333329 C35.7196093,1.11139482 35.7165145,1.07858132 35.7067881,1.04751787 C35.6837985,0.97751575 35.7059039,0.940327115 35.7753151,0.913201284 C36.4548367,0.650255789 37.112695,0.333058646 37.7984061,0.0828010324 C37.8881543,0.0495500264 37.9787866,0.0123613914 38.0756085,0.00273609117 C38.162704,-0.00601417428 38.1848095,0.00798624497 38.1764094,0.0998640459 C38.1304301,0.5981917 38.1569566,1.09914445 38.1330827,1.59790962 C38.1136299,2.004797 38.1158405,2.41299691 38.1366196,2.8203218 C38.1414828,2.92357494 38.1454618,3.02726559 38.1445775,3.13008123 C38.1392722,3.61922111 38.1653567,4.10792348 38.1905569,4.59618833 C38.2228308,5.24152046 38.2701365,5.88554006 38.3183264,6.52999716 C38.353253,6.99507381 38.3987903,7.45927544 38.4430012,7.92391457 C38.4664329,8.1781098 38.4916332,8.43186752 38.523465,8.68475022 C38.5407073,8.82431696 38.547781,8.8256295 38.6861612,8.80725393 C38.9302054,8.77444043 39.1746917,8.74775212 39.4213885,8.75125223 C40.2870381,8.76219007 41.1354454,8.89738168 41.9679368,9.13232632 C42.5316258,9.29070613 43.0802832,9.48846215 43.598435,9.76540808 C43.8321894,9.88841788 44.0511039,10.037247 44.250988,10.2090466 L44.250988,10.2090466 Z M24.2610265,12.6193074 C24.5811134,12.4679278 26.1351268,11.2660787 26.2584752,11.0700728 C25.5042372,10.7485005 24.7473464,10.4496789 23.9334236,10.205109 L24.2610265,12.6193074 Z M41.9117889,11.1488252 C41.9515787,11.1063864 41.9471576,11.0735729 41.8932203,11.0499472 C41.7857878,11.0013832 41.6792396,10.9497566 41.5704807,10.9055678 C40.9899915,10.6706231 40.4068496,10.4431162 39.8086761,10.2576106 C39.7565072,10.2418601 39.703012,10.205984 39.6362535,10.2366099 L39.958551,12.6088071 C40.0062988,12.6193074 40.0248674,12.5974317 40.0460887,12.5825563 C40.5894407,12.1879193 41.1363296,11.7980949 41.6580183,11.373707 C41.745998,11.3028298 41.8330935,11.2315152 41.9117889,11.1488252 L41.9117889,11.1488252 Z" id="形状" fill="#00A1D6" fill-rule="nonzero" mask="url(#mask-0c3sif5og5-2)"></path>
        </g>
    </g>
</svg>
