<svg width="70px" height="14px" viewBox="0 0 70 14" version="1.1" xmlns="http://www.w3.org/2000/svg" xmlns:xlink="http://www.w3.org/1999/xlink">
    <defs>
        <linearGradient x1="0%" y1="0%" x2="100%" y2="0%" id="linearGradient-7as1chh1hq-1">
            <stop stop-color="#00DC5A" offset="0%"></stop>
            <stop stop-color="#00DC5A" offset="100%"></stop>
        </linearGradient>
    </defs>
    <g id="页面-1" stroke="none" stroke-width="1" fill="none" fill-rule="evenodd">
        <g id="iqiyi" transform="translate(0.085312, -0.000028)" fill="url(#linearGradient-7as1chh1hq-1)" fill-rule="nonzero">
            <path d="M69.9192415,1.1376529 L68.7710674,1.1376529 C68.7525451,1.13917513 68.7343418,1.13101903 68.7207282,1.11509813 C68.7071146,1.09917723 68.6992889,1.07689274 68.699087,1.05347293 L68.699087,0.162937613 C68.6993215,0.135426337 68.6908242,0.108939969 68.6754889,0.089381674 C68.6601537,0.0698233922 68.639255,0.0588202924 68.6174508,0.0588202924 L67.1795997,0.0588202924 C67.1343716,0.0594274517 67.0979609,0.105864993 67.0979634,0.162937613 L67.0979634,1.06122636 C67.0942676,1.10659124 67.0629434,1.14026099 67.0268609,1.1376529 L63.2900281,1.1376529 C63.2715058,1.13917513 63.2533024,1.13101903 63.2396888,1.11509813 C63.2260752,1.09917723 63.2182495,1.07689274 63.2180477,1.05347293 L63.2180477,1.04239662 C63.2176215,1.03984014 63.2176215,1.03719969 63.2180477,1.03464321 L63.2180477,0.162937613 C63.2180503,0.105864993 63.1816396,0.0594274517 63.1364115,0.0588202924 L61.7011938,0.0588202924 C61.6556225,0.0588202924 61.6186797,0.105435207 61.6186797,0.162937613 L61.6186797,1.06122636 C61.6149967,1.10614245 61.5842064,1.13965199 61.548455,1.1376529 L60.4073033,1.1376529 C60.388407,1.13549878 60.3696495,1.14333514 60.3555054,1.15929258 C60.3413614,1.17525002 60.3330991,1.19789766 60.3326896,1.22183285 L60.3326896,2.58532661 C60.3331707,2.642396 60.369973,2.68833952 60.4152036,2.68833629 L61.5344101,2.68833629 C61.5976123,2.68833629 61.6125351,2.7348568 61.6151685,2.76476283 L61.6151685,3.84691832 C61.6151685,3.90451513 61.6520365,3.95103564 61.6976825,3.95103564 L63.1346559,3.95103564 C63.1798839,3.95042848 63.2162947,3.90399093 63.2162921,3.84691832 L63.2162921,2.7924536 C63.2159918,2.78988302 63.2159918,2.78727078 63.2162921,2.78470019 L63.2162921,2.76919336 C63.2162921,2.73928732 63.2294592,2.68612103 63.2979283,2.6850134 L67.0136938,2.6850134 C67.0760182,2.6850134 67.0918188,2.7315339 67.0944522,2.76143994 L67.0944522,3.84359542 C67.0944496,3.90066804 67.1308604,3.94710558 67.1760884,3.94771274 L68.6130618,3.94771274 C68.6587078,3.94771274 68.6955758,3.90119224 68.6955758,3.84359542 L68.6955758,2.76919336 C68.6955758,2.73928732 68.7078651,2.68612103 68.777212,2.6850134 L69.9183637,2.6850134 C69.9634502,2.6850134 70,2.63889439 70,2.58200372 L70,1.24066257 C70,1.18420167 69.9639848,1.13825999 69.9192415,1.1376529 L69.9192415,1.1376529 Z M38.9167837,1.80112386 C38.9178072,1.84403534 38.9329835,1.88445874 38.9586504,1.91263949 C38.9843173,1.94082025 39.0181434,1.95419868 39.0519663,1.94954641 C39.8542837,1.94954641 44.1002457,1.86758172 44.9991222,1.86758172 C45.6917134,1.86758172 46.9698033,1.78450939 47.6518609,1.6383021 C47.6931179,1.62944106 47.757198,1.57516714 47.7396418,1.43560562 C47.7220856,1.29604412 47.5895365,0.364526448 47.56408,0.264839657 C47.5572311,0.223634502 47.5373081,0.187765921 47.5089487,0.165583913 C47.4805894,0.143401918 47.4462681,0.136841814 47.4139747,0.147430774 C46.5256268,0.300994 45.6297786,0.37502105 44.733146,0.368956977 C44.733146,0.368956977 39.1941713,0.450921665 39.0519663,0.450921665 C39.0158928,0.446772104 38.980142,0.462349478 38.9537841,0.493701626 C38.9274263,0.525053786 38.9129945,0.569167672 38.9140281,0.614851053 L38.9167837,1.80112386 L38.9167837,1.80112386 Z M41.8855337,5.25026772 C41.9082088,5.25053278 41.9298044,5.26254269 41.945247,5.28349506 C41.9606896,5.30444743 41.9686181,5.33249547 41.9671699,5.3610499 C41.9557584,5.51279535 41.9452247,5.62023555 41.9303019,5.76533522 C41.9296875,5.77153795 41.9281074,5.80077941 41.9592696,5.80077941 L47.6527387,5.80077941 C47.69831,5.80077941 47.7352528,5.84739431 47.7352528,5.90489672 L47.7352528,7.17313423 C47.7352528,7.2291709 47.6997715,7.27493882 47.6553722,7.2761439 L41.7196278,7.2761439 C41.6941713,7.2761439 41.6853932,7.314911 41.6853932,7.314911 L41.6548455,7.45502631 C41.6235955,7.59514163 41.5901509,7.73525696 41.5545997,7.87537227 C41.5531952,7.88135348 41.5475772,7.91303173 41.585323,7.91303173 L46.667837,7.91303173 C47.2902036,7.91303173 47.288448,8.66622081 47.2577247,8.87888592 C47.1697523,9.4218868 47.001819,9.93923957 46.7626404,10.4040938 C46.5677668,10.7973029 46.1867977,11.3057055 45.8356741,11.6955916 C46.3307584,11.8783507 46.8372542,11.973607 47.6343047,12.0101587 C47.6585953,12.0051028 47.6833278,12.0151324 47.7007359,12.0370982 C47.718144,12.059064 47.7260926,12.0902718 47.7220856,12.1209219 L47.7220856,13.5841024 C47.7220856,13.6594213 47.6817064,13.6860045 47.6343047,13.6860045 C46.4163173,13.6814846 45.2078417,13.4151661 44.0607443,12.8984789 C42.8256671,13.4168502 41.4097612,13.7081571 40.2554424,13.6893274 C40.2168188,13.6882198 40.1386938,13.6782511 40.1386938,13.567488 L40.1386938,12.1275677 C40.1385417,12.0959533 40.1491032,12.0657636 40.1677183,12.0446026 C40.1863333,12.0234416 40.2112275,12.0133264 40.2361306,12.0168046 C40.9491697,12.0216034 41.6600639,11.9178441 42.3534059,11.7077756 C41.8764568,11.2557312 41.4676515,10.6993787 41.1464185,10.0651588 C41.1392205,10.0503165 41.0255442,9.80929602 41.2087429,9.80929602 L42.72033,9.80929602 C42.7630262,9.80316449 42.8057044,9.82098016 42.8370786,9.85803179 C43.1681057,10.3938281 43.59821,10.8190217 44.089712,11.0963632 L44.1344803,11.0675648 L44.1950491,11.0232595 C44.9429424,10.4982425 45.2747542,9.87907682 45.4169592,9.42937857 C45.431882,9.38285804 45.5056179,9.22335917 45.3528792,9.22335917 L41.2157654,9.22335917 C41.1569522,9.22335917 41.1437851,9.2698797 41.1437851,9.2698797 L41.0969979,9.40456766 C40.5936012,10.8385293 39.9534251,12.1896321 39.1906601,13.4279266 C39.1603123,13.4747551 39.1067344,13.484824 39.066889,13.4511867 C39.0427493,13.4332431 38.772033,13.2000867 38.5003511,12.9650475 L38.4461025,12.918084 C38.2721393,12.7681197 38.0986827,12.6172221 37.9257373,12.4653951 C37.9257373,12.4653951 37.8607795,12.4188747 37.9152036,12.3081116 C38.9080056,10.6533108 39.6392205,8.97192698 40.0219452,7.30383469 C40.027212,7.27835917 40.0017556,7.27835917 40.0017556,7.27835917 L38.5454705,7.27835917 C38.500384,7.27835917 38.4638342,7.23224016 38.4638342,7.17534948 L38.4638342,5.90932725 C38.4635998,5.88181597 38.4720971,5.85532961 38.4874323,5.83577132 C38.5027676,5.81621303 38.5236662,5.80520834 38.5454705,5.80520993 L40.2510533,5.80520993 C40.2611348,5.806573 40.270335,5.7978663 40.2721207,5.78527257 L40.2721207,5.79081073 L40.2786165,5.72346677 C40.2909059,5.59320936 40.2995962,5.48643374 40.3063553,5.34775833 C40.3074189,5.32622094 40.3138736,5.3056656 40.3247893,5.28905389 C40.3401669,5.26419405 40.3638792,5.2498486 40.3888693,5.25026772 L41.8855337,5.25026772 Z M46.6564255,2.39702934 C46.6788158,2.39434303 46.7010061,2.40424707 46.7170781,2.42410001 C46.7331501,2.44395295 46.7414695,2.47173589 46.7398174,2.50003902 L46.7398174,3.25101285 L46.7399052,3.25909855 C46.7418171,3.27858836 46.7549771,3.29319545 46.7705407,3.29310282 L47.5939255,3.29310282 C48.0837429,3.29310282 48.1917134,3.72397128 48.2004915,4.28664783 L48.2004915,5.32228281 C48.1982871,5.379205 48.1622111,5.42472618 48.1170997,5.42750776 L46.6722261,5.42750776 C46.5844452,5.42750776 46.5844452,5.31674466 46.5844452,5.31674466 L46.5844452,4.86815411 C46.5844452,4.78397415 46.5686446,4.73191549 46.4808637,4.73191549 L39.9227528,4.73191549 C39.9019008,4.73039957 39.8814668,4.73972611 39.8662086,4.75772343 C39.8509505,4.77572073 39.8421998,4.80081818 39.8419943,4.82717176 L39.8419943,5.24917917 C39.8413799,5.27332553 39.8326896,5.35329649 39.7454354,5.35329649 L38.3260182,5.35329649 C38.3001695,5.35697932 38.2743577,5.3460064 38.2555449,5.32333751 C38.2367322,5.30066863 38.2268564,5.2686388 38.2285814,5.23588759 L38.2285814,3.43620875 C38.2302421,3.39509279 38.2453623,3.35669431 38.2703287,3.33018991 C38.295295,3.30368551 38.3278642,3.29145661 38.3602528,3.29642571 L39.5777738,3.29642571 C39.5864682,3.29644265 39.594784,3.29193888 39.6007636,3.28397466 C39.6067431,3.27601047 39.609858,3.26528948 39.609375,3.25433573 L39.609375,2.5100077 C39.609375,2.44883493 39.6486758,2.3992446 39.6971559,2.3992446 L41.0437148,2.3992446 C41.0668114,2.39474201 41.0902703,2.40383149 41.1073839,2.42391406 C41.1244975,2.44399662 41.1333815,2.47286118 41.1314957,2.50225429 L41.1314957,3.2532281 L41.1315835,3.26131381 C41.1334955,3.28080363 41.1466555,3.29541072 41.1622191,3.29531809 L42.3727177,3.29531809 C42.381412,3.29533502 42.3897279,3.29083124 42.3957074,3.28286703 C42.4016869,3.27490283 42.4048018,3.26418185 42.4043188,3.2532281 L42.4043188,2.50890007 C42.4043188,2.4477273 42.4436196,2.39813696 42.4920997,2.39813696 L43.8965941,2.39813696 C43.9194876,2.39488416 43.9423659,2.40440294 43.9592361,2.42419991 C43.9761063,2.44399689 43.9852876,2.47209956 43.984375,2.50114665 L43.984375,3.25212047 C43.9836355,3.26296465 43.986543,3.27370154 43.9923868,3.28170739 C43.9982306,3.28971324 44.0064725,3.29425052 44.0150983,3.29421046 L45.1860955,3.29421046 C45.1947898,3.29422739 45.2031057,3.28972361 45.2090852,3.2817594 C45.2150647,3.2737952 45.2181796,3.26307423 45.2176966,3.25212047 L45.2176966,2.50779243 C45.2176966,2.44661967 45.2569974,2.39702934 45.3054775,2.39702934 L46.6564255,2.39702934 Z M49.806882,2.55320531 L52.7484199,2.55320531 C52.7607092,2.55320531 52.7844101,2.55320531 52.7677317,2.58421897 C52.1005969,3.44927879 51.0121137,3.77270704 50.0939255,3.94992801 C50.0008778,3.96875773 49.9429424,3.98758745 49.9429424,4.13711765 L49.9429424,5.32228281 C49.9429424,5.46849011 50.0307233,5.44633749 50.0754915,5.43969171 C51.1499297,5.285731 52.3806179,4.84489385 53.0977879,4.22905101 C53.5928722,3.80372071 53.9755969,3.42491091 54.2837078,2.89989382 C55.1369382,4.41956355 56.4922752,5.19822815 58.5972612,5.43858407 C58.6376404,5.43858407 58.7192766,5.42418487 58.7192766,5.32782097 L58.7192766,4.09835056 C58.7192766,3.95989669 58.65783,3.96211195 58.6104283,3.95657379 C57.4692766,3.80039781 56.3377809,3.33076227 55.7575491,2.58421897 C55.7408707,2.5565282 55.7645716,2.55209767 55.7759831,2.55209767 L58.7254213,2.55209767 C58.7254213,2.55209767 58.8061797,2.55209767 58.8061797,2.45573378 L58.8061797,1.08780949 C58.8061797,0.984799805 58.7096207,0.990337966 58.7096207,0.990337966 L55.1896067,0.990337966 C55.1413272,0.990337966 55.1316713,0.947140358 55.1307935,0.924987737 L55.1307935,0.0931568552 C55.1322527,0.0693068563 55.1258099,0.0457609292 55.1129998,0.028127493 C55.1001897,0.0104940568 55.0821589,0.000351564089 55.0632022,3.49850982e-05 L53.4717345,3.49850982e-05 C53.4493945,-0.000738920147 53.4279742,0.0113608089 53.4135987,0.0329551147 C53.3992232,0.0545494079 53.3934753,0.0832606811 53.3979986,0.110878946 L53.3979986,0.92609537 C53.3979986,0.94824799 53.386587,0.983692185 53.3400632,0.989230334 L49.7972261,0.989230334 C49.7783297,0.987076229 49.7595722,0.994912582 49.7454282,1.01087003 C49.7312841,1.02682746 49.7230219,1.04947511 49.7225742,1.07341029 L49.7225742,2.46016431 C49.7225742,2.46016431 49.7191011,2.55320531 49.806882,2.55320531 L49.806882,2.55320531 Z M59.1643258,5.68558578 C59.2094123,5.68558578 59.245962,5.73170479 59.245962,5.78859547 L59.245962,7.14212055 C59.245962,7.16944042 59.2373611,7.19564134 59.2220513,7.2149594 C59.2067416,7.23427746 59.1859771,7.24513024 59.1643258,7.24513024 L58.6376404,7.24513024 C58.6138351,7.24276975 58.5904041,7.253679 58.5735193,7.27498447 C58.5566345,7.29628995 58.5479888,7.32585545 58.5498595,7.35589334 C58.5517029,7.70734465 58.554073,8.1925978 58.5557408,8.6914748 L58.556092,8.80257019 L58.5566186,8.96937938 C58.5572331,9.19145939 58.557672,9.41198876 58.5577598,9.6202234 L58.5577598,9.87342781 C58.5574964,10.3312118 58.5553019,10.6986129 58.5498595,10.8416081 C58.5007022,12.2638063 58.2865168,13.0169954 57.3016151,13.651668 C57.1453651,13.7591081 57.0742626,13.6239771 57.0742626,13.6239771 C57.0742626,13.6239771 56.9180126,13.3647915 56.7497366,13.0845609 L56.7134831,13.0243058 C56.5380969,12.7323342 56.3606917,12.4359321 56.3412921,12.4000449 C56.3017907,12.3269413 56.3483146,12.2571606 56.4027387,12.222824 C56.9153792,11.9049339 56.980337,11.5693217 56.980337,10.6101132 L56.980337,7.36143149 C56.9823262,7.33271211 56.9745816,7.30427344 56.9590224,7.28316289 C56.9434632,7.26205235 56.9215455,7.25024557 56.8987008,7.25066839 L49.3679775,7.25066839 C49.3227469,7.25067162 49.2859446,7.20472809 49.2854634,7.14765871 L49.2854634,5.78859547 C49.2859446,5.73152609 49.3227469,5.68558578 49.3679775,5.68558578 L59.1643258,5.68558578 Z M55.1527387,8.0260101 C55.6361481,8.0260101 56.0286165,8.51923818 56.0305477,9.12921061 L56.0305477,11.8484446 C56.0305477,12.4601892 55.6375526,12.9560757 55.1527387,12.9560757 L50.8330407,12.9560757 C50.3482268,12.9560757 49.9552317,12.4601892 49.9552317,11.8484446 L49.9552317,9.13364109 C49.9552317,8.52189649 50.3482268,8.0260101 50.8330407,8.0260101 L55.1527387,8.0260101 Z M54.4048455,9.35849015 L51.5818118,9.35849015 C51.5084635,9.35849015 51.4488673,9.43319265 51.4483848,9.52574249 L51.4483848,11.445267 L51.4489993,11.4618815 C51.4557982,11.5478368 51.5133545,11.613118 51.5818118,11.6125274 L54.4057233,11.6125274 C54.4789282,11.6125274 54.5382724,11.5376378 54.5382724,11.445267 L54.5382724,9.5766935 L54.5373946,9.52574249 L54.5366924,9.50968188 C54.5297511,9.42421977 54.4729283,9.35905986 54.4048455,9.35849015 L54.4048455,9.35849015 Z M69.4715589,12.0256657 L62.8932584,12.0256657 C62.789542,12.027418 62.7003787,11.9332695 62.683462,11.8041395 C62.6697919,11.6950336 62.7129101,11.5871114 62.7905547,11.5360927 L67.9696278,8.26415076 L68.7104986,7.78897706 C68.8524358,7.6936946 68.9840253,7.57567862 69.1020014,7.43785803 C69.2198897,7.29576169 69.3128856,7.12408566 69.375,6.93388592 C69.4338847,6.73903904 69.4636473,6.5321114 69.4627809,6.32358124 C69.467521,5.49817462 68.9516327,4.81720308 68.2979283,4.78618941 L61.0077247,4.78618941 C60.9626382,4.78618941 60.9260884,4.83230842 60.9260884,4.88919909 L60.9260884,6.3291194 C60.9260884,6.38560857 60.9620786,6.43157527 61.0068469,6.43212908 L67.3981741,6.43212908 C67.4601817,6.43142639 67.5116368,6.49244775 67.5149227,6.57058296 C67.5140422,6.6230326 67.4904537,6.67065542 67.4534761,6.69463763 L67.4051966,6.72786656 L67.3797401,6.74558866 L67.2735252,6.81647704 C66.4729634,7.35589334 61.8723665,10.1836753 61.4396067,10.5680232 C61.3895716,10.6067904 61.3421699,10.6477727 61.2965238,10.688755 C61.2042381,10.7674201 61.1201831,10.8604566 61.0463483,10.9656628 C61.0314255,10.9867077 61.0173806,11.0077527 61.0042134,11.0299054 L60.9998244,11.0365511 C60.9866456,11.0567457 60.9743385,11.0778211 60.9629564,11.0996862 L60.9576896,11.1085471 C60.9454002,11.1295922 60.9348665,11.1506372 60.923455,11.1727898 L60.923455,11.1816508 C60.886567,11.2551816 60.854845,11.3326416 60.8286516,11.4131457 C60.8207514,11.4375136 60.8128511,11.4640967 60.8049508,11.4895722 L60.7996839,11.5106172 C60.7935393,11.5305546 60.7891502,11.5504919 60.7838834,11.5715369 L60.7777387,11.5992277 C60.7777387,11.6180575 60.7698384,11.6357795 60.7663272,11.6546093 C60.762816,11.673439 60.7663272,11.6756542 60.7601825,11.6867305 C60.7540379,11.6978069 60.7540379,11.7221747 60.7514045,11.7398969 C60.748771,11.7576189 60.7514045,11.763157 60.7514045,11.7742334 C60.7514045,11.7853097 60.7470154,11.8107852 60.7452598,11.8285074 C60.7435042,11.8462294 60.7452598,11.85066 60.7452598,11.8617362 C60.7452598,11.8728125 60.7452598,11.901611 60.7408707,11.9215483 C60.7413097,11.931517 60.7413097,11.9414857 60.7408707,11.9514544 L60.7408707,12.2339003 C60.7408707,12.2438689 60.7408707,12.2682368 60.7461376,12.2848513 C60.7514045,12.3014657 60.7461376,12.307004 60.7505266,12.3180802 C60.7549157,12.3291565 60.7505266,12.3490939 60.7566713,12.3646007 C60.762816,12.3801076 60.7610604,12.3867533 60.762816,12.3978297 L60.7707163,12.442135 L60.7786165,12.4764714 C60.7786165,12.4908707 60.7847612,12.5052699 60.7882724,12.5185615 C60.7906425,12.5301916 60.7935393,12.541711 60.7970505,12.5528981 L60.8075842,12.5938804 L60.8181179,12.628217 C60.8181179,12.6415085 60.8260182,12.6548001 60.8304073,12.6680916 L60.8418188,12.7013206 C60.8418188,12.7135046 60.8505969,12.7267961 60.8558637,12.7389801 C60.8611306,12.751164 60.863764,12.7611326 60.8681531,12.7722089 C60.8725421,12.7832852 60.8786868,12.7965768 60.8830758,12.8087607 C60.8874648,12.8209447 60.8927317,12.8309134 60.8979986,12.8408821 L60.9137991,12.8763263 L60.9295997,12.9084475 L60.9462781,12.9427841 L60.9629564,12.9726902 L60.9813904,13.005919 L60.9998244,13.0358252 L61.0191362,13.0679464 L61.038448,13.0967449 L61.0586376,13.1266508 L61.0788272,13.1543416 L61.1007724,13.1831401 L61.1218398,13.2097232 L61.1446629,13.237414 L61.1666081,13.2628895 L61.1903089,13.288365 L61.213132,13.3127328 L61.2377106,13.3371007 L61.2622893,13.360361 L61.2877457,13.3825136 L61.3123244,13.4046663 L61.3386587,13.4257112 L61.3649929,13.4467562 L61.3913272,13.465586 L61.4185393,13.4844157 L61.4457514,13.5021378 L61.4738413,13.5198599 L61.5019311,13.5364743 L61.5308988,13.5519812 L61.5589887,13.5663804 L61.5888342,13.5807796 L61.6178019,13.5929635 L61.6485252,13.6051475 L61.6783707,13.6162238 L61.7090941,13.6273001 L61.7398174,13.6361611 L61.7705407,13.6450221 L61.8021418,13.651668 C61.8126755,13.651668 61.8232092,13.651668 61.8337429,13.6583137 L69.4812148,13.6583137 C69.5264455,13.6583137 69.5632477,13.6123735 69.5637346,13.5553041 L69.5637346,12.1286753 C69.5639263,12.0988886 69.5538953,12.0704523 69.5362232,12.0507019 C69.5185512,12.0309515 69.4949687,12.0218211 69.4715589,12.0256657 L69.4715589,12.0256657 Z M17.3200491,13.8863144 C17.3233427,13.9520084 17.366574,14.0023297 17.4174859,13.9999167 L19.7436797,13.9999167 C19.794741,14.0022949 19.8382039,13.9521556 19.8419943,13.8863144 L19.8419943,0.420350573 C19.8382039,0.354509343 19.794741,0.30437004 19.7436797,0.306752364 L17.4174859,0.306752364 C17.366591,0.30439601 17.3233877,0.354684725 17.3200491,0.420350573 L17.3200491,13.8863144 L17.3200491,13.8863144 Z M0.215941011,13.5685956 C0.219687196,13.6329239 0.263177719,13.6819211 0.314255618,13.6793587 L2.64044944,13.6793587 C2.69136138,13.6818966 2.73459266,13.6327527 2.73788624,13.5685956 L2.73788624,5.28905389 C2.73459266,5.22489687 2.69136138,5.17575291 2.64044944,5.17829079 L0.314255618,5.17829079 C0.263009266,5.17513185 0.219236461,5.22444712 0.215941011,5.28905389 L0.215941011,13.5685956 L0.215941011,13.5685956 Z M15.7847612,11.4331945 L14.6339536,10.2668249 C14.6108486,10.2431816 14.5947602,10.2103564 14.5883075,10.1736928 C14.5811675,10.1361017 14.5855582,10.0964904 14.6005969,10.0628212 C15.8920295,6.99278571 15.1567766,3.18767137 12.8908005,1.21426722 C10.625,-0.759136923 7.54766503,-0.274406156 5.73490169,2.34172083 C3.92222612,4.95762607 3.9494382,8.87427723 5.7982795,11.4496034 C7.64720857,14.0249298 10.7306882,14.4412526 12.96875,12.4178454 C13.0144604,12.3742343 13.0775339,12.3742343 13.1232443,12.4178454 L14.3574438,13.6695862 C14.3781101,13.6900539 14.4044008,13.6992274 14.430455,13.6950619 C14.4565092,13.6908963 14.4801609,13.6737379 14.4961376,13.6474118 L15.8005618,11.6083717 C15.8342205,11.5543869 15.8271712,11.4762336 15.7847612,11.4331945 L15.7847612,11.4331945 Z M10.3730688,10.7995181 C8.69030899,11.187189 7.06372893,9.73286951 6.75298455,7.56302034 C6.44224017,5.3931712 7.56056882,3.31636308 9.24596208,2.93201512 C10.9313553,2.54766716 12.5526685,3.99866376 12.8660463,6.1685129 C13.1794241,8.33836204 12.058462,10.4118473 10.3730688,10.7995181 L10.3730688,10.7995181 Z M34.7708918,0.303433378 L32.444698,0.303433378 C32.3938031,0.301073605 32.3505998,0.351349855 32.3472612,0.416999409 L32.3472612,13.8830236 C32.3505548,13.9487013 32.3937861,13.9990102 32.444698,13.9965978 L34.7708918,13.9965978 C34.8217867,13.9989493 34.86499,13.9486732 34.8683286,13.8830236 L34.8683286,0.420401057 C34.8674146,0.38821574 34.856631,0.35782057 34.8383541,0.335913463 C34.8200773,0.314006355 34.7958071,0.302385207 34.7708918,0.303433378 Z M1.47735253,0.0410982012 C0.661429073,0.0410982012 0,0.875698158 0,1.90524117 C0,2.93478419 0.661429073,3.76938415 1.47735253,3.76938415 C2.29327598,3.76938415 2.95470506,2.93478419 2.95470506,1.90524117 C2.95470506,1.41083971 2.79905586,0.936687661 2.52199852,0.587093029 C2.24494118,0.23749841 1.86917078,0.0410982012 1.47735253,0.0410982012 Z M31.1156952,0.303422456 L28.6358848,0.303422456 C28.594469,0.303212188 28.5558836,0.330706867 28.5340589,0.376168661 L26.2306882,5.66153487 C26.2306882,5.66153487 26.2140098,5.70121479 26.1911868,5.70121479 C26.1683637,5.70121479 26.1516854,5.66153487 26.1516854,5.66153487 L23.8483146,0.376168661 C23.82649,0.330706867 23.7879045,0.303212188 23.7464887,0.303422456 L21.2675561,0.303422456 C21.2273324,0.303957991 21.1905814,0.333109039 21.1721514,0.379286337 C21.1537215,0.425463623 21.1566583,0.481036274 21.1797752,0.523551247 L24.866573,8.53096041 C24.9017747,8.60826807 24.9202667,8.69636062 24.9201193,8.78604565 L24.9201193,13.8582739 C24.9206014,13.9348451 24.9688005,13.9965868 25.0280898,13.9965868 L27.3595505,13.9965868 C27.4188399,13.9965868 27.467039,13.9348451 27.467521,13.8582739 L27.467521,8.78604565 C27.4673737,8.69636062 27.4858656,8.60826807 27.5210674,8.53096041 L31.2078651,0.523551247 C31.2316165,0.4802362 31.234269,0.423262516 31.2147075,0.376583847 C31.1951459,0.329905179 31.1567626,0.301616405 31.1156952,0.303422456 Z" id="形状"></path>
        </g>
    </g>
</svg>
