<svg width="70px" height="14px" viewBox="0 0 70 14" version="1.1" xmlns="http://www.w3.org/2000/svg" xmlns:xlink="http://www.w3.org/1999/xlink">
    <defs>
        <polygon id="path-dd8xca40ib-1" points="4.68308054e-17 3.68769989e-17 2.91478689 3.68769989e-17 2.91478689 3.40540421 4.68308054e-17 3.40540421"></polygon>
        <polygon id="path-dd8xca40ib-3" points="0 3.57590431e-16 8.48405171 3.57590431e-16 8.48405171 14 0 14"></polygon>
    </defs>
    <g id="页面-1" stroke="none" stroke-width="1" fill="none" fill-rule="evenodd">
        <g id="le" transform="translate(0.000000, 0.000000)">
            <path d="M44.8520642,12.3585282 L43.2809085,12.3585282 C43.1050536,12.3585282 42.9704531,12.3158013 42.9124173,12.2431214 C42.8543816,12.1704415 42.8204694,12.0008551 42.8204694,11.7779703 L42.8204694,8.49548321 C42.8204694,8.34175432 42.7218787,8.21753777 42.6002139,8.21753777 L42.0904797,8.21753777 C42.2743754,7.2929618 42.3236707,6.47234005 42.3236707,5.86050775 L42.3236707,3.05726734 C42.3236707,2.9039789 42.22508,2.77976241 42.1030657,2.77976241 L41.362238,2.77976241 C41.2402234,2.77976241 41.1409337,2.9039789 41.1409337,3.05726734 L41.1409337,5.86050775 C41.1409337,7.50131079 40.7839798,9.01084951 40.0791622,10.3468376 C39.3942724,11.6453846 38.5803758,12.3990527 38.155947,12.7329397 L38.149654,12.7391065 C38.0961633,12.7928455 38.0657471,12.8721327 38.0657471,12.9571459 C38.0657471,13.0082421 38.0769347,13.0571359 38.0968625,13.1003033 L38.5649929,13.8940555 L38.5670906,13.8984603 C38.6097432,13.9544019 38.6663804,13.9861167 38.7279121,13.9861167 C38.7719632,13.9861167 38.8146158,13.9680568 38.85587,13.9341396 C40.0781134,12.9100141 40.9996904,11.5766691 41.5961284,9.97022375 C41.6118609,9.92881825 41.6230485,9.88873421 41.6380818,9.84732873 L41.6380818,11.9418303 C41.6380818,12.9941466 42.3026939,13.8482452 43.1543485,13.8482452 L44.8520642,13.8482452 C44.9737294,13.8482452 45.0726693,13.7240287 45.0726693,13.5707403 L45.0726693,12.6364736 C45.0726693,12.4831852 44.9737294,12.3585282 44.8520642,12.3585282" id="Fill-1" fill="#E42112" fill-rule="nonzero"></path>
            <path d="M34.4370899,1.6526959 L37.8021047,1.6526959 C37.9237697,1.6526959 38.0223602,1.52803892 38.0223602,1.37563145 L38.0223602,0.44048384 C38.0223602,0.287195397 37.9237697,0.1629789 37.8021047,0.1629789 L34.4370899,0.1629789 C34.315425,0.1629789 34.2161352,0.287195397 34.2161352,0.44048384 L34.2161352,1.37563145 C34.2161352,1.52803892 34.315425,1.6526959 34.4370899,1.6526959" id="Fill-3" fill="#E42112" fill-rule="nonzero"></path>
            <path d="M38.9025083,9.38609788 L39.6436856,9.38609788 C39.7653506,9.38609788 39.8635915,9.26144093 39.8635915,9.10815245 L39.8635915,2.17933861 C39.8635915,1.90623851 39.9132364,1.65251971 40.2708894,1.65251971 L43.1897995,1.65251971 C43.4016642,1.65251971 43.5967475,1.71815183 43.5967475,2.17933861 L43.5967475,9.10815245 C43.5967475,9.26144093 43.6956878,9.38609788 43.8173526,9.38609788 L44.5588795,9.38609788 C44.6801951,9.38609788 44.7791354,9.26144093 44.7791354,9.10815245 L44.7791354,2.07009857 C44.7791354,1.07989046 44.1526305,0.163243192 43.2663643,0.163243192 L40.1918771,0.163243192 C39.346865,0.163243192 38.6819032,1.03143722 38.6819032,2.07009857 L38.6819032,9.10815245 C38.6819032,9.26144093 38.7808433,9.38609788 38.9025083,9.38609788" id="Fill-5" fill="#E42112" fill-rule="nonzero"></path>
            <path d="M32.4302475,7.63279527 C32.5508636,7.63279527 32.6508526,7.50813826 32.6508526,7.35573077 L32.6508526,6.42102363 C32.6508526,6.26817567 32.5508636,6.14263774 32.4302475,6.14263774 L28.4201986,6.14263774 L28.4201986,3.05792807 C28.4201986,2.90463963 28.3212584,2.77954216 28.1992439,2.77954216 L27.4584162,2.77954216 C27.3364016,2.77954216 27.2378111,2.90463963 27.2378111,3.05792807 L27.2378111,6.14263774 L23.6584841,6.14263774 C23.5665362,6.14263774 23.4780844,6.09374401 23.4151542,6.00829011 C23.3522241,5.92107427 23.3221575,5.80566749 23.3301985,5.68145094 C23.3319466,5.65502192 23.5882121,2.2571281 23.5903098,2.23598487 C23.6067416,2.0637556 23.7133732,1.87126409 23.908107,1.86069247 C23.9175466,1.86069247 31.5401355,1.54090105 31.718088,1.53297234 L31.7184376,1.53297234 L31.811784,1.52988896 C31.8701692,1.52724605 31.9250583,1.4955312 31.9656132,1.44223264 C32.0058186,1.38761261 32.0274945,1.31713517 32.0250472,1.24313385 L32.0019729,0.309307698 C31.9984767,0.158221672 31.9016343,0.0397314683 31.782067,0.0397314683 L31.47301,0.0516245375 C31.4716116,0.0516245375 31.4705627,0.0525055053 31.4695139,0.0525055053 C30.1182638,0.10976843 23.8546164,0.371856428 23.844128,0.372737397 C23.4515139,0.401368858 23.1050484,0.595181835 22.8421403,0.933033088 C22.5981111,1.24577675 22.4453307,1.66467707 22.4121176,2.10912546 C22.4058246,2.19413888 22.2383605,4.42607148 22.1537544,5.54666284 C22.1118009,6.08757723 22.2481496,6.60558646 22.5358802,7.00466498 C22.8239604,7.40374356 23.2319576,7.63279527 23.654988,7.63279527 L27.2378111,7.63279527 L27.2378111,11.77775 C27.2378111,12.0006349 27.2042483,12.1706618 27.1458631,12.2433416 C27.0878276,12.3160215 26.9535766,12.3587485 26.7777218,12.3587485 L25.6407838,12.3587485 C25.5187692,12.3587485 25.4198291,12.4834054 25.4198291,12.6362533 L25.4198291,13.5705201 C25.4198291,13.723368 25.5187692,13.848025 25.6407838,13.848025 L26.9039317,13.848025 C27.7555864,13.848025 28.4201986,12.994367 28.4201986,11.9416101 L28.4201986,7.63279527 L32.4302475,7.63279527 Z" id="Fill-7" fill="#E42112" fill-rule="nonzero"></path>
            <path d="M23.5346166,9.06093258 L22.7962362,8.97856206 C22.6728232,8.96446658 22.5672404,9.07899243 22.556752,9.23139987 L22.2732168,13.2754838 C22.2627284,13.4283317 22.3529283,13.5644413 22.473894,13.5772154 C22.473894,13.5772154 23.2255597,13.6600264 23.2318527,13.6600264 C23.346875,13.6600264 23.4416198,13.5516673 23.451409,13.4063075 L23.7349443,9.36310464 C23.7401884,9.28822235 23.7220086,9.21686393 23.6842505,9.15916051 C23.6461428,9.10233807 23.5930018,9.06798029 23.5346166,9.06093258" id="Fill-9" fill="#E42112" fill-rule="nonzero"></path>
            <path d="M32.0407099,8.93015287 C32.0305711,8.93015287 31.275759,9.06141711 31.275759,9.06141711 C31.2173738,9.07198873 31.1652816,9.10987037 31.1299708,9.16889519 C31.0939608,9.22836055 31.0789275,9.3023619 31.0873181,9.37504173 L31.5348214,13.4341021 C31.5498547,13.5710926 31.64425,13.6746063 31.7536785,13.6746063 C31.763118,13.6746063 32.5175806,13.5424612 32.5175806,13.5424612 C32.6388959,13.5208775 32.7224531,13.3808035 32.706371,13.2283961 L32.2588677,9.17021665 C32.2438344,9.03322615 32.1494392,8.93015287 32.0407099,8.93015287" id="Fill-11" fill="#E42112" fill-rule="nonzero"></path>
            <path d="M38.4038568,9.16845472 C38.4077025,9.09445343 38.3884739,9.023095 38.349667,8.9680345 L36.9907254,7.04532165 L37.6147827,6.1617107 C37.859511,5.81504977 38.1213703,5.2040984 38.1213703,4.52531253 L38.1213703,3.42674535 C38.1213703,3.01577375 37.8563645,2.68144636 37.529827,2.68144636 L34.4371598,2.68144636 C34.3154949,2.68144636 34.2165547,2.80654383 34.2165547,2.95895131 L34.2165547,3.89365843 C34.2165547,4.04606589 34.3154949,4.17072288 34.4371598,4.17072288 L36.9386332,4.17072288 L36.9386332,4.52531253 C36.9386332,4.75744761 36.8344488,5.02526188 36.7316629,5.17106213 L34.2508167,8.68171984 C34.2504671,8.68216036 34.2501174,8.68216036 34.2497678,8.68216036 L34.2057167,8.74603056 L34.1469819,8.82884156 L34.1469819,8.82928201 L34.0497898,8.9680345 C34.0106333,9.023095 33.9907054,9.09445343 33.9945511,9.16845472 C33.9976976,9.24333701 34.0239185,9.31073106 34.06762,9.35962479 L34.6224541,9.97982631 C34.6644076,10.0260771 34.7182478,10.0511847 34.7738361,10.0494228 C34.8353678,10.0467799 34.8930538,10.0133031 34.934308,9.95604016 L35.1073659,9.71025011 L35.6073109,9.00327321 L35.6073109,13.5706521 C35.6073109,13.7235001 35.7059015,13.8485976 35.8272169,13.8485976 L36.5687438,13.8485976 C36.6907583,13.8485976 36.7896985,13.7235001 36.7896985,13.5706521 L36.7896985,9.0006303 L37.4644495,9.95604016 C37.5053541,10.0133031 37.5637393,10.0467799 37.6249214,10.0494228 C37.6805097,10.0511847 37.7343499,10.0260771 37.7763034,9.97982631 L38.3304383,9.35962479 C38.3744894,9.31073106 38.4007103,9.24333701 38.4038568,9.16845472" id="Fill-13" fill="#E42112" fill-rule="nonzero"></path>
            <path d="M57.1000888,12.3585282 L55.5285835,12.3585282 C55.3530783,12.3585282 55.2184777,12.3158013 55.1607917,12.2431214 C55.1013576,12.1704415 55.0681444,12.0008551 55.0681444,11.7779703 L55.0681444,8.49548321 C55.0681444,8.34175432 54.9688547,8.21753777 54.8475392,8.21753777 L54.3385042,8.21753777 C54.5224,7.2929618 54.5716954,6.47322104 54.5716954,5.86050775 L54.5716954,3.05726734 C54.5716954,2.9039789 54.4724058,2.77976241 54.3514399,2.77976241 L53.609913,2.77976241 C53.4882482,2.77976241 53.3889582,2.9039789 53.3889582,3.05726734 L53.3889582,5.86050775 C53.3889582,7.50131079 53.0320045,9.01084951 52.3271868,10.3468376 C51.641598,11.6453846 50.8280509,12.3990527 50.4039717,12.7329397 L50.397329,12.7391065 C50.3445377,12.7928455 50.3134221,12.8721327 50.3134221,12.9571459 C50.3134221,13.0082421 50.3246099,13.0571359 50.3445377,13.1003033 L50.8130178,13.8940555 L50.8151155,13.8984603 C50.8574184,13.9544019 50.9144051,13.9861167 50.9759369,13.9861167 C51.0189392,13.9861167 51.0622911,13.9680568 51.103545,13.9341396 C52.3257885,12.9100141 53.2477153,11.5766691 53.8441533,9.97022375 C53.8581377,9.93146117 53.8724718,9.8926986 53.8857568,9.85393596 L53.8857568,11.9418303 C53.8857568,12.9941466 54.5500196,13.8482452 55.4023736,13.8482452 L57.1000888,13.8482452 C57.2214043,13.8482452 57.3213933,13.7240287 57.3213933,13.5707403 L57.3213933,12.6364736 C57.3213933,12.4831852 57.2214043,12.3585282 57.1000888,12.3585282" id="Fill-15" fill="#E42112" fill-rule="nonzero"></path>
            <path d="M46.6848001,1.6526959 L50.0491157,1.6526959 C50.1711302,1.6526959 50.2697209,1.52803892 50.2697209,1.37563145 L50.2697209,0.44048384 C50.2697209,0.287195397 50.1711302,0.1629789 50.0491157,0.1629789 L46.6848001,0.1629789 C46.5631349,0.1629789 46.4645446,0.287195397 46.4645446,0.44048384 L46.4645446,1.37563145 C46.4645446,1.52803892 46.5631349,1.6526959 46.6848001,1.6526959" id="Fill-17" fill="#E42112" fill-rule="nonzero"></path>
            <path d="M51.1501833,9.38609788 L51.8913606,9.38609788 C52.0126761,9.38609788 52.111616,9.26144093 52.111616,9.10815245 L52.111616,2.17933861 C52.111616,1.90623851 52.1605617,1.65251971 52.5189141,1.65251971 L55.4378242,1.65251971 C55.6489895,1.65251971 55.8447726,1.71815183 55.8447726,2.17933861 L55.8447726,9.10815245 C55.8447726,9.26144093 55.9433628,9.38609788 56.065727,9.38609788 L56.8058556,9.38609788 C56.9282197,9.38609788 57.0271601,9.26144093 57.0271601,9.10815245 L57.0271601,2.07009857 C57.0271601,1.07989046 56.4003059,0.163243192 55.5140397,0.163243192 L52.4395523,0.163243192 C51.5948896,0.163243192 50.9292285,1.03143722 50.9292285,2.07009857 L50.9292285,9.10815245 C50.9292285,9.26144093 51.0285186,9.38609788 51.1501833,9.38609788" id="Fill-19" fill="#E42112" fill-rule="nonzero"></path>
            <path d="M50.6517417,9.16845472 C50.6555874,9.09445343 50.6356596,9.023095 50.5968527,8.9680345 L49.2386104,7.04488118 L49.8630171,6.1617107 C50.1070465,5.81504977 50.3689055,5.2040984 50.3689055,4.52531253 L50.3689055,3.42674535 C50.3689055,3.01577375 50.1035501,2.68144636 49.7773622,2.68144636 L46.684695,2.68144636 C46.5630303,2.68144636 46.4644396,2.80654383 46.4644396,2.95895131 L46.4644396,3.89365843 C46.4644396,4.04606589 46.5630303,4.17072288 46.684695,4.17072288 L49.186518,4.17072288 L49.186518,4.52531253 C49.186518,4.75744761 49.0823336,5.02526188 48.9791983,5.17106213 L46.5000998,8.67995792 C46.4994008,8.68171984 46.4983518,8.68216036 46.4980025,8.68216036 L46.4340234,8.77290005 L46.3948668,8.82884156 L46.2973251,8.9680345 C46.2585182,9.023095 46.2382408,9.09445343 46.2420864,9.16845472 C46.2455824,9.24333701 46.2718033,9.31073106 46.3158546,9.35962479 L46.8703389,9.97982631 C46.9122926,10.0260771 46.9661325,10.0511847 47.0217209,10.0494228 C47.0832527,10.0467799 47.1409388,10.0133031 47.182193,9.95604016 L47.3321763,9.7437269 L47.8544964,9.00327321 L47.8544964,13.5706521 C47.8544964,13.7235001 47.9534368,13.8485976 48.0754513,13.8485976 L48.8169782,13.8485976 C48.9382937,13.8485976 49.037933,13.7235001 49.037933,13.5706521 L49.037933,9.00151129 L49.7123345,9.95604016 C49.7528894,10.0133031 49.8112744,10.0467799 49.8724565,10.0494228 C49.9283946,10.0511847 49.9818853,10.0260771 50.0238385,9.97982631 L50.5783232,9.35962479 C50.6227239,9.31073106 50.6489447,9.24333701 50.6517417,9.16845472" id="Fill-21" fill="#E42112" fill-rule="nonzero"></path>
            <path d="M64.694744,1.71291006 L66.6403342,1.71291006 L66.2008724,3.16386448 C65.3680964,3.18148384 64.7164198,4.04174916 64.7164198,5.06851743 L64.7164198,10.1882634 C64.7164198,10.3406708 64.8153601,10.4657683 64.9370249,10.4657683 L65.6313542,10.4657683 C65.7526697,10.4657683 65.852309,10.3406708 65.852309,10.1882634 L65.852309,5.11873261 C65.852309,4.84519203 65.9009049,4.5923542 66.258558,4.5923542 L67.9950806,4.5923542 C68.2062463,4.5923542 68.4016793,4.65534342 68.4016793,5.11873261 L68.4016793,10.1882634 C68.4016793,10.3406708 68.5002699,10.4657683 68.6226341,10.4657683 L69.316264,10.4657683 C69.4375795,10.4657683 69.5368691,10.3406708 69.5368691,10.1882634 L69.5368691,5.06851743 C69.5368691,4.07874982 68.910015,3.16254302 68.0233991,3.16254302 L67.4161234,3.16254302 L67.8555853,1.71291006 L69.4826795,1.71291006 C69.6046939,1.71291006 69.7032846,1.58781261 69.7032846,1.43496465 L69.7032846,0.561044325 C69.7032846,0.405993943 69.6046939,0.282217931 69.4826795,0.282217931 L64.694744,0.282217931 C64.5727295,0.282217931 64.4744885,0.405993943 64.4744885,0.561044325 L64.4744885,1.43496465 C64.4744885,1.58781261 64.5727295,1.71291006 64.694744,1.71291006" id="Fill-23" fill="#E42112" fill-rule="nonzero"></path>
            <path d="M64.2645815,7.02065456 C64.2712242,6.99378507 64.2778665,6.96691551 64.2778665,6.93740311 L64.2778665,6.8431395 C64.2778665,6.68985107 64.1785769,6.56519408 64.0576111,6.56519408 L63.3636315,6.56519408 C63.2653905,6.56519408 63.1839309,6.64756459 63.1556124,6.75988805 L63.1517667,6.75900706 C62.9996854,7.78841826 62.6584641,8.7381018 62.1403393,9.60277197 L62.1403393,5.53093756 L64.104459,5.53093756 C64.2264739,5.53093756 64.3250642,5.40539962 64.3250642,5.25211119 L64.3250642,4.37775038 C64.3250642,4.22490242 64.2264739,4.09980495 64.104459,4.09980495 L62.3644405,4.09980495 L62.3644405,2.57925406 L63.8188261,2.57925406 C63.9401416,2.57925406 64.0390816,2.45459708 64.0390816,2.30130864 L64.0390816,1.42694784 C64.0390816,1.27321891 63.9401416,1.14900241 63.8188261,1.14900241 L62.3644405,1.14900241 L62.3644405,0.332345014 C62.3644405,0.179056565 62.2658502,0.0535186189 62.1438353,0.0535186189 L61.4505551,0.0535186189 C61.3285402,0.0535186189 61.2292506,0.179056565 61.2292506,0.332345014 L61.2292506,4.09980495 L60.4412254,4.09980495 L60.4412254,1.07323916 C60.4412254,0.919510231 60.342285,0.794853248 60.2206203,0.794853248 L59.5266407,0.794853248 C59.4053252,0.794853248 59.3060356,0.919510231 59.3060356,1.07323916 L59.3060356,4.09980495 L58.8022445,4.09980495 C58.6809294,4.09980495 58.5816393,4.22490242 58.5816393,4.37775038 L58.5816393,5.25211119 C58.5816393,5.40539962 58.6809294,5.53093756 58.8022445,5.53093756 L61.0047998,5.53093756 L61.0047998,9.84635967 C61.0047998,9.9996481 61.1044391,10.1243051 61.2257546,10.1243051 L61.7977198,10.1243051 C61.5246726,10.5070857 61.2173639,10.872247 60.8674022,11.2158245 C59.8979285,12.1703534 58.9878884,12.6029087 58.9791484,12.6081946 L58.9798473,12.6090755 L58.8847531,12.6588502 C58.7763733,12.7147917 58.72533,12.8720445 58.77043,13.008154 L59.0448755,13.8358235 C59.0906744,13.9719331 59.2151362,14.0362438 59.3221176,13.9789809 L59.4451812,13.9137892 C59.4465795,13.9133487 59.4472788,13.9124678 59.4479778,13.9124678 C59.7056418,13.780763 60.5863144,13.2979926 61.5358603,12.3729761 C62.1889353,11.7360361 62.741672,11.0180472 63.1786869,10.2405929 C63.7314232,9.25523009 64.097467,8.17163938 64.2687768,7.02153555 L64.2645815,7.02065456 Z" id="Fill-25" fill="#E42112" fill-rule="nonzero"></path>
            <path d="M67.6944492,5.53102568 L67.6944492,5.4865368 L67.6944492,5.44248838 C67.6944492,5.28919996 67.5955093,5.16542395 67.4734944,5.16542395 L66.7802142,5.16542395 C66.6581997,5.16542395 66.5589097,5.28919996 66.5589097,5.44248838 L66.5589097,5.4865368 L66.5589097,5.53102568 L66.5589097,8.15146519 C66.5589097,9.51520377 66.1327329,10.6705934 65.291217,11.5854787 C64.6926813,12.2356331 64.0805109,12.5400076 63.9689845,12.5924252 C63.9672365,12.5933062 63.9658382,12.5928657 63.9637405,12.5937466 L63.8410267,12.6589384 C63.7329966,12.7148798 63.6812539,12.8721327 63.7267036,13.0082421 L64.0014983,13.8359116 C64.0465983,13.9720212 64.1714098,14.0363319 64.2787409,13.9790689 L64.3853722,13.922687 C64.6052784,13.8174113 65.3017054,13.4496072 65.9970833,12.7069511 C67.1071014,11.5207276 67.6944492,9.94511617 67.6944492,8.15146519 L67.6944492,5.53102568 Z" id="Fill-30" fill="#E42112" fill-rule="nonzero"></path>
            <path d="M59.5466735,9.87992452 L59.5914238,9.79314915 L59.5963181,9.79667307 C59.62184,9.74557689 60.2273676,8.53644824 60.5336276,7.07360078 L60.5220906,7.0696364 C60.539571,7.02955237 60.5521571,6.98638495 60.5521571,6.93705069 L60.5521571,6.84366809 C60.5521571,6.68993914 60.4539161,6.56528219 60.3319017,6.56528219 L59.6375724,6.56528219 C59.5547145,6.56528219 59.4844424,6.62518801 59.4466845,6.7115229 L59.4354967,6.70799899 C59.217339,7.75414859 58.8058455,8.67431973 58.6778877,8.94565792 C58.674042,8.95182468 58.6687976,8.95534855 58.6653016,8.96195579 L58.5929322,9.10202973 C58.5293027,9.22580574 58.5572716,9.39142776 58.6562119,9.4720363 L59.2543979,9.96009265 C59.3519395,10.0393798 59.483743,10.0037005 59.5466735,9.87992452" id="Fill-32" fill="#E42112" fill-rule="nonzero"></path>
            <g id="Fill-27-Clipped" transform="translate(67.085213, 10.436105)">
                <mask id="mask-dd8xca40ib-2" fill="white">
                    <use xlink:href="#path-dd8xca40ib-1"></use>
                </mask>
                <g id="path-nfznc5o0ik-3"></g>
                <path d="M2.84619302,2.2915051 L2.79130395,2.22631347 C2.78920628,2.22367057 2.78605977,2.2227896 2.78361249,2.22058717 C2.65390646,2.06201293 2.00957167,1.28940393 0.843965493,0.119918824 C0.843615881,0.119037855 0.843266269,0.118156887 0.842916656,0.116835435 L0.783133016,0.0591320268 C0.68733935,-0.0364530084 0.548193799,-0.0131073546 0.473376845,0.107144787 L0.0468502901,0.796061816 C-0.0283162751,0.917635406 -0.0111852907,1.09294805 0.0849579905,1.18765212 L0.122016856,1.22377181 C1.36348882,2.46681776 2.00537633,3.26145095 2.01097012,3.26982014 L2.01306779,3.26805822 L2.06446075,3.32840452 C2.15291257,3.43456118 2.29310695,3.43059682 2.3766642,3.31871388 L2.85353488,2.68485735 C2.93849057,2.57385537 2.93464484,2.3963403 2.84619302,2.2915051" id="Fill-27" fill="#E42112" fill-rule="nonzero" mask="url(#mask-dd8xca40ib-2)"></path>
            </g>
            <g id="logo">
                <path d="M11.0078282,5.15924591 C11.1402551,4.24758946 11.7790831,3.26607936 12.695125,2.7441794 C13.5935098,2.23429248 15.0025333,2.20403741 15.8281716,2.82693592 C16.3804806,3.24427792 16.7901215,4.0429228 16.0771344,4.38596191 C15.3740353,4.72321696 11.8588924,6.31605743 11.3655577,6.20393569 C11.1716845,6.1603328 10.8796388,6.03085889 11.0078282,5.15924591 M16.317975,10.8832383 C14.6324439,11.7081339 13.5200569,11.235176 13.1520864,11.0558702 C11.694683,10.3466558 11.2610286,8.66749934 11.2610286,8.66749934 C11.2610286,8.66749934 16.1318709,6.67466899 17.3371333,6.01261691 C18.6409215,5.29583865 18.6758822,5.04801404 18.6758822,5.04801404 C18.0169254,2.26454755 15.9771961,0.257034622 13.5539583,0.257034622 C10.5988936,0.257034622 8.20284735,3.27586777 8.20284735,6.99902118 C8.20284735,10.7235093 10.5988936,13.7423424 13.5539583,13.7423424 C16.0195728,13.7423424 18.0960284,11.6409498 18.71614,8.7831805 C17.758781,9.84744706 17.5165278,10.2968238 16.317975,10.8832383" id="Fill-34" fill="#E42112" fill-rule="nonzero"></path>
                <g id="Fill-36-Clipped">
                    <mask id="mask-dd8xca40ib-4" fill="white">
                        <use xlink:href="#path-dd8xca40ib-3"></use>
                    </mask>
                    <g id="path-nfznc5o0ik-5"></g>
                    <path d="M7.80214084,11.6467784 L3.8367462,11.6467784 L3.83639306,11.6463335 C3.56482939,11.6374349 3.34658966,11.3629147 3.34023316,11.0216553 L3.33952689,11.0207654 L3.33952689,0.863070383 C3.33952689,0.385663167 3.03335563,-8.89850908e-05 2.65443779,-8.89850908e-05 L0.686748859,-8.89850908e-05 C0.308184157,-8.89850908e-05 0.00165975196,0.385663167 0.00165975196,0.863070383 L0.00165975196,12.4676697 C0.00130661325,12.4801277 -0.000105941615,12.4925856 -0.000105941615,12.5059335 L-0.000105941615,13.140845 C-0.000105941615,13.6151377 0.305005908,14 0.682158057,14 L0.686748859,14 L2.65443779,14 L7.80214084,14 C8.1785867,14 8.48405171,13.6151377 8.48405171,13.140845 L8.48405171,12.5059335 C8.48405171,12.0311958 8.1785867,11.6467784 7.80214084,11.6467784" id="Fill-36" fill="#E42112" fill-rule="nonzero" mask="url(#mask-dd8xca40ib-4)"></path>
                </g>
            </g>
        </g>
    </g>
</svg>
