<svg width="70px" height="14px" viewBox="0 0 70 14" version="1.1" xmlns="http://www.w3.org/2000/svg" xmlns:xlink="http://www.w3.org/1999/xlink">
    <g id="页面-1" stroke="none" stroke-width="1" fill="none" fill-rule="evenodd">
        <g id="mgtv" transform="translate(0.000000, 0.000000)" fill-rule="nonzero">
            <path d="M33.6974637,1.33788396 L35.6524266,1.33788396 L35.5302414,2.62798635 L33.5752785,2.62798635 L33.4123649,4.06143344 L31.3352168,4.06143344 L31.4981303,2.62798635 L24.9408588,2.62798635 L24.7779453,4.06143344 L22.7007972,4.06143344 L22.8637107,2.62798635 L21.2753034,2.62798635 L21.4382169,1.33788396 L23.0266243,1.33788396 L23.1895379,0 L25.266686,0 L25.1037724,1.33788396 L31.5795872,1.33788396 L31.7425008,0 L33.8196489,0 L33.6974637,1.33788396 Z M48.4818709,2.29351536 L48.6040561,1.29010239 L44.7348586,1.29010239 L44.5312167,3.05802048 L48.400414,3.05802048 L48.4818709,2.29351536 Z M47.3007474,5.8771331 C47.7894882,5.8771331 48.1560437,5.44709898 48.1967721,4.92150171 L48.2782289,4.15699659 L44.4090314,4.15699659 L44.2053895,5.92491467 L47.3007474,5.92491467 L47.3007474,5.8771331 Z M38.2997722,5.8771331 L42.1282414,5.8771331 L42.3318833,4.10921502 L38.5034142,4.10921502 L38.4219574,4.87372013 L38.2997722,5.8771331 Z M39.6030809,1.29010239 C39.1143402,1.29010239 38.7477846,1.72013651 38.7070562,2.24573378 L38.6255994,3.0102389 L42.4540684,3.0102389 L42.6577105,1.24232082 L39.6030809,1.24232082 L39.6030809,1.29010239 Z M48.7669696,0 L50.559019,0 L50.559019,0 L50.559019,0 L50.4368338,1.29010239 L50.4368338,1.29010239 L50.0295499,4.63481229 L49.948093,5.35153583 C49.7037227,6.35494881 48.8891548,7.11945393 47.9524017,7.11945393 L44.1239327,7.11945393 L44.0017475,8.1228669 L49.6629943,8.1228669 L49.5000808,9.41296929 L46.6898215,9.41296929 L47.9524017,11.5153584 C47.9931302,11.56314 48.400414,12.3754266 48.6447845,12.5187714 C48.807698,12.6143345 49.1335252,12.6143345 49.1335252,12.6143345 L48.9706116,13.9044369 L48.2375005,13.9044369 C48.0338586,13.9044369 47.8302165,13.9044369 47.7080314,13.8566553 C46.9749202,13.5221843 44.7348586,9.46075086 44.7348586,9.46075086 L43.8388339,9.46075086 L43.3093648,13.9522184 L41.2322167,13.9522184 L41.7616858,9.46075086 L40.7842043,9.46075086 L38.3405006,12.5187714 C37.8517599,13.1399318 37.3222908,13.7610922 36.6299081,13.9522184 L35.6116983,13.9522184 L35.7746118,12.6621161 C35.7746118,12.6621161 35.9375253,12.6621161 36.0189821,12.566553 C36.2633525,12.3754266 36.7113649,11.8498293 36.8742784,11.6109215 L38.6663278,9.46075086 L36.1411674,9.46075086 L36.2633525,8.17064847 L41.8838709,8.17064847 L42.0060561,7.1672355 L38.1368587,7.1672355 L38.1368587,7.1672355 L36.3448093,7.1672355 L36.3448093,7.1672355 L36.3448093,7.1672355 L36.4669945,5.8771331 L36.4669945,5.8771331 L36.8742784,2.53242321 L36.9557352,1.81569966 C37.2001056,0.812286691 38.0146734,0.0477815592 38.9514265,0.0477815592 L48.7669696,0.0477815592 L48.7669696,0 Z M29.0136983,4.06143344 L29.3395255,5.8771331 L35.1229575,5.8771331 L35.0007723,7.1672355 L24.4113897,7.1672355 L23.9633774,11.2286689 C23.922649,11.9931741 24.3299329,12.6143345 24.9408588,12.7098976 L34.3083896,12.7098976 L34.145476,14 C33.4530933,14 31.25376,14 23.922649,14 C22.6193403,13.9044369 21.6825873,12.9010239 21.8455009,11.2764505 L22.3342416,7.21501706 L20.7458343,7.21501706 L20.9087478,5.92491467 L27.3031057,5.92491467 L26.9772786,4.10921502 L29.0136983,4.10921502 L29.0136983,4.06143344 Z M57.9443953,0 C57.9036669,0.286689421 57.8222101,1.38566552 57.6592964,2.72354948 L59.6142594,2.72354948 L59.4920742,4.06143344 L57.4963829,4.06143344 C57.1705557,7.07167236 56.8040002,10.6552901 56.8040002,10.6552901 C56.7632719,11.1808873 56.8040002,11.56314 56.885457,11.8498293 C56.9669138,12.1365188 57.1298273,12.327645 57.292741,12.4232082 C57.4963829,12.5187714 57.7000249,12.6143345 57.9036669,12.6143345 C57.9851236,12.6143345 58.5553211,12.6143345 58.9218767,12.6143345 L58.7589632,14 C58.1480372,14 57.0076422,14 56.8040002,14 C56.2338027,14 55.8265188,13.9044369 55.5006916,13.7610922 C55.1748644,13.6177474 54.9304941,13.331058 54.7675805,12.996587 C54.6046669,12.6621161 54.5639385,12.1365188 54.6046669,11.5153584 C54.6046669,11.4675768 55.0526792,7.40614335 55.4192348,4.10921502 L53.7493707,4.10921502 C53.7900991,3.77474402 53.8308274,3.3447099 53.9122842,2.72354948 L55.6636051,2.72354948 C55.8265188,1.33788396 55.9487039,0.286689421 55.9487039,0 L57.9443953,0 L57.9443953,0 Z M67.71921,2.72354948 L70,2.72354948 L65.8049754,13.0921502 C65.5198766,13.5699658 65.1125926,14 64.5423951,14 L64.4609384,14 L62.872531,14 L60.184457,2.72354948 L62.1801483,2.72354948 L64.3387532,12.1365188 L67.71921,2.72354948 Z" id="形状" fill="#000000"></path>
            <path d="M14,9.76818182 C14,9.73636363 14,9.73636363 14,9.70454546 L14,9.70454546 L14,5.40909091 L14,5.40909091 C14,4.99545454 13.7042254,4.64545454 13.3098592,4.51818182 L13.3098592,4.51818182 L11.8638498,4.10454546 L11.8638498,4.10454546 L9.79342724,8.33636363 L7.62441315,2.92727272 L7.62441315,2.92727272 L5.38967138,2.32272728 L5.38967138,2.32272728 L5.38967138,2.32272728 C5.29107983,2.29090909 5.19248828,2.29090909 5.09389673,2.29090909 C4.46948358,2.29090909 3.94366198,2.8 3.94366198,3.40454546 L3.94366198,3.40454546 L3.94366198,9.83181818 L3.94366198,9.83181818 C3.94366198,10.4045454 4.43661973,10.8818182 5.02816903,10.8818182 C5.06103288,10.8818182 5.09389673,10.8818182 5.12676058,10.8818182 L5.12676058,10.8818182 L6.04694838,10.7863637 L6.04694838,10.7863637 L6.04694838,10.7863637 L6.04694838,4.07272728 L8.64319254,10.5636363 L8.64319254,10.5636363 L10.6150235,10.3727272 L10.6150235,10.3727272 L10.6150235,10.3727272 L10.6150235,10.3727272 L10.6150235,10.3727272 L13.0469484,5.40909091 L13.0469484,8.97272728 L13.0469484,8.97272728 C13.0469484,8.97272728 13.0469484,9.00454546 13.0469484,9.00454546 C13.0469484,10.2772727 12.0610329,11.3909091 10.7464789,11.55 L4.50234743,12.1545454 C4.43661973,12.1545454 4.40375589,12.1545454 4.33802818,12.1545454 C3.25352114,12.1545454 2.36619719,11.2954546 2.36619719,10.2454545 L2.36619719,10.2136364 L2.36619719,3.11818182 L2.36619719,3.08636363 C2.36619719,1.94090909 3.31924884,1.01818182 4.50234743,1.01818182 C4.73239438,1.01818182 4.92957748,1.05 5.15962443,1.11363637 L12.5211268,3.15 L12.5211268,3.15 C12.5539906,3.15 12.5868545,3.18181818 12.6525822,3.18181818 C12.8826291,3.18181818 13.0469484,3.02272728 13.0469484,2.8 C13.0469484,2.64090909 12.9483569,2.48181818 12.7840376,2.45 L12.7840376,2.45 L12.7840376,2.45 L4.79812208,0.222727272 C4.40375589,0.0636363637 3.97652584,1.13686838e-13 3.54929578,1.13686838e-13 C1.61032864,1.13686838e-13 0,1.55909091 0,3.43636363 L0,10.8181818 L0,10.8181818 C0,12.5681818 1.47887325,14 3.28638499,14 C3.38497653,14 3.48356809,14 3.54929578,14 L3.54929578,14 L10.6807512,13.3318182 L10.6807512,13.3318182 C10.6807512,13.3318182 10.6807512,13.3318182 10.6807512,13.3318182 L10.6807512,13.3318182 L10.6807512,13.3318182 C12.5868545,13.1090909 14,11.5818182 14,9.76818182" id="路径" fill="#ED6A2C"></path>
        </g>
    </g>
</svg>
