<svg width="70px" height="14px" viewBox="0 0 70 14" version="1.1" xmlns="http://www.w3.org/2000/svg" xmlns:xlink="http://www.w3.org/1999/xlink">
    <g id="页面-1" stroke="none" stroke-width="1" fill="none" fill-rule="evenodd">
        <g id="pptv" transform="translate(0.100000, 0.000000)" fill-rule="nonzero">
            <g id="视频" transform="translate(40.003660, 0.000000)" fill="#009BFF">
                <path d="M20.1522534,0.000469178592 C20.6401916,0.0391363622 20.9021584,0.254472539 20.9401536,0.64581104 L20.9401536,1.46648855 L22.1773302,1.46648855 C22.3019811,1.4784887 22.3879702,1.50515572 22.4652937,1.5464896 C22.402635,0.977148744 22.6086089,0.664477946 23.1338757,0.586476923 L29.377085,0.586476923 C29.7523708,0.625144095 29.9590114,0.899147721 29.9963399,1.40782111 C29.9590114,1.91649449 29.7523708,2.17049785 29.377085,2.17049785 L26.9033983,2.17049785 C26.8347404,2.6798379 26.843406,2.68783801 26.7500844,3.40251412 L28.4785322,3.40251412 C29.1157848,3.40251412 29.4344111,3.7345185 29.4344111,4.39919395 L29.4344111,9.97260089 C29.3970825,10.4812743 29.1344491,10.7546113 28.6471775,10.7939451 C28.1592393,10.7939451 27.9159367,10.5406084 27.9159367,10.031935 L27.9159367,5.10386992 C27.8808256,5.02787647 27.821196,4.96589049 27.7466248,4.92786759 L24.7096762,4.92786759 C24.5963571,4.96653478 24.5403643,5.02520222 24.5403643,5.10386992 L24.5403643,10.031935 C24.5030357,10.5006079 24.2590666,10.7546113 23.8091236,10.7939451 C23.3225185,10.7546113 23.0778829,10.5006079 23.0778829,10.031935 L23.0778829,4.51652883 C23.0405542,3.77385236 23.3965091,3.40251412 24.1470808,3.40251412 L25.1029597,3.40251412 C25.1402882,3.20651153 25.2342764,2.32649991 25.271605,2.17049785 L23.1345424,2.17049785 C23.0085583,2.17049785 22.9652304,2.18983143 22.8532446,2.1118304 C22.8532446,2.69850482 22.6279398,2.99184202 22.1779968,2.99184202 L20.9408201,2.99184202 L20.9408201,4.45852807 L22.4033016,4.45852807 C22.7405922,4.49719524 22.9279018,4.77186554 22.9652304,5.27920558 C22.9279018,5.78787895 22.7405922,6.04188231 22.4033016,6.04188231 L20.9408201,6.04188231 L20.9408201,9.44459396 C21.0154774,9.17125698 21.4654204,7.43056733 21.5034156,7.27389859 C21.6533966,6.8438929 21.9533586,6.72655803 22.4033016,6.92189394 C22.7779208,7.15723038 22.9279018,7.50856835 22.8532446,7.97790789 C22.2906492,11.3419523 20.6401916,13.3366453 17.9032049,13.961987 C17.3032809,14.0793218 16.9279951,13.9233198 16.778014,13.4926474 C16.7033569,12.9846407 16.9466594,12.632636 17.5092548,12.4366334 C18.8590838,12.0066277 19.7589699,11.4786208 20.2089129,10.8526125 C19.7223078,10.8526125 19.4783387,10.6179427 19.4783387,10.1486032 L19.4783387,6.04188231 L17.3972689,6.04188231 C16.9466594,6.04188231 16.7033569,5.78854563 16.6653617,5.27920558 C16.7033569,4.77119887 16.9466594,4.49719524 17.3972689,4.45852807 L17.3972689,1.34915366 C17.3972689,0.957815158 17.6219072,0.722478716 18.0718503,0.64514436 C18.5591218,0.683811544 18.8217553,0.898481041 18.8590838,1.29048622 L18.8590838,4.45852807 L19.4776722,4.45786139 L19.4776722,0.704478478 C19.4776722,0.313139977 19.7023104,0.078470214 20.1522534,0.000469178592 Z M26.2274839,5.63187689 C26.7147556,5.67054408 26.977389,5.92521411 27.0147176,6.39455364 C27.0147176,7.52790194 26.977389,8.36924639 26.9027318,8.91658695 C26.834031,9.47250155 26.7210189,10.0220359 26.5647746,10.559942 C27.5049937,11.1225917 28.4426623,11.6894939 29.3777516,12.2606312 C29.8650233,12.5739686 30.0150042,12.9646405 29.8276946,13.4339799 C29.5277326,13.8646524 29.1337825,13.9426533 28.6465109,13.6686497 L25.8901934,11.9672939 C24.6523501,13.0233079 23.602483,13.6686497 22.7399257,13.9033195 C22.1400016,13.9813205 21.7467181,13.8253184 21.5587419,13.4339799 C21.4460895,12.9259733 21.6333991,12.5933022 22.1213373,12.4366334 C23.5458235,11.849959 24.4650405,11.2046172 24.8776548,10.5006079 C25.3275979,9.83593246 25.5335719,8.48658127 25.4962432,6.45322108 C25.5335719,5.94454769 25.7775409,5.67054408 26.2274839,5.63187689 Z M18.5211266,6.56988929 C18.8957458,6.68722417 19.0650577,7.00056164 19.0277291,7.50923503 C18.8024243,8.60391615 18.5957839,9.44459396 18.4084743,10.031935 C18.2218312,10.5786089 17.8858737,10.9292802 17.4525953,10.7939451 C16.9806551,10.6246095 16.8140095,10.5252749 17.0026522,9.73793109 C17.0773095,9.3472593 17.1899618,8.81925233 17.3399429,8.15391021 C17.4899239,7.60656965 17.583912,7.254565 17.6212406,7.09789626 C17.7712216,6.66789058 18.0711836,6.49188825 18.5211266,6.56988929 Z M3.19773402,0.547809739 C4.01629706,1.64182419 3.90831071,1.94049481 3.48036491,2.32649991 L4.53156507,2.32649991 C5.11615779,2.36516708 5.35012811,2.73317194 5.23347628,3.42851446 C4.882854,4.43386107 4.35692053,5.49720845 3.65500945,6.61922327 C4.16161198,6.96722787 4.70754281,7.41190041 5.29146887,7.95257422 C5.62476005,8.3172457 5.52477265,8.70658417 5.17481703,9.05525545 C4.74620457,9.44192719 4.4869041,9.41192683 4.12295021,9.11325622 C3.87812686,8.91153538 3.66194139,8.67737647 3.48036491,8.41724702 L3.48036491,13.5299812 C3.48036491,13.7899847 3.2683918,14 3.00709159,14 L2.37517163,14 C2.25006661,14.0005188 2.12988412,13.9512777 2.0411088,13.8631152 C1.95233336,13.7749525 1.90225094,13.6551043 1.90189819,13.5299812 L1.90189819,8.64925008 C1.86323643,8.68791727 1.64859693,8.93925392 1.49328321,9.05525545 C0.986680802,9.44192719 0.558068342,9.48059436 0.208112725,9.17125698 C-0.103847785,8.78458521 -0.06518602,8.35924626 0.324764559,7.89457345 C1.5712734,6.61922327 2.50648827,5.42054077 3.12974263,4.29852595 C3.28505635,3.98985521 3.26572541,3.8351865 3.07108339,3.8351865 L1.02667565,3.8351865 C0.520073234,3.8351865 0.24677449,3.58318317 0.208779265,3.08050986 C0.286102794,2.61650373 0.578732479,2.36516708 1.08466835,2.32716659 L2.31184625,2.32716659 C1.99988574,2.05582967 1.79924451,1.73249206 1.57193994,1.34048688 C1.28330984,0.841813631 1.29864119,0.470475384 1.72725365,0.238472328 C2.155866,-0.0708650937 2.69379789,-0.181533218 3.19773402,0.547809739 Z M9.32362484,3.48718191 C9.83022737,3.5251824 10.1221904,3.75718547 10.2001805,4.1831911 L10.2001805,4.58852978 C10.2001805,5.47787486 10.1421879,6.4445543 10.0248694,7.48856808 C10.6867855,7.33389938 11.0567387,7.54656885 11.1347288,8.12724319 L11.1347288,11.5492884 C11.1347288,12.0519617 11.2373825,12.1819635 11.6613288,12.1819635 C12.3859037,12.1399629 12.4065677,12.1039624 12.433231,11.6119558 C12.4745591,10.9952811 12.44123,11.4386203 12.4952232,10.6272762 C12.5265526,10.1559367 12.6738672,9.96393407 13.1804697,9.9252669 C13.6870723,9.9252669 13.9597044,10.1379364 13.9983661,10.5632754 C13.9983661,11.9166265 13.8623833,12.7673044 13.5897513,13.1153091 C13.2777908,13.540648 12.6352054,13.7533175 11.6606622,13.7533175 C10.1028595,13.7919847 9.55759528,13.4146464 9.55759528,12.4192999 L9.55759528,9.51926154 C8.85635074,11.5299548 7.39520239,12.9606404 5.17481703,13.8113183 C4.62955274,13.965987 4.2402687,13.869319 4.00629826,13.5213145 C3.77232794,13.0186411 3.86964895,12.6513029 4.29826129,12.4192999 C6.0127109,11.7232907 7.14190113,10.7946118 7.68716542,9.63526305 C8.23242972,8.70725085 8.52505929,6.86989325 8.56372105,4.12452366 C8.60304947,3.69918471 8.85635074,3.48718191 9.32362484,3.48718191 Z M11.8366399,0.876480747 C12.7325265,0.876480747 13.1611388,1.24448561 13.1218105,1.97849531 L13.1218105,8.41724702 C13.0831487,8.88125315 12.790519,9.11325622 12.2452549,9.11325622 C11.7386523,9.07458903 11.4853511,8.82325238 11.4853511,8.35924626 L11.4853511,2.79117271 C11.4853511,2.55850297 11.4080275,2.44316811 11.2520473,2.44316811 L7.51252088,2.44316811 C7.31721233,2.48183528 7.21989132,2.57783656 7.21989132,2.73250527 L7.21989132,8.35924626 C7.18122955,8.86191957 6.88859998,9.11258954 6.34333569,9.11258954 C5.83673316,9.07458903 5.5834319,8.8039188 5.5834319,8.30124549 L5.58409844,8.30124549 L5.58409844,1.92116122 C5.54477013,1.22448535 5.95405165,0.876480747 6.8106098,0.876480747 L11.8366399,0.876480747 Z" id="形状"></path>
            </g>
            <g id="p-2">
                <rect id="矩形" fill="#009BFF" x="0" y="5.15789474" width="4.27118644" height="8.84210526"></rect>
                <rect id="矩形" fill="#FFBE00" x="0" y="0" width="4.27118644" height="3.31578947"></rect>
                <path d="M6.88135592,0 C10.8128745,0 14,2.47421585 14,5.52631579 C14,8.50397426 10.9664481,10.9315944 7.16766409,11.0482435 L6.88135592,11.0526315 L6.88135592,8.28947368 L6.88135592,8.28947368 C8.84711521,8.28947368 10.440678,7.05236576 10.440678,5.52631579 C10.440678,4.00026583 8.84711521,2.76315789 6.88135592,2.76315789 L6.88135592,0 Z" id="形状结合" fill="#009BFF"></path>
            </g>
            <g id="p-1" transform="translate(18.664051, 0.000000)">
                <rect id="矩形" fill="#009BFF" x="0" y="5.15789474" width="4.27118644" height="8.84210526"></rect>
                <rect id="矩形" fill="#FFBE00" x="0" y="0" width="4.27118644" height="3.31578947"></rect>
                <path d="M6.88135592,0 C10.8128745,0 14,2.47421585 14,5.52631579 C14,8.50397426 10.9664481,10.9315944 7.16766409,11.0482435 L6.88135592,11.0526315 L6.88135592,8.28947368 L6.88135592,8.28947368 C8.84711521,8.28947368 10.440678,7.05236576 10.440678,5.52631579 C10.440678,4.00026583 8.84711521,2.76315789 6.88135592,2.76315789 L6.88135592,0 Z" id="形状结合" fill="#009BFF"></path>
            </g>
        </g>
    </g>
</svg>
