
<svg width="70px" height="14px" viewBox="0 0 70 14" version="1.1" xmlns="http://www.w3.org/2000/svg" xmlns:xlink="http://www.w3.org/1999/xlink">
    <defs>
        <polygon id="path-c46fes-jls-1" points="0 0 2.6893375 0 2.6893375 10.9372891 0 10.9372891"></polygon>
    </defs>
    <g id="页面-1" stroke="none" stroke-width="1" fill="none" fill-rule="evenodd">
        <g id="tencent" transform="translate(0.515818, 0.000000)">
            <g id="logo">
                <g id="Clipped" transform="translate(2.168887, 0.000000)" fill="#0098FF" fill-rule="nonzero">
                    <path d="M0.181562116,10.53801 C0.493339596,12.8843184 0.86714395,14.6487747 3.30467698,13.7708216 C5.6411596,12.9293186 7.8909689,11.4411633 9.86597038,9.75140725 C10.5725017,9.07505483 11.8064669,8.12510144 11.8311133,7.00009742 C11.8064669,5.8750934 10.5725017,4.92469001 9.86597038,4.24878759 C7.8909689,2.55858156 5.6411596,1.07042624 3.30467698,0.228923237 C0.866733181,-0.648129895 0.492928822,1.11587641 0.181562116,3.46173478 C0.0271110852,4.62363893 0,5.82334322 0,7.00009742 C0,8.17685162 0.0271110852,9.37610591 0.181562116,10.53801" id="路径"></path>
                </g>
                <g id="Clipped" transform="translate(0.000000, 1.531227)">
                    <mask id="mask-c46fes-jls-2" fill="white">
                        <use xlink:href="#path-c46fes-jls-1"></use>
                    </mask>
                    <g id="path-i2426q6y3a-3"></g>
                    <path d="M0.224693389,2.37015846 C0.492107274,0.817202919 0.89343349,-0.309601106 2.6893375,0.0765002732 C2.53776189,0.610652181 2.44164076,1.24605445 2.35044893,1.93050689 C2.1959979,3.09286105 2.16888682,4.29211533 2.16888682,5.46886953 C2.16888682,6.64562373 2.1959979,7.84487802 2.35044893,9.00678217 C2.44164076,9.69123461 2.53776189,10.3266369 2.6893375,10.8607888 C0.89343349,11.2477902 0.492107274,10.1209861 0.224693389,8.5675806 L0.20538701,8.4573302 L0.168828122,8.2327794 C0.0254679891,7.32512616 0,6.38822282 0,5.46886953 C0,4.54951625 0.0254679891,3.6126129 0.169238896,2.70450966 L0.206208557,2.48040886 L0.224693389,2.37015846 Z" id="路径" fill="#FF8800" fill-rule="nonzero" mask="url(#mask-c46fes-jls-2)"></path>
                </g>
                <path d="M2.68892673,1.60772816 C2.81380203,1.63472826 2.94566049,1.66847838 3.08409133,1.71032853 C5.26530137,2.36778088 7.36476738,3.53013503 9.20832119,4.85043974 C9.8676135,5.37919163 11.0198346,6.12124428 11.0424272,7.00009742 C11.0194238,7.87895056 9.8676135,8.62145321 9.20832119,9.1497551 C7.36476738,10.4700598 5.26489059,11.6324139 3.08409133,12.2898663 C2.94566049,12.3317164 2.8142128,12.3654666 2.6893375,12.3924667 C2.53776189,11.8583148 2.44164076,11.2229125 2.35085971,10.53801 C2.1959979,9.37610591 2.16888682,8.17685162 2.16888682,7.00009742 C2.16888682,5.82334322 2.1959979,4.62408894 2.35085971,3.46218479 C2.44122999,2.78178236 2.53652956,2.1499801 2.68646208,1.6176282 L2.68892673,1.60772816 L2.68892673,1.60772816 Z" id="路径" fill="#43E700" fill-rule="nonzero"></path>
                <path d="M3.97588173,4.76943945 C3.97588173,4.76943945 3.84525558,5.01064032 3.84525558,7.00459744 C3.84525558,9.00260457 3.97588173,9.23210539 3.97588173,9.23210539 C4.02106687,9.47960628 4.11431257,9.55745655 4.35297227,9.49535633 C4.35297227,9.49535633 4.7526554,9.42515608 6.35919258,8.51750284 C7.96531899,7.60534958 8.23437597,7.26739838 8.23437597,7.26739838 C8.40607952,7.07299768 8.45085388,6.94474722 8.23437597,6.73864649 C8.23437597,6.73864649 7.79361546,6.28459487 6.35919258,5.45929192 C4.93955757,4.642089 4.35297227,4.50573851 4.35297227,4.50573851 C4.15538997,4.44363829 4.0284608,4.51383854 3.97588173,4.76943945" id="路径" fill="#FFFFFF" fill-rule="nonzero"></path>
            </g>
            <path d="M30.1060277,5.31100361 C30.1439673,5.5414134 30.464557,6.24306333 30.5859637,6.38084606 L26.9726903,6.38084606 C27.2984966,6.07286112 27.631891,5.61377829 27.8287027,5.31042469 L30.1060277,5.31042469 L30.1060277,5.31100361 Z M30.4830525,8.10370923 L30.3184895,9.09771329 L26.4002764,9.09771329 L26.7028448,7.43447879 L30.0884806,7.43447879 C30.6367079,7.43447879 30.5105587,7.92424433 30.4830525,8.10370923 L30.4830525,8.10370923 Z M33.099937,0.11462598 L32.0556493,0.11462598 C31.5899406,0.855063472 30.6993083,2.01463839 30.147287,2.30525577 L29.4809726,2.30525577 C29.6213492,2.02505893 30.3863065,0.11462598 30.3863065,0.11462598 L29.3078731,0.11462598 L28.4181893,2.25199521 C27.7827009,1.72344209 27.5076387,0.830169951 27.2814238,0.11462598 L26.1337507,0.11462598 C26.2812409,0.639705573 26.5439727,1.724021 27.0499922,2.25894224 L25.4607969,2.25894224 L25.2573457,3.32415334 L27.8552604,3.32415334 C27.6859549,3.6477691 27.5379904,3.93549188 27.310827,4.24174007 L24.7072214,4.24174007 L24.5037702,5.26700576 L26.5819123,5.26700576 C25.9113297,6.12322708 24.9903457,6.79129969 24.2713901,6.79129969 L24.0617738,7.93929623 C24.0617738,7.93929623 25.1762498,7.68688751 25.7287454,7.34590417 L25.4081557,9.15734196 C25.3066672,9.69921021 25.4228573,10.1027168 25.8643795,10.1027168 L30.222692,10.1032957 C30.5731591,10.1032957 30.6661111,10.4066493 30.582644,10.8587851 L30.3308198,12.0426746 C30.2022994,12.6169624 29.9831982,12.9243683 29.5933687,12.9243683 L25.6998164,12.9243683 L25.4304452,13.8969524 L29.4283314,13.8969524 C30.3322426,13.8969524 30.9805356,13.7967995 31.2247719,12.5422818 L31.7070791,9.87230702 C31.7810614,9.4769053 31.4950916,9.15328953 31.2062763,9.1556052 L31.4799157,7.42695284 C31.7037594,7.63941615 31.9864095,7.83277511 32.2576777,7.93350703 L32.5782674,7.11086303 C32.0020596,6.77277428 31.3291058,6.02249516 31.1498411,5.27279496 L32.8168127,5.27279496 L33.0278517,4.20758385 L28.5576174,4.20758385 L29.0138412,3.30678577 L32.6702709,3.30678577 L32.8685054,2.26531035 L31.5899406,2.26531035 C32.1732621,1.63834099 32.660786,0.887482941 33.099937,0.11462598 L33.099937,0.11462598 Z M52.7787376,12.6783278 C52.7787376,12.6534343 52.7811088,12.626225 52.7858512,12.5943845 L53.6119862,7.26601334 L53.2136203,7.26601334 L54.0440235,2.17731464 L53.0647074,2.17731464 L52.2333557,7.4165323 C52.2058495,7.50915934 52.034647,8.09676221 51.6988815,8.84240998 C51.3318157,9.65579128 50.773155,10.6457429 50.0153113,11.3589712 C49.2963558,12.0316752 48.7206222,12.4154985 48.327473,12.6291196 C48.1818527,12.7094687 48.0323447,12.7788756 47.8797856,12.8369516 C47.7792457,12.8757392 47.7356151,12.8832651 47.7356151,12.8832651 L47.6445601,12.9029484 L47.3913132,14 L47.6175281,13.9577389 C47.6322297,13.9531076 50.4293273,13.4193442 52.1641159,10.2897077 L51.7700182,12.6343299 C51.7453377,12.7783332 51.7319981,12.9248883 51.7301816,13.0719928 C51.7292331,13.3325064 51.7875653,13.5681264 51.9374267,13.7226979 C52.0863397,13.8766903 52.2888424,13.9322665 52.537821,13.9328454 L55.691551,13.9328454 L55.7171602,13.7910103 L55.8736611,12.9249473 L53.1016985,12.9249473 C52.8389667,12.9052641 52.7867997,12.8462143 52.7792118,12.6783278 L52.7787376,12.6783278 Z M48.5223878,7.92019189 L48.5650698,7.97055785 L49.5576648,7.95840055 L49.3926275,7.67936156 C49.3926275,7.67936156 49.2531995,7.44374149 49.0824712,7.08249599 C48.9126915,6.72182941 48.7139828,6.2390109 48.6020609,5.76545508 L48.569338,5.63114586 L48.2620272,5.64677667 L49.4571249,3.98817352 C49.4523824,3.97833189 49.950814,3.4503577 49.9702779,2.88243808 C49.9713595,2.67873142 49.8813552,2.49051006 49.7355067,2.39151471 C49.5790058,2.2792044 49.3641728,2.22710169 49.0573362,2.22710169 L45.8073345,2.22710169 L45.6494109,3.22978952 L48.7965014,3.22978952 L45.1993523,8.03018652 L44.8066774,10.0280363 L46.9388834,7.3013274 L45.7409402,13.9392136 L46.7145654,13.9392136 L46.7382777,13.7996941 L47.9722634,6.82719267 C48.2487483,7.59947072 48.5086346,7.90571891 48.5223878,7.92019189 L48.5223878,7.92019189 Z M34.6649458,12.7831122 L35.9150559,5.42852419 C36.0165444,4.81950132 35.7210897,4.19311088 35.1420364,4.19541378 L33.7027025,4.19541378 L33.506365,5.2316917 L34.6303259,5.2316917 C34.8802531,5.2316917 34.9366883,5.42968202 34.8883153,5.67745939 L33.6600205,12.8357938 C33.5153757,13.6821735 33.902834,13.9334243 34.6341199,13.9334243 L36.2859156,13.9334243 L36.5145017,13.0042593 L34.8337771,13.0042593 C34.7152158,13.0042593 34.6388624,12.9330522 34.6654201,12.7831122 L34.6649458,12.7831122 Z M42.7920842,12.6256461 L44.5501108,2.44419634 C44.668672,1.47624365 44.8877733,0.371087128 43.2388231,0.371087128 L38.2478676,0.371087128 L38.0562726,1.38187983 L42.5981179,1.38187983 C43.5930842,1.38187983 43.6125282,1.83112104 43.4636152,2.71802506 L41.7032174,12.8734235 C41.6131108,13.4917091 41.7364146,13.9131622 42.5805709,13.9131622 C42.6327378,13.9131622 44.4158994,13.8882686 44.5894731,13.9062152 L44.8019349,12.9023695 L43.004546,12.9006327 C42.8485193,12.9006327 42.7446597,12.8682133 42.7920842,12.6256461 L42.7920842,12.6256461 Z M42.4335549,6.09543896 L39.9821819,6.09543896 L40.7324377,1.9544308 L39.75407,1.9544308 L39.0014431,6.10933302 L36.4832016,6.10933302 L36.2716882,7.15022952 L38.7941979,7.15022952 L37.6033685,13.9201092 L38.6120878,13.9201092 L39.8090825,7.11202086 L42.2239385,7.11202086 L42.4335549,6.09543896 L42.4335549,6.09543896 Z M62.949398,7.15080844 L63.1243945,6.86540134 L61.962494,6.86540134 L60.8764727,8.63399912 L61.4081015,5.41231445 L63.3572488,5.41347229 L63.5360392,4.44667743 L61.4763928,4.44667743 L61.7220517,2.97506514 L63.707716,2.97506514 L63.7323767,2.83322996 L63.8827124,1.96716702 L61.8956254,1.96658811 L62.2228545,0.00578918296 L61.2753128,0.00578918296 L60.5279025,4.44609851 L59.4774496,4.44609851 L60.0569772,1.00789812 L59.129828,1.00789812 L58.551249,4.44667743 L57.1119151,4.44667743 L56.9312277,5.41347229 L60.4624567,5.41347229 L59.6771068,9.97419678 L60.0313679,9.97419678 C59.2597711,11.2130836 58.4269967,11.9205228 57.7720643,12.3246083 C57.4960313,12.4966094 57.207571,12.6371119 56.9103609,12.7443245 C56.7002703,12.8161105 56.5850288,12.8346359 56.5850288,12.8346359 L56.4802206,12.8525824 L56.3147091,13.8876897 L56.4958707,13.8847951 C56.5233769,13.8871108 59.0435154,13.8216929 61.2378475,10.0100898 C61.9245544,8.81751647 62.9479753,7.15312412 62.9498723,7.15022952 L62.949398,7.15080844 Z M30.021612,11.1007733 L24.143344,11.1007733 L23.944161,11.9488897 L29.8219548,11.9488897 L30.021612,11.1007733 Z M23.8421983,1.40966795 L23.3798094,4.05995949 L21.9973849,4.05995949 L22.4706815,1.35177604 C22.6271824,1.16710086 23.1128094,1.09068354 23.2517632,1.09068354 C23.3793351,1.09068354 23.8900971,1.15436463 23.8426726,1.41024687 L23.8421983,1.40966795 Z M22.6674932,8.07707896 L21.28744,8.07707896 L21.8057899,5.07248895 L23.1848946,5.07248895 L22.6674932,8.07707896 L22.6674932,8.07707896 Z M23.6762125,0.0185254086 C23.4471522,0.0185254086 22.9458751,0.0555762259 22.7163405,0.206674106 C22.7092268,0.162097342 22.7234541,0.0908902921 22.7296193,0.0329983853 L21.7650048,0.0329983853 L19.5488574,12.4166563 C19.491948,12.7645867 19.4051611,12.8450564 19.3250137,12.8450564 L18.8607278,12.8450564 L18.6624933,13.9091098 L19.5683015,13.9091098 C19.7708041,13.9091098 20.2701842,13.735434 20.438067,12.7952695 L21.0711842,9.19091926 L22.4811149,9.19091926 L21.9082268,12.4618121 C21.8759781,12.6644337 21.8475234,12.8444775 21.7356016,12.8444775 L21.1058041,12.8444775 L20.9208485,13.9096887 L21.7313334,13.9096887 C21.9153405,13.9096887 22.5754897,14.0057892 22.7723014,12.8514245 L24.8305251,1.23251871 C25.0022019,0.268618445 24.2348733,0.0185254086 23.6762125,0.0185254086 L23.6762125,0.0185254086 Z M59.5409985,6.34726876 L59.5803608,6.12901626 L58.6356646,6.12901626 L58.6053129,6.25927306 C58.3515918,7.34358849 57.8844603,8.24901793 57.4799293,8.88061864 C57.0753982,9.51221935 56.7391584,9.86304432 56.7396327,9.86478107 L56.6993218,9.90704217 L56.4939737,11.4585453 L56.7685616,11.2524501 C56.780892,11.2408718 58.9183147,9.63031884 59.5409985,6.34726876 Z M48.6461657,1.69854857 L48.9458886,0 L48.0685352,0 L47.7436773,1.8392259 L48.6210307,1.8392259 L48.6461657,1.69854857 Z M50.5730236,9.21465495 L50.5986328,9.07397762 L51.8918992,1.89827565 C52.1745493,1.54745069 52.471901,1.38709011 52.8138317,1.38477443 L54.9095208,1.38477443 C54.9346558,1.38361659 54.9512544,1.38361659 54.9683272,1.38361659 C55.1722526,1.38245876 55.304567,1.43398255 55.376178,1.50403176 C55.4473148,1.57408097 55.4847801,1.66439235 55.4866771,1.83980482 C55.4856889,1.93914035 55.4745368,2.03793592 55.4534799,2.13389571 L54.1744409,9.21465495 L55.1390554,9.21465495 L56.42094,2.03895299 C56.4531886,1.881487 56.4716842,1.72807344 56.4732212,1.58160692 C56.4764266,1.21283546 56.3374728,0.891535373 56.0842259,0.704544509 C55.832876,0.515816895 55.4885741,0.437083899 55.0484746,0.435926065 C55.0119578,0.435926065 54.9749666,0.435926065 54.9365528,0.437083899 L52.9888281,0.437083899 C52.9200626,0.435347148 52.8522456,0.435347148 52.7886967,0.435347148 C52.4960875,0.43939958 52.2423663,0.444030929 52.0512456,0.549973115 L52.0403379,0.408716863 L51.1700982,0.408716863 L49.6112545,9.21465495 L50.5730236,9.21465495 L50.5730236,9.21465495 Z M67.6700338,12.7587976 C67.3200409,12.3749742 66.5389592,11.367655 65.9968971,9.52842909 L65.9613287,9.41090851 L65.8247461,9.41090851 L66.6252718,4.95323162 L65.6616058,4.95323162 L64.868668,9.27196794 C64.8544406,9.32812308 64.7795099,9.607741 64.5879149,10.0077741 C64.2902688,10.6195056 63.9020659,11.1583691 63.4430872,11.596907 C62.9995918,12.0311951 62.4996105,12.3716837 61.9639167,12.6042262 C61.57551,12.7686391 61.3388617,12.7923749 61.3388617,12.7952695 L61.2392702,12.8080056 L60.9793839,13.9235827 L61.1837835,13.9120044 C61.1994336,13.9114254 63.8903003,13.7556963 65.3656768,10.6746889 C66.3976342,13.3469793 67.3978171,13.8662698 67.434334,13.8819005 L67.5566892,13.943266 L67.9579006,13.0320473 L67.8511954,12.941736 C67.8511954,12.9405781 67.7871723,12.8861597 67.6700338,12.7587976 Z M35.7727824,3.07927057 L36.5315746,2.59355747 C36.5315746,2.59355747 36.1132904,1.9573254 35.6741394,1.0924203 C35.2852584,0.275565474 35.2093792,0.0173675746 35.2093792,0.0173675746 L34.2390737,0.0144729767 C34.2390737,0.0144729767 34.5971288,0.913534296 34.7740222,1.27999008 C34.9504414,1.64760369 35.7727824,3.07927057 35.7727824,3.07927057 L35.7727824,3.07927057 Z M64.1075046,0.493817972 L63.9510037,1.43919282 L66.5228349,1.43919282 C66.1662026,2.31162387 65.7721049,3.02137865 65.5918918,3.18752844 C65.400771,3.26568251 65.1944744,3.30504901 65.0085703,3.40751769 L65.0005081,3.24310467 L64.1288456,3.24310467 L62.8232488,10.5432742 L63.7394904,10.5432742 L63.7636769,10.4014391 L64.7757159,4.67014019 C64.940279,4.45015094 65.0972541,4.31584172 65.2309912,4.25910765 C65.354295,4.18963736 65.7360623,4.13753464 66.0594974,4.14042924 L66.1102417,4.14158707 L67.5941546,4.14158707 C67.8986199,4.16763844 67.9038366,4.25273953 67.9242292,4.45825581 C67.9242292,4.51151636 67.918064,4.57288179 67.9066821,4.63829964 L66.9060249,10.5693256 L67.8236892,10.5693256 L68.7987372,4.87276186 C68.8509041,4.6400364 68.8803073,4.42120499 68.8807816,4.2243725 C68.8826785,3.88281025 68.7892523,3.59450855 68.6019254,3.40983336 C68.4155471,3.22457926 68.1627745,3.15105653 67.8668455,3.15047761 L66.7333997,3.15047761 C66.8154441,3.01501055 66.8993855,2.8494397 66.9923376,2.65955424 C67.1573749,2.3122028 67.333794,1.88727619 67.507842,1.43919282 L69.8453961,1.43919282 L69.8681599,1.29504197 L70,0.493817972 L64.1075046,0.493817972 L64.1075046,0.493817972 Z" id="视频" fill="#000000" fill-rule="nonzero"></path>
        </g>
    </g>
</svg>
