<svg width="70px" height="14px" viewBox="0 0 70 14" version="1.1" xmlns="http://www.w3.org/2000/svg" xmlns:xlink="http://www.w3.org/1999/xlink">
    <defs>
        <linearGradient x1="50%" y1="0.423385205%" x2="50%" y2="99.092307%" id="linearGradient-dfloemdlc4-1">
            <stop stop-color="#00D2FF" offset="0%"></stop>
            <stop stop-color="#00AAFF" offset="100%"></stop>
        </linearGradient>
        <linearGradient x1="49.9274507%" y1="0.156770405%" x2="49.9274507%" y2="99.1805566%" id="linearGradient-dfloemdlc4-2">
            <stop stop-color="#00D2FF" offset="0%"></stop>
            <stop stop-color="#00AAFF" offset="100%"></stop>
        </linearGradient>
        <linearGradient x1="50.14193%" y1="0.424687098%" x2="50.14193%" y2="99.397012%" id="linearGradient-dfloemdlc4-3">
            <stop stop-color="#00D2FF" offset="0%"></stop>
            <stop stop-color="#00AAFF" offset="100%"></stop>
        </linearGradient>
        <linearGradient x1="50%" y1="0.531420945%" x2="50%" y2="100.251727%" id="linearGradient-dfloemdlc4-4">
            <stop stop-color="#FF4B7D" offset="0%"></stop>
            <stop stop-color="#FF2D64" offset="100%"></stop>
        </linearGradient>
        <linearGradient x1="50%" y1="0.216352655%" x2="50%" y2="100.207338%" id="linearGradient-dfloemdlc4-5">
            <stop stop-color="#FF4B7D" offset="0%"></stop>
            <stop stop-color="#FF2D64" offset="100%"></stop>
        </linearGradient>
        <linearGradient x1="49.9857008%" y1="0.302743857%" x2="49.9857008%" y2="100.543132%" id="linearGradient-dfloemdlc4-6">
            <stop stop-color="#FF4B7D" offset="0%"></stop>
            <stop stop-color="#FF2D64" offset="100%"></stop>
        </linearGradient>
        <linearGradient x1="-0.705293158%" y1="50.0021563%" x2="100.312135%" y2="50.0021563%" id="linearGradient-dfloemdlc4-7">
            <stop stop-color="#00D2FF" offset="0%"></stop>
            <stop stop-color="#00AAFF" offset="100%"></stop>
        </linearGradient>
        <linearGradient x1="-9.29138965%" y1="41.8073795%" x2="100.956705%" y2="55.3447786%" id="linearGradient-dfloemdlc4-8">
            <stop stop-color="#00D2FF" offset="0%"></stop>
            <stop stop-color="#00AAFF" offset="100%"></stop>
        </linearGradient>
        <linearGradient x1="-0.00194067313%" y1="50.0040223%" x2="99.6830366%" y2="50.0040223%" id="linearGradient-dfloemdlc4-9">
            <stop stop-color="#FF4B7D" offset="0%"></stop>
            <stop stop-color="#FF2D64" offset="100%"></stop>
        </linearGradient>
    </defs>
    <g id="页面-1" stroke="none" stroke-width="1" fill="none" fill-rule="evenodd">
        <g id="youku" fill-rule="nonzero">
            <path d="M47.1151693,14 C44.4029608,14 42.2042814,11.2228813 42.2042814,7.79713182 L42.2042814,1.59552182 C42.1915486,1.03097171 42.4227265,0.502285025 42.8078236,0.215265006 C43.1929207,-0.0717550019 43.6710861,-0.0717550019 44.0561832,0.215265006 C44.4412803,0.502285025 44.672458,1.03097171 44.6597253,1.59552182 L44.6597253,7.79713182 C44.6597253,9.51000656 45.759065,10.8985659 47.1151693,10.8985659 C48.4712735,10.8985659 49.5706132,9.51000656 49.5706132,7.79713182 L49.5706132,1.59552182 C49.5578805,1.03097171 49.7890583,0.502285025 50.1741554,0.215265006 C50.5592524,-0.0717550019 51.0374179,-0.0717550019 51.422515,0.215265006 C51.8076121,0.502285025 52.0387899,1.03097171 52.0260571,1.59552182 L52.0260571,7.79713182 C52.0260571,11.2228813 49.8273778,14 47.1151693,14 L47.1151693,14 Z" id="路径" fill="url(#linearGradient-dfloemdlc4-1)"></path>
            <path d="M41.0398132,11.334597 L37.6181296,6.99717651 L41.0049489,2.70395105 C41.4591811,2.12941647 41.5318982,1.19627129 41.1234875,0.568702747 C40.9036394,0.229158066 40.5807954,0.0232590802 40.2346796,0.00185097362 C39.8885639,-0.0195571329 39.5514401,0.145521245 39.3065587,0.456321248 L35.4216778,5.38090339 C35.0838954,5.80905151 34.894129,6.38976545 34.894129,6.99528244 C34.894129,7.60079943 35.0838954,8.18151337 35.4216778,8.60966148 L39.3065587,13.5342437 C39.395632,13.6498676 39.4984925,13.7470202 39.6113724,13.8221422 C40.150512,14.1800925 40.8151393,13.9835587 41.1736862,13.3601577 C41.532233,12.7367569 41.4765531,11.8745213 41.0428016,11.3333342 L41.0398132,11.334597 Z" id="路径" fill="url(#linearGradient-dfloemdlc4-2)"></path>
            <path d="M34.3747522,1.60042798 C34.3874849,1.03414191 34.1563071,0.503829532 33.77121,0.215926937 C33.3861129,-0.0719756458 32.9079475,-0.0719756458 32.5228504,0.215926937 C32.1377533,0.503829532 31.9065755,1.03414191 31.9193083,1.60042798 L31.9193083,12.488195 C31.9382363,13.3300164 32.4823233,14 33.1470302,14 C33.8117372,14 34.3558242,13.3300164 34.3747522,12.488195 L34.3747522,1.60042798 Z" id="路径" fill="url(#linearGradient-dfloemdlc4-3)"></path>
            <path d="M25.7841848,14 C24.481828,14.0003336 23.2327218,13.3468641 22.311723,12.1833822 C21.3907243,11.0199003 20.8732969,9.44173847 20.8732969,7.79615969 L20.8732969,1.59609556 C20.8605641,1.03134244 21.091742,0.502465644 21.4768391,0.215342414 C21.8619362,-0.0717808046 22.3401016,-0.0717808046 22.7251987,0.215342414 C23.1102958,0.502465644 23.3414735,1.03134244 23.3287408,1.59609556 L23.3287408,7.80119427 C23.3287409,9.5146849 24.4280805,10.9037434 25.7841848,10.9037434 C27.140289,10.9037434 28.2396286,9.5146849 28.2396287,7.80119427 L28.2396287,1.59609556 C28.226896,1.03134244 28.4580739,0.502465644 28.8431709,0.215342414 C29.228268,-0.0717808046 29.7064335,-0.0717808046 30.0915305,0.215342414 C30.4766276,0.502465644 30.7078054,1.03134244 30.6950727,1.59609556 L30.6950727,7.80119427 C30.6928731,11.2260057 28.4946768,14.0006957 25.7841848,14 Z" id="路径" fill="url(#linearGradient-dfloemdlc4-4)"></path>
            <path d="M15.348797,0 C12.6365885,0 10.4379091,2.7856582 10.4379091,6.22194175 L10.4379091,7.77805822 C10.4379091,11.2143417 12.6365885,14 15.348797,14 C18.0610055,14 20.259685,11.2143417 20.259685,7.77805822 L20.259685,6.22194175 C20.259685,4.5717802 19.7422893,2.98920498 18.8213192,1.82236455 C17.900349,0.655524126 16.6512455,0 15.348797,0 L15.348797,0 Z M17.804241,7.77805822 C17.804241,9.49619998 16.7049013,10.889029 15.348797,10.889029 C13.9926928,10.889029 12.8933531,9.49619998 12.8933531,7.77805822 L12.8933531,6.22194175 C12.8933531,5.11049888 13.361358,4.0834833 14.1210751,3.52776187 C14.880792,2.97204042 15.8168021,2.97204042 16.576519,3.52776187 C17.336236,4.0834833 17.804241,5.11049888 17.804241,6.22194175 L17.804241,7.77805822 Z" id="形状" fill="url(#linearGradient-dfloemdlc4-5)"></path>
            <path d="M6.45839653,7.28690715 L6.45839653,12.4846974 C6.43946853,13.3284664 5.89538147,14 5.23067455,14 C4.56596763,14 4.02188056,13.3284664 4.00295257,12.4846974 L4.00295257,7.29829194 L0.37208312,2.67986108 C0.0546710491,2.28770663 -0.0720981923,1.70904863 0.0402311605,1.16507097 C0.152560513,0.621093326 0.486622424,0.195894554 0.914726415,0.0520009595 C1.3428304,-0.0918926473 1.79879191,0.0677647522 2.10832604,0.46994634 L5.22519587,4.43817905 L8.34106957,0.46994634 C8.6506037,0.0677647522 9.10656521,-0.0918926473 9.5346692,0.0520009595 C9.96277321,0.195894554 10.2968351,0.621093326 10.4091644,1.16507097 C10.5214938,1.70904863 10.3947246,2.28770663 10.0773125,2.67986108 L6.45839653,7.28690715 Z" id="路径" fill="url(#linearGradient-dfloemdlc4-6)"></path>
            <g id="logo" transform="translate(56.000000, 0.000000)">
                <path d="M1.61865069,8.84746643 C0.0703082813,9.6103028 -0.459742263,11.2991401 0.434749646,12.61959 C1.32924167,13.94004 3.30955021,14.3920752 4.85789262,13.6292389 L11.8466682,10.1877082 L5.37064938,6.99950952 L1.61865069,8.84746643 Z" id="路径" fill="url(#linearGradient-dfloemdlc4-7)"></path>
                <polygon id="路径" fill="url(#linearGradient-dfloemdlc4-8)" style="mix-blend-mode: multiply;" points="11.8442031 10.1877082 5.37064938 6.99950952 4.24283116 7.55557846"></polygon>
                <path d="M11.8442031,3.81236199 L4.85789262,0.370831324 C3.30989051,-0.392005037 1.32985783,0.0597948203 0.435365924,1.37995455 C-0.459126104,2.70011428 0.0706485822,4.38871625 1.61865069,5.15155261 L5.37064938,6.99950952 L11.8442031,10.186657 C14.718599,8.77073101 14.718599,5.22933919 11.8442031,3.81236199 Z" id="路径" fill="url(#linearGradient-dfloemdlc4-9)"></path>
            </g>
        </g>
    </g>
</svg>
