
<svg width="70px" height="18px" viewBox="0 0 70 18" version="1.1" xmlns="http://www.w3.org/2000/svg" xmlns:xlink="http://www.w3.org/1999/xlink">
    <defs>
        <polygon id="path-z3wzwqupjj-1" points="0 0 70 0 70 17.5 0 17.5"></polygon>
        <linearGradient x1="0%" y1="0%" x2="100%" y2="0%" id="linearGradient-z3wzwqupjj-3">
            <stop stop-color="#00DC5A" offset="0%"></stop>
            <stop stop-color="#00DC5A" offset="100%"></stop>
        </linearGradient>
    </defs>
    <g id="页面-1" stroke="none" stroke-width="1" fill="none" fill-rule="evenodd">
        <g id="iqiyi">
            <mask id="mask-z3wzwqupjj-2" fill="white">
                <use xlink:href="#path-z3wzwqupjj-1"></use>
            </mask>
            <g id="a"></g>
            <path d="M70.0045534,3.90157392 L68.8563793,3.90157392 C68.837857,3.90278031 68.8196537,3.89631651 68.8060401,3.88369904 C68.7924265,3.87108156 68.7846008,3.85342087 68.7843989,3.83486043 L68.7843989,3.12910201 C68.7846334,3.10729904 68.7761361,3.08630832 68.7608008,3.07080817 C68.7454656,3.05530803 68.7245669,3.04658796 68.7027627,3.04658796 L67.2649116,3.04658796 C67.2196835,3.04706914 67.1832728,3.08387137 67.1832753,3.12910201 L67.1832753,3.8410051 C67.1795795,3.87695724 67.1482553,3.90364086 67.1121728,3.90157392 L63.37534,3.90157392 C63.3568177,3.90278031 63.3386143,3.89631651 63.3250007,3.88369904 C63.3113871,3.87108156 63.3035614,3.85342087 63.3033596,3.83486043 L63.3033596,3.82608234 C63.3029334,3.8240563 63.3029334,3.82196372 63.3033596,3.81993768 L63.3033596,3.12910201 C63.3033622,3.08387137 63.2669515,3.04706914 63.2217234,3.04658796 L61.7865057,3.04658796 C61.7409344,3.04658796 61.7039916,3.08353076 61.7039916,3.12910201 L61.7039916,3.8410051 C61.7003086,3.87660157 61.6695183,3.90315822 61.6337669,3.90157392 L60.4926152,3.90157392 C60.4737189,3.89986676 60.4549614,3.90607716 60.4408173,3.91872359 C60.4266733,3.93137003 60.418411,3.94931852 60.4180015,3.9682874 L60.4180015,5.04887026 C60.4184826,5.09409834 60.4552849,5.13050906 60.5005155,5.1305065 L61.619722,5.1305065 C61.6829242,5.1305065 61.697847,5.16737448 61.7004804,5.19107532 L61.7004804,6.0486947 C61.7004804,6.09434077 61.7373484,6.13120875 61.7829944,6.13120875 L63.2199678,6.13120875 C63.2651958,6.13072757 63.3016066,6.09392533 63.301604,6.0486947 L63.301604,5.21302054 C63.3013037,5.21098333 63.3013037,5.2089131 63.301604,5.20687588 L63.301604,5.19458656 C63.301604,5.17088571 63.3147711,5.12875088 63.3832402,5.12787307 L67.0990057,5.12787307 C67.1613301,5.12787307 67.1771307,5.16474105 67.1797641,5.18844189 L67.1797641,6.04606127 C67.1797615,6.09129191 67.2161723,6.12809414 67.2614003,6.12857532 L68.6983737,6.12857532 C68.7440197,6.12857532 68.7808877,6.09170734 68.7808877,6.04606127 L68.7808877,5.19458656 C68.7808877,5.17088571 68.793177,5.12875088 68.8625239,5.12787307 L70.0036756,5.12787307 C70.0487621,5.12787307 70.0853119,5.09132328 70.0853119,5.04623684 L70.0853119,3.98321015 C70.0853119,3.9384643 70.0492967,3.90205505 70.0045534,3.90157392 L70.0045534,3.90157392 Z M39.0020956,4.4273815 C39.0031191,4.46138929 39.0182954,4.49342525 39.0439623,4.51575879 C39.0696292,4.53809233 39.1034553,4.54869487 39.1372782,4.5450079 C39.9395956,4.5450079 44.1855576,4.48005004 45.0844341,4.48005004 C45.7770253,4.48005004 47.0551152,4.41421436 47.7371728,4.29834358 C47.7784298,4.29132111 47.8425099,4.24830847 47.8249537,4.13770453 C47.8073975,4.0271006 47.6748484,3.28886324 47.6493919,3.20986043 C47.642543,3.17720492 47.62262,3.1487787 47.5942606,3.13119923 C47.5659013,3.11361977 47.53158,3.10842082 47.4992866,3.11681268 C46.6109387,3.23851312 45.7150905,3.29718032 44.8184579,3.29237448 C44.8184579,3.29237448 39.2794832,3.35733234 39.1372782,3.35733234 C39.1012047,3.35404377 39.0654539,3.366389 39.039096,3.3912359 C39.0127382,3.41608281 38.9983064,3.45104352 38.9993977,3.48724807 L39.0020956,4.4273815 L39.0020956,4.4273815 Z M41.9708456,7.16087096 C41.9935207,7.16107363 42.0151163,7.17059161 42.0305589,7.18719658 C42.0460015,7.20380155 42.05393,7.22602991 42.0524818,7.24865959 C42.0410703,7.36891942 42.0305366,7.45406689 42.0156138,7.56905987 C42.0149994,7.5739756 42.0134193,7.59714976 42.0445815,7.59714976 L47.7380506,7.59714976 C47.7836219,7.59714976 47.8205647,7.63409255 47.8205647,7.6796638 L47.8205647,8.6847551 C47.8205647,8.72916474 47.7850834,8.76543629 47.7406841,8.76639133 L41.8049397,8.76639133 C41.7794832,8.76639133 41.7707051,8.79711465 41.7707051,8.79711465 L41.7401574,8.90815748 C41.7089074,9.01920032 41.6754628,9.13024316 41.6399116,9.24128599 C41.6385071,9.24602616 41.6328891,9.2711315 41.6706349,9.2711315 L46.7531489,9.2711315 C47.3755155,9.2711315 47.3737599,9.86804161 47.3430366,10.0365809 C47.2550642,10.4669147 47.0871309,10.8769221 46.8479523,11.2453239 C46.6530787,11.5569461 46.2721096,11.9598604 45.920986,12.2688492 C46.4160703,12.4136877 46.9225661,12.4891793 47.7196166,12.5181469 C47.7439072,12.51414 47.7686397,12.5220886 47.7860478,12.5394967 C47.8034559,12.5569048 47.8114045,12.5816373 47.8073975,12.6059278 L47.8073975,13.7655135 C47.8073975,13.8252045 47.7670183,13.8462719 47.7196166,13.8462719 C46.5016292,13.8426899 45.2931536,13.6316297 44.1460562,13.2221498 C42.910979,13.6329644 41.4950731,13.8638281 40.3407543,13.8489054 C40.3021307,13.8480276 40.2240057,13.8401273 40.2240057,13.7523464 L40.2240057,12.6111947 C40.2238536,12.58614 40.2344151,12.5622143 40.2530302,12.545444 C40.2716452,12.5286737 40.2965394,12.5206573 40.3214425,12.5234138 C41.0344816,12.5272169 41.7453758,12.4449866 42.4387178,12.2785051 C41.9617687,11.9202553 41.5529634,11.4793402 41.2317304,10.9767144 C41.2245324,10.9649517 41.1108561,10.7739405 41.2940548,10.7739405 L42.8056419,10.7739405 C42.8483381,10.7690812 42.8910163,10.7832003 42.9223905,10.8125641 C43.2534176,11.2371882 43.6835219,11.5741585 44.1750239,11.7939545 L44.2197922,11.7711315 L44.280361,11.7360191 C45.0282543,11.3199377 45.3600661,10.8292425 45.5022711,10.472852 C45.5171939,10.435984 45.5909298,10.3095795 45.4381911,10.3095795 L41.3010773,10.3095795 C41.2422641,10.3095795 41.229097,10.3464475 41.229097,10.3464475 L41.1823098,10.4531891 C40.6789131,11.5896185 40.038737,12.6603814 39.275972,13.6417425 C39.2456242,13.6788546 39.1920463,13.6868343 39.1522009,13.6601764 C39.1280612,13.6459559 38.8573449,13.4611771 38.585663,13.2749061 L38.5314144,13.237687 C38.3574512,13.1188388 38.1839946,12.9992509 38.0110492,12.8789264 C38.0110492,12.8789264 37.9460914,12.8420585 38.0005155,12.7542776 C38.9933175,11.4428309 39.7245324,10.1103169 40.1072571,8.78833656 C40.1125239,8.76814695 40.0870675,8.76814695 40.0870675,8.76814695 L38.6307824,8.76814695 C38.5856959,8.76814695 38.5491461,8.73159716 38.5491461,8.68651071 L38.5491461,7.68317504 C38.5489117,7.66137207 38.557409,7.64038135 38.5727442,7.62488121 C38.5880795,7.60938106 38.6089781,7.60065973 38.6307824,7.60066099 L40.3363652,7.60066099 C40.3464467,7.60174124 40.3556469,7.59484109 40.3574326,7.58486043 L40.3574326,7.58924948 L40.3639284,7.53587869 C40.3762178,7.43264835 40.3849081,7.34802757 40.3916672,7.23812588 C40.3927308,7.22105728 40.3991855,7.20476696 40.4101012,7.19160201 C40.4254788,7.17190033 40.4491911,7.16053141 40.4741812,7.16087096 L41.9708456,7.16087096 Z M46.7417374,4.89964274 C46.7641277,4.89751381 46.786318,4.90536286 46.80239,4.92109652 C46.818462,4.93683018 46.8267814,4.95884845 46.8251293,4.98127897 L46.8251293,5.57643347 L46.8252171,5.58284147 C46.827129,5.59828735 46.840289,5.60986362 46.8558526,5.60979021 L47.6792374,5.60979021 C48.1690548,5.60979021 48.2770253,5.9512579 48.2858034,6.39718487 L48.2858034,7.21793627 C48.283599,7.26304769 48.247523,7.2991237 48.2024116,7.30132813 L46.757538,7.30132813 C46.6697571,7.30132813 46.6697571,7.21354723 46.6697571,7.21354723 L46.6697571,6.85803459 C46.6697571,6.79132111 46.6539565,6.75006408 46.5661756,6.75006408 L40.0080647,6.75006408 C39.9872127,6.7488627 39.9667787,6.75625408 39.9515205,6.77051714 C39.9362624,6.78478019 39.9275117,6.80467017 39.9273062,6.82555566 L39.9273062,7.16000088 C39.9266918,7.17913712 39.9180015,7.24251493 39.8307473,7.24251493 L38.4113301,7.24251493 C38.3854814,7.24543361 38.3596696,7.23673746 38.3408568,7.21877213 C38.3220441,7.20080681 38.3121683,7.17542284 38.3138933,7.14946717 L38.3138933,5.72320313 C38.315554,5.69061831 38.3306742,5.66018712 38.3556406,5.63918211 C38.3806069,5.6181771 38.4131761,5.60848557 38.4455647,5.61242363 L39.6630857,5.61242363 C39.6717801,5.61243706 39.6800959,5.60886777 39.6860755,5.60255605 C39.692055,5.59624434 39.6951699,5.58774785 39.6946869,5.57906689 L39.6946869,4.98917925 C39.6946869,4.9406992 39.7339877,4.90139835 39.7824678,4.90139835 L41.1290267,4.90139835 C41.1521233,4.89783 41.1755822,4.90503351 41.1926958,4.92094915 C41.2098094,4.93686479 41.2186934,4.95974025 41.2168076,4.98303459 L41.2168076,5.57818908 L41.2168954,5.58459709 C41.2188074,5.60004297 41.2319674,5.61161924 41.247531,5.61154583 L42.4580296,5.61154583 C42.4667239,5.61155925 42.4750398,5.60798996 42.4810193,5.60167824 C42.4869988,5.59536653 42.4901137,5.58687004 42.4896307,5.57818908 L42.4896307,4.98830144 C42.4896307,4.93982139 42.5289315,4.90052054 42.5774116,4.90052054 L43.981906,4.90052054 C44.0047995,4.89794266 44.0276778,4.90548639 44.044548,4.92117569 C44.0614182,4.936865 44.0705995,4.95913666 44.0696869,4.98215678 L44.0696869,5.57731127 C44.0689474,5.5859054 44.0718549,5.59441449 44.0776987,5.60075921 C44.0835425,5.60710393 44.0917844,5.61069977 44.1004102,5.61066802 L45.2714074,5.61066802 C45.2801017,5.61068144 45.2884176,5.60711215 45.2943971,5.60080043 C45.3003766,5.59448872 45.3034915,5.58599224 45.3030085,5.57731127 L45.3030085,4.98742363 C45.3030085,4.93894358 45.3423093,4.89964274 45.3907894,4.89964274 L46.7417374,4.89964274 Z M49.8921939,5.0234138 L52.8337318,5.0234138 C52.8460211,5.0234138 52.869722,5.0234138 52.8530436,5.04799245 C52.1859088,5.73356127 51.0974256,5.9898815 50.1792374,6.13033094 C50.0861897,6.14525369 50.0282543,6.16017644 50.0282543,6.27868066 L50.0282543,7.21793627 C50.0282543,7.33380706 50.1160352,7.31625088 50.1608034,7.31098403 C51.2352416,7.18896858 52.4659298,6.8396006 53.1830998,6.3515388 C53.6781841,6.01446015 54.0609088,5.71424948 54.3690197,5.29816802 C55.2222501,6.50252195 56.5775871,7.11962167 58.6825731,7.31010622 C58.7229523,7.31010622 58.8045885,7.2986947 58.8045885,7.22232532 L58.8045885,6.24795734 C58.8045885,6.13823122 58.7431419,6.13998684 58.6957402,6.13559779 C57.5545885,6.01182672 56.4230928,5.63963571 55.842861,5.04799245 C55.8261826,5.02604723 55.8498835,5.02253599 55.861295,5.02253599 L58.8107332,5.02253599 C58.8107332,5.02253599 58.8914916,5.02253599 58.8914916,4.94616661 L58.8914916,3.86207251 C58.8914916,3.78043627 58.7949326,3.78482532 58.7949326,3.78482532 L55.2749186,3.78482532 C55.2266391,3.78482532 55.2169832,3.75059077 55.2161054,3.73303459 L55.2161054,3.07380004 C55.2175646,3.05489867 55.2111218,3.03623828 55.1983117,3.0222636 C55.1855016,3.00828892 55.1674708,3.00025089 55.1485141,3.00003046 L53.5570464,3.00003046 C53.5347064,2.99938667 53.5132861,3.00897583 53.4989106,3.02608954 C53.4845351,3.04320324 53.4787872,3.06595722 53.4833105,3.08784498 L53.4833105,3.7339124 C53.4833105,3.75146858 53.4718989,3.77955847 53.4253751,3.78394751 L49.882538,3.78394751 C49.8636416,3.78224036 49.8448841,3.78845075 49.8307401,3.80109719 C49.816596,3.81374362 49.8083338,3.83169212 49.807905,3.85066099 L49.807905,4.94967785 C49.807905,4.94967785 49.804413,5.0234138 49.8921939,5.0234138 L49.8921939,5.0234138 Z M59.2496377,7.50585762 C59.2947242,7.50585762 59.3312739,7.54240741 59.3312739,7.58749386 L59.3312739,8.66017644 C59.3312739,8.68182772 59.322673,8.70259222 59.3073632,8.71790198 C59.2920535,8.73321174 59.271289,8.74181268 59.2496377,8.74181268 L58.7229523,8.74181268 C58.699147,8.73994197 58.675716,8.74858766 58.6588312,8.76547247 C58.6419464,8.78235728 58.6333007,8.80578824 58.6351714,8.82959358 C58.6370148,9.10812237 58.6393849,9.49269049 58.6410527,9.88805566 L58.6414039,9.9760999 L58.6419305,10.1082979 C58.642545,10.2842986 58.6429839,10.4590704 58.6430717,10.6240985 L58.6430717,10.8247656 C58.6428083,11.1875641 58.6406138,11.4787333 58.6351714,11.5920585 C58.5860141,12.7191652 58.3718287,13.3160753 57.386927,13.8190599 C57.230677,13.9042073 57.1595745,13.7971146 57.1595745,13.7971146 C57.1595745,13.7971146 57.0033245,13.5917073 56.8350485,13.3696217 L56.798795,13.3218689 C56.6234088,13.0904784 56.4460036,12.8555767 56.426604,12.8271357 C56.3871026,12.7692003 56.4336265,12.7138984 56.4880506,12.6866863 C57.0006911,12.4347551 57.0656489,12.168779 57.0656489,11.4085964 L57.0656489,8.83398262 C57.0676381,8.81122222 57.0598935,8.78868428 57.0443343,8.77195395 C57.0287751,8.75522363 57.0068574,8.74586663 56.9840127,8.74620172 L49.4532894,8.74620172 C49.4080588,8.74620428 49.3712565,8.70979356 49.3707753,8.66456549 L49.3707753,7.58749386 C49.3712565,7.54226579 49.4080588,7.50585762 49.4532894,7.50585762 L59.2496377,7.50585762 Z M55.2380506,9.36066802 C55.72146,9.36066802 56.1139284,9.75155636 56.1158596,10.2349658 L56.1158596,12.3899868 C56.1158596,12.8748007 55.7228645,13.2677958 55.2380506,13.2677958 L50.9183526,13.2677958 C50.4335387,13.2677958 50.0405436,12.8748007 50.0405436,12.3899868 L50.0405436,10.238477 C50.0405436,9.7536631 50.4335387,9.36066802 50.9183526,9.36066802 L55.2380506,9.36066802 Z M54.4901574,10.4166722 L51.6671237,10.4166722 C51.5937754,10.4166722 51.5341792,10.4758747 51.5336967,10.5492214 L51.5336967,12.0704644 L51.5343112,12.0836315 C51.5411101,12.151752 51.5986664,12.203488 51.6671237,12.2030168 L54.4910352,12.2030168 C54.5642401,12.2030168 54.6235843,12.1436692 54.6235843,12.0704644 L54.6235843,10.5896006 L54.6227065,10.5492214 L54.6220043,10.5364932 C54.615063,10.4687636 54.5582402,10.4171237 54.4901574,10.4166722 L54.4901574,10.4166722 Z M69.5568708,12.5304363 L62.9785703,12.5304363 C62.8748539,12.531825 62.7856906,12.4572114 62.7687739,12.3548745 C62.7551038,12.268407 62.798222,12.1828775 62.8758666,12.1424447 L68.0549397,9.54939695 L68.7958105,9.17281689 C68.9377477,9.09730456 69.0693372,9.00377568 69.1873133,8.89455144 C69.3052016,8.78193863 69.3981975,8.6458836 69.4603119,8.49514835 C69.5191966,8.34073019 69.5489592,8.1767379 69.5480928,8.0114756 C69.5528329,7.35733234 69.0369446,6.81765538 68.3832402,6.79307672 L61.0930366,6.79307672 C61.0479501,6.79307672 61.0114003,6.82962651 61.0114003,6.87471296 L61.0114003,8.01586465 C61.0114003,8.0606329 61.0473905,8.09706198 61.0921588,8.09750088 L67.483486,8.09750088 C67.5454936,8.09694399 67.5969487,8.14530405 67.6002346,8.20722701 C67.5993541,8.24879389 67.5757656,8.28653546 67.538788,8.30554161 L67.4905085,8.33187588 L67.465052,8.34592083 L67.3588371,8.4021006 C66.5582753,8.82959358 61.9576784,11.0706399 61.5249186,11.3752396 C61.4748835,11.405963 61.4274818,11.4384419 61.3818357,11.4709208 C61.28955,11.5332637 61.205495,11.6069961 61.1316602,11.6903731 C61.1167374,11.7070514 61.1026925,11.7237298 61.0895253,11.741286 L61.0851363,11.7465528 C61.0719575,11.7625572 61.0596504,11.7792597 61.0482683,11.796588 L61.0430015,11.8036104 C61.0307121,11.8202888 61.0201784,11.8369672 61.0087669,11.8545234 L61.0087669,11.8615458 C60.9718789,11.9198197 60.9401569,11.9812076 60.9139635,12.0450079 C60.9060633,12.0643197 60.898163,12.0853871 60.8902627,12.1055767 L60.8849958,12.1222551 C60.8788512,12.1380557 60.8744621,12.1538562 60.8691953,12.1705346 L60.8630506,12.1924798 C60.8630506,12.2074026 60.8551503,12.2214475 60.8516391,12.2363703 C60.8481279,12.251293 60.8516391,12.2530486 60.8454944,12.2618267 C60.8393498,12.2706048 60.8393498,12.2899166 60.8367164,12.3039616 C60.8340829,12.3180065 60.8367164,12.3223955 60.8367164,12.3311736 C60.8367164,12.3399517 60.8323273,12.3601413 60.8305717,12.3741863 C60.8288161,12.3882312 60.8305717,12.3917425 60.8305717,12.4005205 C60.8305717,12.4092986 60.8305717,12.4321217 60.8261826,12.4479222 C60.8266216,12.4558225 60.8266216,12.4637228 60.8261826,12.4716231 L60.8261826,12.6954644 C60.8261826,12.7033646 60.8261826,12.7226764 60.8314495,12.7358436 C60.8367164,12.7490107 60.8314495,12.7533998 60.8358385,12.7621778 C60.8402276,12.7709559 60.8358385,12.7867565 60.8419832,12.7990458 C60.8481279,12.8113352 60.8463723,12.816602 60.8481279,12.8253801 L60.8560282,12.8604925 L60.8639284,12.8877045 C60.8639284,12.8991161 60.8700731,12.9105276 60.8735843,12.9210613 C60.8759544,12.9302783 60.8788512,12.9394075 60.8823624,12.9482734 L60.8928961,12.9807523 L60.9034298,13.0079644 C60.9034298,13.0184981 60.9113301,13.0290318 60.9157192,13.0395655 L60.9271307,13.0658998 C60.9271307,13.0755557 60.9359088,13.0860894 60.9411756,13.0957453 C60.9464425,13.1054012 60.9490759,13.1133014 60.953465,13.1220795 C60.957854,13.1308576 60.9639987,13.1413913 60.9683877,13.1510472 C60.9727767,13.1607031 60.9780436,13.1686034 60.9833105,13.1765037 L60.999111,13.2045936 L61.0149116,13.23005 L61.03159,13.2572621 L61.0482683,13.280963 L61.0667023,13.3072972 L61.0851363,13.3309981 L61.1044481,13.3564545 L61.1237599,13.3792776 L61.1439495,13.4029784 L61.1641391,13.4249236 L61.1860843,13.4477467 L61.2071517,13.4688141 L61.2299748,13.4907593 L61.25192,13.5109489 L61.2756208,13.5311385 L61.2984439,13.5504503 L61.3230225,13.5697621 L61.3476012,13.5881961 L61.3730576,13.6057523 L61.3976363,13.6233085 L61.4239706,13.6399868 L61.4503048,13.6566652 L61.4766391,13.671588 L61.5038512,13.6865107 L61.5310633,13.7005557 L61.5591532,13.7146006 L61.587243,13.7277677 L61.6162107,13.7400571 L61.6443006,13.7514686 L61.6741461,13.7628801 L61.7031138,13.772536 L61.7338371,13.7821919 L61.7636826,13.79097 L61.794406,13.7997481 L61.8251293,13.8067705 L61.8558526,13.813793 L61.8874537,13.8190599 C61.8979874,13.8190599 61.9085211,13.8190599 61.9190548,13.8243267 L69.5665267,13.8243267 C69.6117574,13.8243267 69.6485596,13.7879186 69.6490437,13.7426905 L69.6490437,12.6120725 C69.6492382,12.5884662 69.6392072,12.5659302 69.6215351,12.5502778 C69.6038631,12.5346254 69.5802806,12.5273894 69.5568708,12.5304363 L69.5568708,12.5304363 Z M17.405361,13.7532242 C17.4086546,13.8040693 17.4518859,13.8430164 17.5027978,13.8410796 L19.8289916,13.8410796 C19.8800529,13.8429894 19.9235158,13.8041832 19.9273062,13.7532242 L19.9273062,3.33099807 C19.9235158,3.28003906 19.8800529,3.24123284 19.8289916,3.24314436 L17.5027978,3.24314436 C17.4519029,3.24125294 17.4086996,3.2801748 17.405361,3.33099807 L17.405361,13.7532242 L17.405361,13.7532242 Z M0.301252872,13.7532242 C0.304999057,13.804205 0.34848958,13.8430358 0.399567479,13.8410051 L2.7257613,13.8410051 C2.77667324,13.8430164 2.81990452,13.8040693 2.8231981,13.7532242 L2.8231981,7.19160201 C2.81990452,7.14075691 2.77667324,7.10180981 2.7257613,7.10382111 L0.399567479,7.10382111 C0.348321127,7.10131762 0.304548322,7.14040048 0.301252872,7.19160201 L0.301252872,13.7532242 L0.301252872,13.7532242 Z M15.8700731,12.0520304 L14.7192655,11.1285753 C14.6961605,11.1098561 14.6800721,11.0838672 14.6736194,11.0548394 C14.6664794,11.0250772 14.6708701,10.9937156 14.6859088,10.9670585 C15.9773414,8.53640538 15.2420885,5.52376493 12.9761124,3.96135271 C10.7103119,2.39894049 7.63297689,2.78271858 5.82021355,4.85399667 C4.00753798,6.9250992 4.03475006,10.0260472 5.88359136,12.0650219 C7.73252043,14.1039967 10.8160001,14.4336139 13.0540619,12.8316125 C13.0997723,12.7970841 13.1628458,12.7970841 13.2085562,12.8316125 L14.4427557,13.8226589 C14.463422,13.8388639 14.4897127,13.8461269 14.5157669,13.8428289 C14.5418211,13.8395309 14.5654728,13.825946 14.5814495,13.8051027 L15.8858737,12.1907242 C15.9195324,12.1479826 15.9124831,12.0861059 15.8700731,12.0520304 L15.8700731,12.0520304 Z M10.4583807,11.5587017 C8.77562085,11.8659349 7.14904079,10.7133717 6.83829641,8.99374386 C6.52755203,7.27411605 7.64588068,5.6282242 9.33127394,5.32362448 C11.0166672,5.01902476 12.6379804,6.16895453 12.9513582,7.88858234 C13.264736,9.60821015 12.1437739,11.2514686 10.4583807,11.5587017 L10.4583807,11.5587017 Z M34.8562037,3.24051257 L32.5300099,3.24051257 C32.479115,3.23861951 32.4359117,3.27754138 32.4325731,3.32836465 L32.4325731,13.7532242 C32.4358667,13.8040693 32.479098,13.8430164 32.5300099,13.8410796 L34.8562037,13.8410796 C34.9070986,13.8429693 34.9503019,13.8040475 34.9536405,13.7532242 L34.9536405,3.33099807 C34.9527265,3.30608148 34.9419429,3.28255075 34.923666,3.26559114 C34.9053892,3.24863153 34.881119,3.2396349 34.8562037,3.24051257 Z M1.56266439,3.03254302 C0.746740934,3.03254302 0.0853118609,3.69397209 0.0853118609,4.50989554 C0.0853118609,5.325819 0.746740934,5.98724807 1.56266439,5.98724807 C2.37858784,5.98724807 3.04001692,5.325819 3.04001692,4.50989554 C3.04001692,4.11807729 2.88436772,3.7423069 2.60731038,3.46524955 C2.33025304,3.18819221 1.95448264,3.03254302 1.56266439,3.03254302 Z M31.2010071,3.24050712 L28.7211967,3.24050712 C28.6797809,3.24027489 28.6411955,3.26156343 28.6193708,3.29676352 L26.3160001,7.38910903 C26.3160001,7.38910903 26.2993217,7.41983234 26.2764987,7.41983234 C26.2536756,7.41983234 26.2369973,7.38910903 26.2369973,7.38910903 L23.9336265,3.29676352 C23.9118019,3.26156343 23.8732164,3.24027489 23.8318006,3.24050712 L21.352868,3.24050712 C21.3126443,3.24085235 21.2758933,3.26342338 21.2574633,3.29917747 C21.2390334,3.33493155 21.2419702,3.37796026 21.2650871,3.41087869 L24.9518849,9.61084358 C24.9870866,9.67070124 25.0055786,9.73890941 25.0054312,9.8083506 L25.0054312,13.735668 C25.0059133,13.7949554 25.0541124,13.8427607 25.1134017,13.8427607 L27.4448624,13.8427607 C27.5041518,13.8427607 27.5523509,13.7949554 27.5528329,13.735668 L27.5528329,9.8083506 C27.5526856,9.73890941 27.5711775,9.67070124 27.6063793,9.61084358 L31.293177,3.41087869 C31.3169284,3.37734078 31.3195809,3.33322728 31.3000194,3.29708499 C31.2804578,3.2609427 31.2420745,3.23903931 31.2010071,3.24050712 Z" id="形状" fill="url(#linearGradient-z3wzwqupjj-3)" fill-rule="nonzero" mask="url(#mask-z3wzwqupjj-2)"></path>
        </g>
    </g>
</svg>