<svg width="70px" height="18px" viewBox="0 0 70 18" version="1.1" xmlns="http://www.w3.org/2000/svg" xmlns:xlink="http://www.w3.org/1999/xlink">
  <defs>
    <polygon id="path-nfznc5o0ik-1" points="0 0 70 0 70 17.5 0 17.5"></polygon>
    <polygon id="path-nfznc5o0ik-3" points="4.68308054e-17 2.92692534e-17 2.91478689 2.92692534e-17 2.91478689 2.70286742 4.68308054e-17 2.70286742"></polygon>
    <polygon id="path-nfznc5o0ik-5" points="0 2.80984832e-16 8.39932178 2.80984832e-16 8.39932178 11.0008191 0 11.0008191"></polygon>
  </defs>
  <g id="页面-1" stroke="none" stroke-width="1" fill="none" fill-rule="evenodd">
    <g id="logo_red" transform="translate(-0.000000, 0.000000)">
      <mask id="mask-nfznc5o0ik-2" fill="white">
        <use xlink:href="#path-nfznc5o0ik-1"></use>
      </mask>
      <g id="a"></g>
      <g id="Group-9" mask="url(#mask-nfznc5o0ik-2)">
        <g transform="translate(0.000000, 3.000000)">
          <path d="M44.8520642,9.8089569 L43.2809085,9.8089569 C43.1050536,9.8089569 42.9704531,9.77504459 42.9124173,9.7173586 C42.8543816,9.65967261 42.8204694,9.52507202 42.8204694,9.34816842 L42.8204694,6.74286028 C42.8204694,6.62084574 42.7218787,6.52225514 42.6002139,6.52225514 L42.0904797,6.52225514 C42.2743754,5.78841971 42.3236707,5.13709268 42.3236707,4.65148173 L42.3236707,2.42655138 C42.3236707,2.30488643 42.22508,2.20629587 42.1030657,2.20629587 L41.362238,2.20629587 C41.2402234,2.20629587 41.1409337,2.30488643 41.1409337,2.42655138 L41.1409337,4.65148173 C41.1409337,5.95378618 40.7839798,7.15190622 40.0791622,8.21227924 C39.3942724,9.24293522 38.5803758,9.84112122 38.155947,10.1061271 L38.149654,10.1110217 C38.0961633,10.1536743 38.0657471,10.2166045 38.0657471,10.2840795 C38.0657471,10.3246345 38.0769347,10.3634415 38.0968625,10.3977034 L38.5649929,11.0277041 L38.5670906,11.0312002 C38.6097432,11.075601 38.6663804,11.100773 38.7279121,11.100773 C38.7719632,11.100773 38.8146158,11.0864389 38.85587,11.0595188 C40.0781134,10.246671 40.9996904,9.18839576 41.5961284,7.91336102 C41.6118609,7.8804975 41.6230485,7.84868282 41.6380818,7.81581931 L41.6380818,9.47822405 C41.6380818,10.3134469 42.3026939,10.9913445 43.1543485,10.9913445 L44.8520642,10.9913445 C44.9737294,10.9913445 45.0726693,10.8927539 45.0726693,10.771089 L45.0726693,10.029562 C45.0726693,9.9078971 44.9737294,9.8089569 44.8520642,9.8089569" id="Fill-1" fill="#E42112" fill-rule="nonzero"></path>
          <path d="M34.4370899,1.31174381 L37.8021047,1.31174381 C37.9237697,1.31174381 38.0223602,1.21280364 38.0223602,1.09183791 L38.0223602,0.349611778 C38.0223602,0.227946826 37.9237697,0.129356262 37.8021047,0.129356262 L34.4370899,0.129356262 C34.315425,0.129356262 34.2161352,0.227946826 34.2161352,0.349611778 L34.2161352,1.09183791 C34.2161352,1.21280364 34.315425,1.31174381 34.4370899,1.31174381" id="Fill-3" fill="#E42112" fill-rule="nonzero"></path>
          <path d="M38.9025083,7.44974064 L39.6436856,7.44974064 C39.7653506,7.44974064 39.8635915,7.35080049 39.8635915,7.22913551 L39.8635915,1.72973984 C39.8635915,1.51298044 39.9132364,1.31160397 40.2708894,1.31160397 L43.1897995,1.31160397 C43.4016642,1.31160397 43.5967475,1.36369615 43.5967475,1.72973984 L43.5967475,7.22913551 C43.5967475,7.35080049 43.6956878,7.44974064 43.8173526,7.44974064 L44.5588795,7.44974064 C44.6801951,7.44974064 44.7791354,7.35080049 44.7791354,7.22913551 L44.7791354,1.64303608 C44.7791354,0.857108458 44.1526305,0.12956603 43.2663643,0.12956603 L40.1918771,0.12956603 C39.346865,0.12956603 38.6819032,0.818651146 38.6819032,1.64303608 L38.6819032,7.22913551 C38.6819032,7.35080049 38.7808433,7.44974064 38.9025083,7.44974064" id="Fill-5" fill="#E42112" fill-rule="nonzero"></path>
          <path d="M32.4302475,6.05814534 C32.5508636,6.05814534 32.6508526,5.95920514 32.6508526,5.8382394 L32.6508526,5.09636287 C32.6508526,4.97504753 32.5508636,4.87540814 32.4302475,4.87540814 L28.4201986,4.87540814 L28.4201986,2.4270758 C28.4201986,2.30541085 28.3212584,2.20612106 28.1992439,2.20612106 L27.4584162,2.20612106 C27.3364016,2.20612106 27.2378111,2.30541085 27.2378111,2.4270758 L27.2378111,4.87540814 L23.6584841,4.87540814 C23.5665362,4.87540814 23.4780844,4.83660122 23.4151542,4.7687765 C23.3522241,4.69955334 23.3221575,4.60795504 23.3301985,4.50936444 C23.3319466,4.48838774 23.5882121,1.79148131 23.5903098,1.77469994 C23.6067416,1.63800167 23.7133732,1.48522126 23.908107,1.47683057 C23.9175466,1.47683057 31.5401355,1.2230123 31.718088,1.21671929 L31.7184376,1.21671929 L31.811784,1.21427201 C31.8701692,1.21217434 31.9250583,1.18700228 31.9656132,1.14469924 C32.0058186,1.10134735 32.0274945,1.04540945 32.0250472,0.986674642 L32.0019729,0.245497347 C31.9984767,0.125580453 31.9016343,0.0315348442 31.782067,0.0315348442 L31.47301,0.0409743666 C31.4716116,0.0409743666 31.4705627,0.0416735902 31.4695139,0.0416735902 C30.1182638,0.0871231414 23.8546164,0.295142239 23.844128,0.295841464 C23.4515139,0.318566238 23.1050484,0.47239549 22.8421403,0.740547841 C22.5981111,0.988772313 22.4453307,1.32125326 22.4121176,1.6740117 C22.4058246,1.7414868 22.2383605,3.51297046 22.1537544,4.4023832 C22.1118009,4.83170665 22.2481496,5.24285028 22.5358802,5.55959868 C22.8239604,5.87634713 23.2319576,6.05814534 23.654988,6.05814534 L27.2378111,6.05814534 L27.2378111,9.34799358 C27.2378111,9.52489722 27.2042483,9.65984746 27.1458631,9.7175334 C27.0878276,9.77521939 26.9535766,9.80913175 26.7777218,9.80913175 L25.6407838,9.80913175 C25.5187692,9.80913175 25.4198291,9.9080719 25.4198291,10.0293872 L25.4198291,10.7709142 C25.4198291,10.8922295 25.5187692,10.9911697 25.6407838,10.9911697 L26.9039317,10.9911697 C27.7555864,10.9911697 28.4201986,10.3136218 28.4201986,9.47804925 L28.4201986,6.05814534 L32.4302475,6.05814534 Z" id="Fill-7" fill="#E42112" fill-rule="nonzero"></path>
          <path d="M23.5346166,7.19165713 L22.7962362,7.12627969 C22.6728232,7.11509212 22.5672404,7.20599122 22.556752,7.32695692 L22.2732168,10.5367441 C22.2627284,10.6580594 22.3529283,10.7660895 22.473894,10.7762283 C22.473894,10.7762283 23.2255597,10.8419553 23.2318527,10.8419553 C23.346875,10.8419553 23.4416198,10.7559508 23.451409,10.6405788 L23.7349443,7.43149092 C23.7401884,7.37205689 23.7220086,7.31541975 23.6842505,7.26962058 C23.6461428,7.22452064 23.5930018,7.19725089 23.5346166,7.19165713" id="Fill-9" fill="#E42112" fill-rule="nonzero"></path>
          <path d="M32.0407099,7.08785734 C32.0305711,7.08785734 31.275759,7.1920417 31.275759,7.1920417 C31.2173738,7.20043239 31.1652816,7.23049902 31.1299708,7.27734699 C31.0939608,7.32454461 31.0789275,7.38327944 31.0873181,7.44096538 L31.5348214,10.6626393 C31.5498547,10.7713686 31.64425,10.8535274 31.7536785,10.8535274 C31.763118,10.8535274 32.5175806,10.7486439 32.5175806,10.7486439 C32.6388959,10.7315129 32.7224531,10.6203363 32.706371,10.4993706 L32.2588677,7.27839583 C32.2438344,7.16966655 32.1494392,7.08785734 32.0407099,7.08785734" id="Fill-11" fill="#E42112" fill-rule="nonzero"></path>
          <path d="M38.4038568,7.27699739 C38.4077025,7.21826261 38.3884739,7.16162546 38.349667,7.11792397 L36.9907254,5.59186786 L37.6147827,4.89054634 C37.859511,4.61540175 38.1213703,4.13048999 38.1213703,3.59173803 L38.1213703,2.71980587 C38.1213703,2.39361794 37.8563645,2.12826248 37.529827,2.12826248 L34.4371598,2.12826248 C34.3154949,2.12826248 34.2165547,2.22755227 34.2165547,2.348518 L34.2165547,3.09039452 C34.2165547,3.21136024 34.3154949,3.31030042 34.4371598,3.31030042 L36.9386332,3.31030042 L36.9386332,3.59173803 C36.9386332,3.77598351 36.8344488,3.98854755 36.7316629,4.10426912 L34.2508167,6.89067619 C34.2504671,6.89102583 34.2501174,6.89102583 34.2497678,6.89102583 L34.2057167,6.94171957 L34.1469819,7.00744661 L34.1469819,7.0077962 L34.0497898,7.11792397 C34.0106333,7.16162546 33.9907054,7.21826261 33.9945511,7.27699739 C33.9976976,7.33643142 34.0239185,7.38992204 34.06762,7.42872897 L34.6224541,7.92098257 C34.6644076,7.95769181 34.7182478,7.97761971 34.7738361,7.97622127 C34.8353678,7.97412359 34.8930538,7.94755308 34.934308,7.90210351 L35.1073659,7.70702009 L35.6073109,7.14589292 L35.6073109,10.771019 C35.6073109,10.8923344 35.7059015,10.9916242 35.8272169,10.9916242 L36.5687438,10.9916242 C36.6907583,10.9916242 36.7896985,10.8923344 36.7896985,10.771019 L36.7896985,7.14379524 L37.4644495,7.90210351 C37.5053541,7.94755308 37.5637393,7.97412359 37.6249214,7.97622127 C37.6805097,7.97761971 37.7343499,7.95769181 37.7763034,7.92098257 L38.3304383,7.42872897 C38.3744894,7.38992204 38.4007103,7.33643142 38.4038568,7.27699739" id="Fill-13" fill="#E42112" fill-rule="nonzero"></path>
          <path d="M57.1000888,9.8089569 L55.5285835,9.8089569 C55.3530783,9.8089569 55.2184777,9.77504459 55.1607917,9.7173586 C55.1013576,9.65967261 55.0681444,9.52507202 55.0681444,9.34816842 L55.0681444,6.74286028 C55.0681444,6.62084574 54.9688547,6.52225514 54.8475392,6.52225514 L54.3385042,6.52225514 C54.5224,5.78841971 54.5716954,5.13779192 54.5716954,4.65148173 L54.5716954,2.42655138 C54.5716954,2.30488643 54.4724058,2.20629587 54.3514399,2.20629587 L53.609913,2.20629587 C53.4882482,2.20629587 53.3889582,2.30488643 53.3889582,2.42655138 L53.3889582,4.65148173 C53.3889582,5.95378618 53.0320045,7.15190622 52.3271868,8.21227924 C51.641598,9.24293522 50.8280509,9.84112122 50.4039717,10.1061271 L50.397329,10.1110217 C50.3445377,10.1536743 50.3134221,10.2166045 50.3134221,10.2840795 C50.3134221,10.3246345 50.3246099,10.3634415 50.3445377,10.3977034 L50.8130178,11.0277041 L50.8151155,11.0312002 C50.8574184,11.075601 50.9144051,11.100773 50.9759369,11.100773 C51.0189392,11.100773 51.0622911,11.0864389 51.103545,11.0595188 C52.3257885,10.246671 53.2477153,9.18839576 53.8441533,7.91336102 C53.8581377,7.88259518 53.8724718,7.85182935 53.8857568,7.82106347 L53.8857568,9.47822405 C53.8857568,10.3134469 54.5500196,10.9913445 55.4023736,10.9913445 L57.1000888,10.9913445 C57.2214043,10.9913445 57.3213933,10.8927539 57.3213933,10.771089 L57.3213933,10.029562 C57.3213933,9.9078971 57.2214043,9.8089569 57.1000888,9.8089569" id="Fill-15" fill="#E42112" fill-rule="nonzero"></path>
          <path d="M46.6848001,1.31174381 L50.0491157,1.31174381 C50.1711302,1.31174381 50.2697209,1.21280364 50.2697209,1.09183791 L50.2697209,0.349611778 C50.2697209,0.227946826 50.1711302,0.129356262 50.0491157,0.129356262 L46.6848001,0.129356262 C46.5631349,0.129356262 46.4645446,0.227946826 46.4645446,0.349611778 L46.4645446,1.09183791 C46.4645446,1.21280364 46.5631349,1.31174381 46.6848001,1.31174381" id="Fill-17" fill="#E42112" fill-rule="nonzero"></path>
          <path d="M51.1501833,7.44974064 L51.8913606,7.44974064 C52.0126761,7.44974064 52.111616,7.35080049 52.111616,7.22913551 L52.111616,1.72973984 C52.111616,1.51298044 52.1605617,1.31160397 52.5189141,1.31160397 L55.4378242,1.31160397 C55.6489895,1.31160397 55.8447726,1.36369615 55.8447726,1.72973984 L55.8447726,7.22913551 C55.8447726,7.35080049 55.9433628,7.44974064 56.065727,7.44974064 L56.8058556,7.44974064 C56.9282197,7.44974064 57.0271601,7.35080049 57.0271601,7.22913551 L57.0271601,1.64303608 C57.0271601,0.857108458 56.4003059,0.12956603 55.5140397,0.12956603 L52.4395523,0.12956603 C51.5948896,0.12956603 50.9292285,0.818651146 50.9292285,1.64303608 L50.9292285,7.22913551 C50.9292285,7.35080049 51.0285186,7.44974064 51.1501833,7.44974064" id="Fill-19" fill="#E42112" fill-rule="nonzero"></path>
          <path d="M50.6517417,7.27699739 C50.6555874,7.21826261 50.6356596,7.16162546 50.5968527,7.11792397 L49.2386104,5.59151826 L49.8630171,4.89054634 C50.1070465,4.61540175 50.3689055,4.13048999 50.3689055,3.59173803 L50.3689055,2.71980587 C50.3689055,2.39361794 50.1035501,2.12826248 49.7773622,2.12826248 L46.684695,2.12826248 C46.5630303,2.12826248 46.4644396,2.22755227 46.4644396,2.348518 L46.4644396,3.09039452 C46.4644396,3.21136024 46.5630303,3.31030042 46.684695,3.31030042 L49.186518,3.31030042 L49.186518,3.59173803 C49.186518,3.77598351 49.0823336,3.98854755 48.9791983,4.10426912 L46.5000998,6.88927775 C46.4994008,6.89067619 46.4983518,6.89102583 46.4980025,6.89102583 L46.4340234,6.96304587 L46.3948668,7.00744661 L46.2973251,7.11792397 C46.2585182,7.16162546 46.2382408,7.21826261 46.2420864,7.27699739 C46.2455824,7.33643142 46.2718033,7.38992204 46.3158546,7.42872897 L46.8703389,7.92098257 C46.9122926,7.95769181 46.9661325,7.97761971 47.0217209,7.97622127 C47.0832527,7.97412359 47.1409388,7.94755308 47.182193,7.90210351 L47.3321763,7.7335906 L47.8544964,7.14589292 L47.8544964,10.771019 C47.8544964,10.8923344 47.9534368,10.9916242 48.0754513,10.9916242 L48.8169782,10.9916242 C48.9382937,10.9916242 49.037933,10.8923344 49.037933,10.771019 L49.037933,7.14449448 L49.7123345,7.90210351 C49.7528894,7.94755308 49.8112744,7.97412359 49.8724565,7.97622127 C49.9283946,7.97761971 49.9818853,7.95769181 50.0238385,7.92098257 L50.5783232,7.42872897 C50.6227239,7.38992204 50.6489447,7.33643142 50.6517417,7.27699739" id="Fill-21" fill="#E42112" fill-rule="nonzero"></path>
          <path d="M64.694744,1.35953576 L66.6403342,1.35953576 L66.2008724,2.51115747 C65.3680964,2.52514195 64.7164198,3.20793405 64.7164198,4.02287945 L64.7164198,8.08641893 C64.7164198,8.20738467 64.8153601,8.30667447 64.9370249,8.30667447 L65.6313542,8.30667447 C65.7526697,8.30667447 65.852309,8.20738467 65.852309,8.08641893 L65.852309,4.06273521 C65.852309,3.84562621 65.9009049,3.64494896 66.258558,3.64494896 L67.9950806,3.64494896 C68.2062463,3.64494896 68.4016793,3.69494347 68.4016793,4.06273521 L68.4016793,8.08641893 C68.4016793,8.20738467 68.5002699,8.30667447 68.6226341,8.30667447 L69.316264,8.30667447 C69.4375795,8.30667447 69.5368691,8.20738467 69.5368691,8.08641893 L69.5368691,4.02287945 C69.5368691,3.23730145 68.910015,2.51010863 68.0233991,2.51010863 L67.4161234,2.51010863 L67.8555853,1.35953576 L69.4826795,1.35953576 C69.6046939,1.35953576 69.7032846,1.26024598 69.7032846,1.13893064 L69.7032846,0.445300567 C69.7032846,0.322237166 69.6046939,0.223996214 69.4826795,0.223996214 L64.694744,0.223996214 C64.5727295,0.223996214 64.4744885,0.322237166 64.4744885,0.445300567 L64.4744885,1.13893064 C64.4744885,1.26024598 64.5727295,1.35953576 64.694744,1.35953576" id="Fill-23" fill="#E42112" fill-rule="nonzero"></path>
          <path d="M64.2645815,5.5722896 C64.2712242,5.5509633 64.2778665,5.52963695 64.2778665,5.50621297 L64.2778665,5.431396 C64.2778665,5.30973106 64.1785769,5.21079087 64.0576111,5.21079087 L63.3636315,5.21079087 C63.2653905,5.21079087 63.1839309,5.2761683 63.1556124,5.36531937 L63.1517667,5.36462013 C62.9996854,6.18166322 62.6584641,6.93542652 62.1403393,7.62171475 L62.1403393,4.38990205 L64.104459,4.38990205 C64.2264739,4.38990205 64.3250642,4.29026266 64.3250642,4.16859772 L64.3250642,3.47461803 C64.3250642,3.35330269 64.2264739,3.2540129 64.104459,3.2540129 L62.3644405,3.2540129 L62.3644405,2.04715251 L63.8188261,2.04715251 C63.9401416,2.04715251 64.0390816,1.94821233 64.0390816,1.82654738 L64.0390816,1.1325677 C64.0390816,1.01055314 63.9401416,0.911962573 63.8188261,0.911962573 L62.3644405,0.911962573 L62.3644405,0.263782052 C62.3644405,0.142117096 62.2658502,0.0424776979 62.1438353,0.0424776979 L61.4505551,0.0424776979 C61.3285402,0.0424776979 61.2292506,0.142117096 61.2292506,0.263782052 L61.2292506,3.2540129 L60.4412254,3.2540129 L60.4412254,0.85182932 C60.4412254,0.729814757 60.342285,0.630874579 60.2206203,0.630874579 L59.5266407,0.630874579 C59.4053252,0.630874579 59.3060356,0.729814757 59.3060356,0.85182932 L59.3060356,3.2540129 L58.8022445,3.2540129 C58.6809294,3.2540129 58.5816393,3.35330269 58.5816393,3.47461803 L58.5816393,4.16859772 C58.5816393,4.29026266 58.6809294,4.38990205 58.8022445,4.38990205 L61.0047998,4.38990205 L61.0047998,7.81505017 C61.0047998,7.93671511 61.1044391,8.0356553 61.2257546,8.0356553 L61.7977198,8.0356553 C61.5246726,8.33946805 61.2173639,8.62929634 60.8674022,8.90199365 C59.8979285,9.65960272 58.9878884,10.0029216 58.9791484,10.007117 L58.9798473,10.0078162 L58.8847531,10.0473223 C58.7763733,10.0917231 58.72533,10.2165345 58.77043,10.3245646 L59.0448755,10.9814854 C59.0906744,11.0895155 59.2151362,11.1405589 59.3221176,11.0951093 L59.4451812,11.0433667 C59.4465795,11.0430171 59.4472788,11.0423179 59.4479778,11.0423179 C59.7056418,10.9377839 60.5863144,10.5546093 61.5358603,9.82042418 C62.1889353,9.31488532 62.741672,8.74501791 63.1786869,8.12795285 C63.7314232,7.34587095 64.097467,6.48582561 64.2687768,5.57298884 L64.2645815,5.5722896 Z" id="Fill-25" fill="#E42112" fill-rule="nonzero"></path>
          <g id="Group-29" stroke-width="1" fill="none" fill-rule="evenodd" transform="translate(67.085213, 8.283131)">
            <g id="Fill-27-Clipped">
              <mask id="mask-nfznc5o0ik-4" fill="white">
                <use xlink:href="#path-nfznc5o0ik-3"></use>
              </mask>
              <g id="path-71"></g>
              <path d="M2.84619302,1.81876632 L2.79130395,1.76702376 C2.78920628,1.76492609 2.78605977,1.76422686 2.78361249,1.7624788 C2.65390646,1.63661851 2.00957167,1.02339918 0.843965493,0.0951795034 C0.843615881,0.0944802793 0.843266269,0.0937810553 0.842916656,0.0927322197 L0.783133016,0.0469330566 C0.68733935,-0.0289327324 0.548193799,-0.0104033 0.473376845,0.0850407574 L0.0468502901,0.631833819 C-0.0283162751,0.728326709 -0.0111852907,0.86747226 0.0849579905,0.942638826 L0.122016856,0.971307003 C1.36348882,1.95791188 2.00537633,2.5886118 2.01097012,2.59525442 L2.01306779,2.59385598 L2.06446075,2.64175281 C2.15291257,2.72600929 2.29310695,2.72286278 2.3766642,2.63406135 L2.85353488,2.13096978 C2.93849057,2.04286757 2.93464484,1.90197396 2.84619302,1.81876632" id="Fill-27" fill="#E42112" fill-rule="nonzero" mask="url(#mask-nfznc5o0ik-4)"></path>
            </g>
          </g>
          <path d="M67.6944492,4.38997199 L67.6944492,4.35466119 L67.6944492,4.31969999 C67.6944492,4.19803505 67.5955093,4.0997941 67.4734944,4.0997941 L66.7802142,4.0997941 C66.6581997,4.0997941 66.5589097,4.19803505 66.5589097,4.31969999 L66.5589097,4.35466119 L66.5589097,4.38997199 L66.5589097,6.46981337 C66.5589097,7.55221192 66.1327329,8.46924401 65.291217,9.195388 C64.6926813,9.71141519 64.0805109,9.95299703 63.9689845,9.99460088 C63.9672365,9.99530008 63.9658382,9.99495048 63.9637405,9.99564968 L63.8410267,10.0473923 C63.7329966,10.091793 63.6812539,10.2166045 63.7267036,10.3246345 L64.0014983,10.9815553 C64.0465983,11.0895854 64.1714098,11.1406288 64.2787409,11.0951792 L64.3853722,11.0504289 C64.6052784,10.9668716 65.3017054,10.6749457 65.9970833,10.0855 C67.1071014,9.14399502 67.6944492,7.89343315 67.6944492,6.46981337 L67.6944492,4.38997199 Z" id="Fill-30" fill="#E42112" fill-rule="nonzero"></path>
          <path d="M59.5466735,7.84169057 L59.5914238,7.77281701 L59.5963181,7.77561394 C59.62184,7.73505893 60.2273676,6.7753742 60.5336276,5.61431299 L60.5220906,5.61116646 C60.539571,5.57935179 60.5521571,5.54508983 60.5521571,5.50593326 L60.5521571,5.43181554 C60.5521571,5.30980096 60.4539161,5.21086081 60.3319017,5.21086081 L59.6375724,5.21086081 C59.5547145,5.21086081 59.4844424,5.25840802 59.4466845,5.32693198 L59.4354967,5.32413505 C59.217339,6.1544634 58.8058455,6.88480272 58.6778877,7.10016369 C58.674042,7.10505825 58.6687976,7.10785514 58.6653016,7.1130993 L58.5929322,7.22427591 C58.5293027,7.32251686 58.5572716,7.45397097 58.6562119,7.51794992 L59.2543979,7.90531997 C59.3519395,7.96825012 59.483743,7.93993153 59.5466735,7.84169057" id="Fill-32" fill="#E42112" fill-rule="nonzero"></path>
          <g id="Group-38" stroke-width="1" fill="none" fill-rule="evenodd">
            <path d="M10.8978934,4.05399507 C11.0289978,3.33764023 11.6614458,2.5663963 12.5683392,2.15630151 C13.4577519,1.75564624 14.8527035,1.73187263 15.6700962,2.22132933 C16.2168893,2.54926532 16.6224391,3.17681874 15.9165726,3.44636954 C15.2204953,3.71137538 11.7404581,4.96298609 11.2520503,4.87488387 C11.0601133,4.84062191 10.7709842,4.73888483 10.8978934,4.05399507 M16.155008,8.55175255 C14.4863102,9.1999331 13.3850326,8.82829559 13.020737,8.68740199 C11.5778886,8.13012059 11.1485651,6.81068516 11.1485651,6.81068516 C11.1485651,6.81068516 15.9707625,5.24477329 17.163988,4.72455078 C18.4547553,4.16132593 18.4893668,3.96659209 18.4893668,3.96659209 C17.836991,1.77941985 15.8176324,0.201970813 13.4185954,0.201970813 C10.4930428,0.201970813 8.1209258,2.57408777 8.1209258,5.49964042 C8.1209258,8.42624189 10.4930428,10.7983588 13.4185954,10.7983588 C15.8595859,10.7983588 17.915304,9.14714167 18.5292226,6.90158427 C17.5814247,7.73785598 17.3415909,8.09096403 16.155008,8.55175255" id="Fill-34" fill="#E42112" fill-rule="nonzero"></path>
            <g id="Fill-36-Clipped">
              <mask id="mask-nfznc5o0ik-6" fill="white">
                <use xlink:href="#path-nfznc5o0ik-5"></use>
              </mask>
              <g id="path-73"></g>
              <path d="M7.72422113,9.15172161 L3.79842875,9.15172161 L3.79807914,9.15137201 C3.52922756,9.14437976 3.31316739,8.92866919 3.30687437,8.66051685 L3.30617515,8.65981761 L3.30617515,0.678177225 C3.30617515,0.303043624 3.00306161,-6.99220633e-05 2.62792801,-6.99220633e-05 L0.679890322,-6.99220633e-05 C0.305106333,-6.99220633e-05 0.00164317608,0.303043624 0.00164317608,0.678177225 L0.00164317608,9.79675563 C0.00129356415,9.80654476 -0.00010488358,9.81633389 -0.00010488358,9.82682226 L-0.00010488358,10.3257185 C-0.00010488358,10.6984048 0.301959825,11.0008191 0.675345368,11.0008191 L0.679890322,11.0008191 L2.62792801,11.0008191 L7.72422113,11.0008191 C8.09690744,11.0008191 8.39932178,10.6984048 8.39932178,10.3257185 L8.39932178,9.82682226 C8.39932178,9.45378631 8.09690744,9.15172161 7.72422113,9.15172161" id="Fill-36" fill="#E42112" fill-rule="nonzero" mask="url(#mask-nfznc5o0ik-6)"></path>
            </g>
          </g>
        </g>
      </g>
    </g>
  </g>
</svg>
