
<svg width="70px" height="14px" viewBox="0 0 70 14" version="1.1" xmlns="http://www.w3.org/2000/svg" xmlns:xlink="http://www.w3.org/1999/xlink">
    <defs>
        <polygon id="path-nnhyki7boz-1" points="0 0 70 0 70 14 0 14"></polygon>
    </defs>
    <g id="页面-1" stroke="none" stroke-width="1" fill="none" fill-rule="evenodd">
        <g id="pptv">
            <mask id="mask-nnhyki7boz-2" fill="white">
                <use xlink:href="#path-nnhyki7boz-1"></use>
            </mask>
            <g id="a"></g>
            <path d="M53.6694384,1.94504272 C54.0877298,1.97818603 54.3123042,2.16275995 54.3448761,2.49819305 L54.3448761,3.20163112 L55.4054618,3.20163112 C55.5123204,3.21191697 55.5860357,3.23477442 55.6523223,3.27020347 C55.5986073,2.78219688 55.7751811,2.51419326 56.2254729,2.44733522 L61.5775452,2.44733522 C61.8992638,2.48047852 62.0764091,2.71533884 62.1084095,3.15134473 C62.0764091,3.58735061 61.8992638,3.80506784 61.5775452,3.80506784 L59.4569451,3.80506784 C59.3980872,4.24164516 59.4055159,4.2485024 59.3255148,4.8610821 L60.8072491,4.8610821 C61.3535422,4.8610821 61.6266887,5.14565737 61.6266887,5.71537935 L61.6266887,10.4925867 C61.5946883,10.9285926 61.3695424,11.1628815 60.9518225,11.1965962 C60.5335311,11.1965962 60.3249568,10.9794504 60.3249568,10.5434445 L60.3249568,6.3193875 C60.2948574,6.25425024 60.2437391,6.20111938 60.179812,6.16852832 L57.5763483,6.16852832 C57.4792041,6.20167163 57.4312035,6.25195802 57.4312035,6.3193875 L57.4312035,10.5434445 C57.3992031,10.9451643 57.1900574,11.1628815 56.8043379,11.1965962 C56.3871894,11.1628815 56.1774723,10.9451643 56.1774723,10.5434445 L56.1774723,5.81595213 C56.1454718,5.17937211 56.4506188,4.8610821 57.0940561,4.8610821 L57.9134957,4.8610821 C57.9454961,4.69307983 58.0260687,3.93878393 58.0580691,3.80506784 L56.2260444,3.80506784 C56.1180429,3.80506784 56.0808995,3.82163949 55.9848982,3.75478144 C55.9848982,4.25764538 55.7917528,4.50907734 55.4060333,4.50907734 L54.3454475,4.50907734 L54.3454475,5.76623718 L55.5991787,5.76623718 C55.8883255,5.79938048 56.0488991,6.03481223 56.0808995,6.46967525 C56.0488991,6.90568113 55.8883255,7.12339836 55.5991787,7.12339836 L54.3454475,7.12339836 L54.3454475,10.0400092 C54.4094484,9.80572029 54.7951679,8.31370015 54.8277398,8.17941262 C54.9563129,7.81083621 55.2134593,7.71026343 55.5991787,7.87769426 C55.9203259,8.07941127 56.0488991,8.38055819 55.9848982,8.78284934 C55.502606,11.6663168 54.0877298,13.3760542 51.7414124,13.9120615 C51.2271197,14.0126342 50.9054011,13.8789182 50.7768279,13.5097703 C50.7128271,13.0743359 50.9214013,12.7726175 51.4036935,12.6046152 C52.560852,12.2360388 53.332291,11.7834613 53.7180105,11.2468826 C53.300862,11.2468826 53.0917163,11.045737 53.0917163,10.6434459 L53.0917163,7.12339836 L51.3076922,7.12339836 C50.9214013,7.12339836 50.7128271,6.90625257 50.6802552,6.46967525 C50.7128271,6.0342408 50.9214013,5.79938048 51.3076922,5.76623718 L51.3076922,3.10105833 C51.3076922,2.76562523 51.5002663,2.56390822 51.8859858,2.49762161 C52.3037057,2.53076492 52.5288516,2.7147674 52.560852,3.05077194 L52.560852,5.76623718 L53.0911449,5.76566574 L53.0911449,2.54847944 C53.0911449,2.21304634 53.2837189,2.01190077 53.6694384,1.94504272 Z M58.8775087,6.77196504 C59.2952287,6.80510835 59.5203746,7.02339701 59.552375,7.42568816 C59.552375,8.39712984 59.5203746,9.11828244 59.4563737,9.58743163 C59.3974791,10.06393 59.300598,10.5349596 59.1666555,10.9960221 C59.9726706,11.4782934 60.7764992,11.9642097 61.5781166,12.4537561 C61.9958366,12.7223311 62.1244097,13.0571928 61.9638361,13.4594839 C61.7066898,13.8286318 61.3689709,13.8954898 60.951251,13.6606295 L58.588362,12.2023241 C57.5272048,13.1074792 56.6271926,13.6606295 55.8877541,13.8617751 C55.3734614,13.9286331 55.036314,13.794917 54.875169,13.4594839 C54.7785962,13.0240495 54.9391698,12.7389028 55.3574612,12.6046152 C56.5786205,12.1017513 57.3666312,11.548601 57.7203502,10.9451643 C58.1060697,10.3754423 58.2826436,9.21885523 58.2506431,7.47597455 C58.2826436,7.03996866 58.4917892,6.80510835 58.8775087,6.77196504 Z M52.2711338,7.5759759 C52.592281,7.67654869 52.7374258,7.94512374 52.7054254,8.38112963 C52.5122799,9.31942801 52.3351347,10.0400092 52.1745611,10.5434445 C52.0145589,11.0120223 51.726555,11.3125978 51.3551214,11.1965962 C50.9505446,11.0514514 50.8076855,10.9663074 50.9694019,10.2914411 C51.0334028,9.95657947 51.1299755,9.50400193 51.2585487,8.93370852 C51.3871219,8.46455933 51.4676944,8.16284097 51.4996948,8.02855344 C51.628268,7.65997703 51.8854143,7.50911785 52.2711338,7.5759759 Z M39.1349564,2.41419191 C39.8366802,3.35191886 39.7441075,3.60792232 39.3772454,3.93878393 L40.2784004,3.93878393 C40.7795501,3.97192723 40.9801242,4.28736006 40.8801229,4.88336811 C40.5795474,5.74509403 40.1286841,6.65653491 39.5269617,7.61826218 C39.9612533,7.91655193 40.4292596,8.29769993 40.9298378,8.76113476 C41.215556,9.07371041 41.1298405,9.4074292 40.8298365,9.70629038 C40.4624029,10.0377234 40.2401142,10.0120088 39.92811,9.75600534 C39.718232,9.58310171 39.5329042,9.38239402 39.3772454,9.15942585 L39.3772454,13.5417707 C39.3772454,13.7646309 39.1955287,13.9446406 38.9715257,13.9446406 L38.4298041,13.9446406 C38.3225562,13.9450888 38.2195282,13.9028821 38.1434244,13.8273142 C38.0673205,13.7517462 38.0243867,13.6490191 38.0240843,13.5417707 L38.0240843,9.35828568 C37.990941,9.39142899 37.8069385,9.60686047 37.6737938,9.70629038 C37.2395023,10.0377234 36.8720687,10.0708667 36.5720647,9.80572029 C36.3046325,9.47428725 36.3377758,9.1097109 36.672066,8.7114198 C37.7406519,7.61826218 38.542377,6.59081974 39.0766699,5.62909247 C39.2098146,5.36451747 39.1932429,5.23194425 39.0263835,5.23194425 L37.2737884,5.23194425 C36.8394969,5.23194425 36.605208,5.01594133 36.5726361,4.58507837 C36.6389227,4.18735871 36.8897833,3.97192723 37.3235034,3.93935537 L38.3755176,3.93935537 C38.1080854,3.7067808 37.9360831,3.4296342 37.7412233,3.09362966 C37.4937914,2.66619532 37.5069344,2.3479053 37.874368,2.14904548 C38.2418015,1.88389904 38.7029506,1.78904062 39.1349564,2.41419191 Z M44.3864559,4.93365451 C44.8207475,4.96622637 45.0710366,5.1650862 45.1378946,5.53023399 L45.1378946,5.87766725 C45.1378946,6.63996326 45.0881797,7.46854588 44.9876069,8.3634151 C45.5550431,8.23084189 45.8721903,8.41313006 45.9390483,8.91085107 L45.9390483,11.8440335 C45.9390483,12.2748965 46.0270495,12.3863266 46.390483,12.3863266 C47.0116342,12.3503261 47.0293487,12.3194685 47.0522062,11.8977485 C47.0876352,11.36917 47.0590634,11.7491751 47.1053498,11.0537371 C47.1322073,10.6497317 47.2584947,10.485158 47.6927863,10.4520147 C48.1270779,10.4520147 48.3607953,10.6343029 48.3939386,10.9988793 C48.3939386,12.1588949 48.2773656,12.8880476 48.0436482,13.1863374 C47.776216,13.5509137 47.2253514,13.7332019 46.3899115,13.7332019 C45.0544649,13.7663452 44.5870301,13.4429123 44.5870301,12.5897579 L44.5870301,10.10401 C43.9858791,11.8274619 42.7332907,13.0537642 40.8298365,13.7829169 C40.3624016,13.9154901 40.0286828,13.8326318 39.8281086,13.5343421 C39.6275345,13.1034791 39.7109642,12.7886177 40.0783977,12.5897579 C41.5481319,11.9931784 42.5161449,11.1971677 42.9835798,10.2034399 C43.4510147,9.40800064 43.7018752,7.83312223 43.7350185,5.4799476 C43.7687333,5.11537125 43.9858791,4.93365451 44.3864559,4.93365451 Z M46.5407707,2.69591 C47.3087811,2.69591 47.6762146,3.01134283 47.6424999,3.64049419 L47.6424999,9.15942585 C47.6093566,9.55714551 47.358496,9.75600534 46.8910612,9.75600534 C46.4567696,9.72286203 46.2396238,9.50743055 46.2396238,9.1097109 L46.2396238,4.33707502 C46.2396238,4.13764376 46.1733372,4.03878528 46.0396211,4.03878528 L42.8338635,4.03878528 C42.6664327,4.07192858 42.583003,4.15421541 42.583003,4.28678863 L42.583003,9.1097109 C42.5498597,9.54057386 42.2989992,9.7554339 41.8315643,9.7554339 C41.3972727,9.72286203 41.1801269,9.4908589 41.1801269,9.05999594 L41.1806983,9.05999594 L41.1806983,3.59135067 C41.1469836,2.99419975 41.4978455,2.69591 42.2321411,2.69591 L46.5407707,2.69591 Z" id="形状" fill="#009BFF" fill-rule="nonzero" mask="url(#mask-nnhyki7boz-2)"></path>
            <g id="编组-2" mask="url(#mask-nnhyki7boz-2)">
                <g transform="translate(8.100000, 1.200000)">
                    <rect id="矩形" fill="#009BFF" x="0" y="5.01421053" width="3.22342105" height="8.59578947"></rect>
                    <rect id="矩形" fill="#FFBE00" x="0" y="0" width="3.22342105" height="3.22342105"></rect>
                    <path d="M5.19328947,0 C8.16036662,0 10.5656579,2.40529127 10.5656579,5.37236842 C10.5656579,8.26707783 8.27626704,10.6270714 5.40936334,10.740471 L5.19328947,10.7447368 L5.19328947,8.05855263 L5.19328947,8.05855263 C6.67682805,8.05855263 7.87947368,6.855907 7.87947368,5.37236842 C7.87947368,3.88882985 6.67682805,2.68618421 5.19328947,2.68618421 L5.19328947,0 Z" id="形状结合" fill="#009BFF"></path>
                </g>
            </g>
            <g id="编组-2" mask="url(#mask-nnhyki7boz-2)">
                <g transform="translate(20.100000, 1.200000)">
                    <rect id="矩形" fill="#009BFF" x="0" y="5.01421053" width="3.22342105" height="8.59578947"></rect>
                    <rect id="矩形" fill="#FFBE00" x="0" y="0" width="3.22342105" height="3.22342105"></rect>
                    <path d="M5.19328947,0 C8.16036662,0 10.5656579,2.40529127 10.5656579,5.37236842 C10.5656579,8.26707783 8.27626704,10.6270714 5.40936334,10.740471 L5.19328947,10.7447368 L5.19328947,8.05855263 L5.19328947,8.05855263 C6.67682805,8.05855263 7.87947368,6.855907 7.87947368,5.37236842 C7.87947368,3.88882985 6.67682805,2.68618421 5.19328947,2.68618421 L5.19328947,0 Z" id="形状结合" fill="#009BFF"></path>
                </g>
            </g>
        </g>
    </g>
</svg>