
<svg fill="none" viewBox="0 0 71 14" width="71px" height="14px" >
  <path fill="currentColor" d="M19.371976,7.74974189 C19.602069,7.58796486 20.1938295,6.95693074 20.3442002,6.74174656 C20.373367,6.69767269 20.5405895,6.51204392 20.5405895,6.51204392 C20.6190156,6.20508237 20.3889226,5.87012096 20.3448484,5.66115897 C20.3318854,5.65597381 20.4835524,5.50664116 20.3448484,5.3500493 C20.2093851,5.19345743 19.7654027,5.43404891 19.4724391,5.58441858 C19.3596611,5.63471465 19.3842908,5.75501038 19.2805869,5.81360271 C18.5462335,6.22011934 18.4016961,6.26160063 17.6239167,5.96915754 C17.5150276,5.84160258 17.4106755,5.76486219 17.6239167,5.50560413 C17.837806,5.24479053 18.899475,4.80871847 19.5703097,4.57642325 C19.554106,4.38353525 19.6396617,4.05894417 19.5703097,3.87953759 C19.554106,3.84842662 19.3084573,3.74939004 19.2805869,3.72294572 C18.0685473,2.60191388 18.5935484,2.33124846 18.5935484,2.33124846 C18.5935484,2.33124846 19.3181795,2.01028699 19.7654027,2.17569363 C20.2035518,2.34006324 20.6663305,4.16005481 21.2204984,3.02709709 C21.2678133,2.93272716 21.44411,2.61954342 21.4162395,2.48524775 C21.3935543,2.38672969 21.0506832,2.23998963 21.0286461,2.17569363 C20.9968868,2.11191615 21.0351276,1.86095434 21.0351276,1.86095434 L21.1226278,1.71214022 C21.2522577,1.65925157 21.5102212,1.55658538 21.5102212,1.55658538 C21.5102212,1.55658538 21.9042961,1.54051138 22.1000373,1.63539983 C22.2251301,1.6955477 22.6639274,2.46917375 22.6820756,2.64235813 C22.7047608,2.87932 22.5978161,3.3039847 22.4902233,3.49428011 C22.4273528,3.58605747 22.1531855,3.67368669 22.0993891,3.80331572 C21.998926,4.00035184 22.1058706,4.09886991 21.998926,4.26531358 C21.9328147,4.36331313 21.6424437,4.4462757 21.6113325,4.57642325 C21.4220729,5.27745704 22.1914264,6.20611941 22.2918895,6.82159804 C22.6386495,8.99573612 22.1655004,11.5556502 20.5405895,12.3966833 C20.5185525,12.4070537 20.2917001,12.4303869 20.2631815,12.4443868 L19.6649395,12.3178689 C19.5703097,12.193425 19.38105,12.1104624 19.2805869,12.0103888 C19.1444755,11.8740191 19.116605,11.6894273 18.9843825,11.5452799 C18.899475,11.451947 18.552715,11.3337253 18.4995667,11.2341702 C18.0264175,10.407137 19.0219752,10.4408405 19.5703097,10.6918023 C19.6869766,10.745728 19.900866,10.9925417 20.0583663,11.002912 C20.2631815,11.0174305 20.3357743,10.8924681 20.4459597,10.8473572 C21.2717022,10.4947662 20.7700345,10.1639529 20.832905,9.53032623 C20.8432754,9.40951198 21.1005907,9.09062457 21.1226278,8.99055096 C21.2392947,8.42536839 21.075961,7.91203743 20.9346644,7.51640963 C20.91522,7.53507621 20.6663305,7.57137234 20.637812,7.59522408 C20.5088302,7.69529769 20.534108,7.92862995 20.4459597,8.06033304 C20.2917001,8.26359136 19.9825328,8.43988684 19.7654027,8.60477496 C19.4568835,8.81736657 19.1418829,9.2301054 18.6946597,9.30010508 C18.5306779,9.32291979 18.0996584,9.21973508 18.1113251,9.21973508 C18.0996584,9.21092031 17.7904911,9.3104754 17.6239167,8.91173651 C17.4553978,8.51403464 18.2474365,8.42536839 18.9850307,7.98255562 L19.371976,7.74922337 L19.371976,7.74974189 Z M30.6951481,1.57162235 C31.5461684,1.46636358 31.9363544,1.89413938 31.6835761,2.42354433 C31.3057049,3.21376289 29.4571825,3.11005967 28.2256984,3.27702186 C28.059124,3.29828102 27.6047712,3.48961347 27.4388449,3.50724302 C26.9138438,3.55390947 26.5456948,3.4325767 26.0531012,3.5839834 C25.8100451,3.65813121 25.6473596,3.77842695 25.4613407,3.89509307 C25.2792107,4.00916662 25.0931918,4.07190707 24.9655063,4.20620274 C24.8443024,4.3368688 24.8695802,4.51212725 24.8695802,4.51212725 C24.8695802,4.51212725 24.9752286,5.2504942 25.0646732,5.5237522 C25.1359696,5.73738084 25.506063,6.10086063 25.5605076,6.37567418 C25.8132859,7.68959402 24.9045803,11.6375757 24.2778197,12.1068328 C23.7210592,12.5169791 23.3730029,12.4972755 23.0942986,12.3417206 C22.8091129,12.1846102 22.9089279,12.1996472 22.7935573,12.031648 C22.6431866,11.8086861 22.6911496,11.5577243 22.6976311,11.5675761 C22.7870758,11.4156508 22.6976311,11.3155772 22.7935573,11.1812816 C22.9348539,10.9800973 23.347077,10.826098 23.4877254,10.6368396 C23.529207,10.5777288 23.4682809,10.4620997 23.4877254,10.4045444 C23.5486515,10.1898787 23.9005967,9.87099132 23.9770783,9.63039984 C24.3517087,8.5062569 24.5818018,7.55633538 24.4729127,6.29634121 C24.3802273,5.29301252 23.2770768,4.55049744 23.6860592,3.50724302 C23.7210592,3.39835463 23.958282,3.01050458 24.0794859,2.88761626 C24.6135611,2.33695214 26.6033802,2.80983884 27.7331048,2.57909917 C27.8160679,2.55939555 28.0338461,2.36961866 28.1297723,2.34576691 C28.5005138,2.2519155 28.7344958,2.34835949 29.1149595,2.26695246 C29.5751457,2.1684344 29.9821836,1.90658376 30.4008882,1.72717719 C30.5032958,1.6794737 30.5408885,1.5892519 30.6951481,1.57162235"></path>
  <path fill="currentColor" d="M30.2245915,4.14812894 C30.2245915,4.14812894 30.5940367,4.14812894 30.7910742,4.21916565 C31.4936683,4.47323854 30.8461669,4.99123614 30.6744073,5.29975323 C30.5499626,5.52893736 30.3192213,5.88049128 30.2245915,6.09152734 C30.1662581,6.21389715 30.2719064,6.32434108 30.2245915,6.44982198 C30.1986655,6.51619204 30.0891283,6.7142652 29.8875538,6.73759843 C29.7163214,6.75230926 29.5469757,6.69881674 29.4344973,6.59448798 C29.0469038,6.19523057 29.1091262,4.90827357 29.4344973,4.50901615 C29.5621827,4.34983171 30.2245915,4.14812894 30.2245915,4.14812894 M27.7830123,4.66664505 C27.7830123,4.66664505 28.1239389,4.72108925 28.2166243,4.82945912 C28.3326431,4.9736066 28.2697726,5.11982814 28.3190319,5.2888644 C28.5044027,5.95671315 28.4447729,6.92115313 28.2166243,7.57189086 C28.1239389,7.81818601 27.7629196,8.16662885 27.7071788,8.40825736 C27.6812528,8.49121993 27.7434752,8.63018225 27.7071788,8.7152189 C27.5749563,8.98847689 27.1646776,9.45773398 27.0888441,9.77558436 C26.9196771,10.5134328 27.3299558,11.1543187 28.4181988,10.9189124 C28.5776436,10.8841718 28.6969031,10.680395 28.8291256,10.6145434 C28.7066253,9.9508428 28.0448647,9.1175874 29.2361635,9.55158539 C30.1157024,9.86788023 30.287462,10.5938028 30.4631105,11.4498729 C30.4034808,11.5447613 30.3075547,11.6583164 30.0528319,11.67802 C29.7981091,11.7039458 29.7449609,11.6520942 29.645794,11.6054277 C29.563479,11.5660205 29.5660716,11.5556502 29.4409787,11.3772806 C29.3113488,11.1963185 29.1694041,11.2538738 29.1331077,11.3772806 C29.073478,11.4068361 29.0307001,11.6054277 29.0307001,11.6054277 C29.0307001,11.6054277 28.2133836,12.2115731 26.5787505,11.7568344 C25.996064,11.4747617 25.744582,10.3205448 26.0686568,9.6257332 C26.1522681,9.44788217 26.4763428,9.20625366 26.5787505,9.01699528 C26.7842139,8.61618232 26.7842139,8.27396168 26.9890291,7.87470427 C27.0551404,7.73937156 27.3558817,7.50863189 27.3993078,7.34218822 C27.5743081,6.58100656 26.9728254,6.22634153 26.8866215,5.66945523 C26.8205102,5.23701278 26.8898622,4.99434724 27.1944925,4.82945912 C27.3500484,4.74286692 27.326715,4.7454595 27.6008823,4.68012647 L27.7830123,4.66664505 Z M30.1033876,6.74070952 C30.1202394,6.76507978 30.3717215,6.80241294 30.4008882,6.82833875 C30.7612593,7.12130035 30.742463,8.15833259 30.8967226,8.68825606 C31.1903343,9.65684417 31.908484,10.7223948 32.6920967,11.3098735 C32.8171896,11.4032064 32.9170046,11.5950574 33.0881161,11.6495016 C33.603395,11.8071305 34.0836738,11.7127606 34.2833038,12.1576474 C34.7058973,13.1044578 33.0621901,13.094606 32.3952443,12.7466817 C32.1022807,12.5973491 31.2577419,11.8854264 31.0963526,11.6495016 C30.8124631,11.2263925 30.8001483,10.7732094 30.603759,10.2961745 C30.4806106,10.0089166 30.0982024,9.63351094 30.0042207,9.36647514 C29.83635,8.88684773 29.7300534,7.20218887 29.9044057,6.82833875 L30.1033876,6.74070952 L30.1033876,6.74070952 Z M7.54519166,2.07717557 C7.86861827,2.05384234 7.91009984,2.16221221 8.07797056,2.24154517 C9.28482497,2.80154258 7.009172,3.61872398 6.48352274,3.62961282 C6.28389269,3.63324243 6.03629957,3.54665024 5.95787348,3.46368766 C5.63768762,3.15465206 6.00972544,3.03539335 6.24305927,2.85961639 L6.38046697,2.72998736 C6.45954121,2.5510993 7.25676512,2.09221253 7.54519166,2.07717557"></path>
  <path fill="currentColor" d="M9.75408522,1.09199494 C9.90445591,1.04636552 10.4443645,0.939551204 10.6640871,1.25273494 C10.8799209,1.56643719 10.5623277,3.52902069 10.5623277,4.78901486 C10.5623277,5.02597672 10.4709386,5.44078962 10.5623277,5.67152929 C10.5791796,5.71560316 11.105477,6.1381938 11.1676993,6.15374928 C11.5967743,6.2413785 13.1737221,6.07960147 13.2923335,5.91367632 C13.4323338,5.70108471 13.3409447,5.46723394 13.3895559,5.19034633 C12.4866836,5.19034633 11.5313112,4.91656982 11.4723296,4.86731079 C11.4165887,4.81908879 11.2597366,4.72575589 11.4723296,4.54738635 C11.6914041,4.36642422 12.735573,4.26738764 13.4952043,4.30368377 C13.4459449,3.82664894 13.6455749,3.28272554 13.2923335,3.26198489 C12.9423327,3.24228128 11.8093674,3.1110967 11.6719597,3.01983787 C11.5004067,2.90072949 11.4238448,2.71618671 11.4723296,2.53865491 C11.5306631,2.32554479 11.6622374,2.32554479 11.7769599,2.29910046 C12.3168684,2.16273072 13.0006662,2.35769278 13.2923335,2.45828491 C14.5393731,2.8922829 14.8271515,3.26198489 14.7059476,4.54738635 C14.5717806,5.93960212 14.9781704,6.32434108 13.6948343,6.87604223 C13.2955742,7.04767106 13.2398333,7.15707797 12.484091,7.11663371 C12.1664977,7.10004119 11.3284404,6.90870875 10.8637172,7.03885629 C10.8144578,7.04922661 10.7159391,7.27789222 10.5299202,7.31366983 C10.4151977,7.41218789 10.5065868,7.40441015 10.4605682,7.43707667 C10.4151977,7.47440983 10.4605682,7.60092776 10.4605682,7.60092776 C10.8079763,7.68026073 11.0341805,7.65277937 11.3712183,7.75959369 L12.5819616,8.32322071 C12.9222401,8.6768487 12.974092,9.61432584 12.6863137,10.0089166 C12.52298,10.2287674 12.0511271,10.3521743 11.8748305,10.5735807 C11.8126081,10.6529136 11.8391822,10.8120981 11.7769599,10.8924681 C11.9046453,10.9692085 11.8586267,11.0656525 11.9759418,11.1372077 C12.1561273,11.2357257 12.3395537,11.148615 12.5819616,11.2175777 C12.86974,11.2953551 13.2560371,11.4949838 13.5930748,11.6168351 L13.5930748,11.6977236 C13.8523346,11.7443901 14.140113,11.6495016 14.4052062,11.6977236 C14.486873,11.7106865 14.7973366,11.9134263 14.9088184,11.9414262 C15.5310419,12.064833 15.9004871,11.902019 16.1234506,12.339128 C16.2932657,12.6880894 16.194747,13.2470498 15.8188203,13.384975 C14.7059476,13.7780103 13.3150187,12.8612738 12.6863137,12.5828306 C12.4114983,12.4583867 12.1431644,12.4718682 11.8748305,12.339128 C11.4360332,12.1244624 10.9745508,11.6173536 9.95630787,11.8589821 C9.78065935,11.8994264 9.44945495,12.2572025 9.2472323,12.339128 C8.99769473,12.4376461 8.82074991,12.4039426 8.54010117,12.4993495 C7.88158126,12.72283 6.89380139,13.4876412 5.61046534,13.1423095 C5.57157637,13.1340132 5.43027977,12.9255698 5.41083529,12.9048291 C5.06990864,12.5605344 5.18525749,12.5278679 5.30583507,12.0995736 C5.72194706,12.0995736 6.25213337,12.0451294 6.52046727,12.017648 C7.50565454,11.9072041 8.50056405,11.6873533 8.8440833,11.3762436 C9.18436179,11.0640969 8.62824951,10.6176545 8.14019292,10.0923977 C8.0287112,9.97521306 8.06176683,9.85543584 7.93408137,9.77091771 C7.60352511,9.54173359 7.16861679,9.49091901 6.82120864,9.28973476 C6.75250479,9.24514237 6.75898629,9.21921656 6.69028244,9.21299437 C6.26509636,9.16736495 6.42518929,8.59077503 7.22695024,8.64262664 C7.70204384,8.6768487 10.0360303,10.2640265 10.1598268,10.3314336 C10.27779,10.4003963 10.4936238,10.3848408 10.6640871,10.3314336 C10.7788096,10.2966931 10.853995,10.1795084 10.9285322,10.1219531 C11.105477,9.9829908 11.3712183,9.79839907 11.4723296,9.6096592 C11.5805706,9.40225275 11.4723296,8.96566218 11.4723296,8.96566218 C11.3576071,8.90447728 11.2240883,8.61410825 10.9654767,8.56484922 C10.4346422,8.45596084 9.36130661,8.70536709 9.14806542,8.56484922 C8.93223163,8.42277581 9.09945421,8.03025911 9.2472323,7.84307479 L9.95695602,7.60092776 C9.91158556,7.57603899 9.93751154,7.52315034 9.82602982,7.3898917 C9.72427034,7.25715158 9.75991857,7.26026267 9.65232575,7.19855925 C8.94843537,6.79826481 7.77722919,7.30174396 6.92361627,7.03885629 C5.9410216,6.72930217 6.11472567,6.45189605 6.11472567,5.4304193 C6.11472567,5.43871555 6.07842929,4.98553247 6.11472567,4.94923634 C6.15037389,4.90775505 6.02268843,4.14398081 6.32083721,3.90079675 C6.6150971,3.66383488 7.02407944,3.7576863 7.33195047,4.54738635 C7.93084062,4.54738635 8.75593496,4.59146022 8.94584277,4.62671931 C9.13575058,4.66560802 9.21676927,4.8870144 9.04760225,5.03012485 C8.87325002,5.17064272 8.54593452,5.25101272 8.03584084,5.3500493 C7.80397766,5.39054919 7.56871838,5.41741102 7.33195047,5.4304193 C7.27620961,5.98367599 7.33195047,6.2476007 7.52833977,6.31552631 C7.72796982,6.37671121 9.3742696,6.25848953 9.55380702,5.7524178 C9.7145481,5.27330891 9.59334414,4.47946074 9.55380702,3.98531488 C9.50195506,3.45435437 9.20380628,1.61206661 9.44945495,1.25273494 C9.49223282,1.19051301 9.60371453,1.14021694 9.75408522,1.09199494 M3.35101611,2.12487905 C3.61222037,2.05954602 3.68092422,2.01806473 4.03546201,2.25450808 C4.39194424,2.49043291 4.27786993,3.74264933 4.22472167,4.26479506 C4.33037004,4.3047208 4.4424999,4.47894222 4.51379635,4.49916435 C4.74713018,4.56034925 5.04527896,4.44472016 5.28509428,4.49916435 C5.44065017,4.5328679 5.68694698,4.68686718 5.76472493,4.80560737 C5.83861397,4.93005124 5.8729659,5.08353201 5.76472493,5.19397595 C5.65194691,5.30286433 5.44713166,5.39671575 5.28509428,5.42575265 C4.51379635,5.55693723 4.15666597,5.42056749 3.93888773,5.96760199 C3.82092451,6.26108211 3.77425775,6.72774662 3.93888773,6.97352326 C3.97972115,7.03211558 4.01990642,7.08344868 4.22472167,7.125967 C4.4424999,7.16848532 4.83138962,7.03107855 4.89879717,7.05078216 C4.95259358,7.0647821 5.08935313,7.20529996 5.08935313,7.20529996 C5.08935313,7.20529996 5.1204643,7.57603899 4.99601959,7.74455673 C4.80935253,7.98670375 4.24416615,7.92759292 4.13138813,8.28692458 C4.06009169,8.51610871 4.21888832,8.88062554 4.22472167,8.98329173 C4.24416615,9.23892018 4.20333273,9.75225113 4.20916608,9.80825087 C4.2499995,10.1312864 4.22472167,9.90988003 4.22472167,9.90988003 C4.40231463,10.4895811 4.1845364,12.1151291 3.93888773,12.3868315 C3.93888773,12.3868315 3.70231315,12.6310526 3.66212788,12.6564599 L3.45666448,12.7726075 C3.08333036,12.8612738 2.51814398,13.0406803 1.92379087,12.9255698 C1.42601204,12.8337924 0.657954856,12.0912773 0.96323328,11.3803917 C0.969066626,11.3487623 1.15573369,11.2263925 1.15573369,11.2263925 C1.15573369,11.2263925 1.42601204,11.2025407 1.54138265,11.2263925 C1.80258691,11.2834292 2.16036544,11.8693524 2.30619909,11.9222411 C2.45527348,11.9709816 2.58295893,11.951278 2.69184805,11.9222411 C3.38536804,11.7293531 3.0995341,9.72943642 3.17083055,8.98329173 C3.06842292,8.94440302 2.95305231,8.76655199 2.88110771,8.75151503 C1.72480897,8.43988684 1.31712292,9.86476913 0.101842568,8.98329173 C-0.122417166,8.82255173 0.0765647364,8.61255271 0.195176099,8.44092387 C0.418787683,8.1168513 0.785640312,8.24181368 1.31712292,8.1267031 C1.38906751,8.11166614 1.68721629,7.90996337 1.73129046,7.90011156 C1.99832806,7.80729718 2.24073598,7.92240775 2.50258839,7.82492672 C2.65814428,7.75751963 3.13647862,7.19233706 3.17083055,7.05078216 C3.31083084,6.46226637 3.034071,5.3630122 2.50194024,5.27175336 C2.11369868,5.20486478 1.93286496,5.39412317 1.73064231,5.42575265 C1.38258602,5.48175239 0.758418032,5.60464071 0.387676506,5.50353007 C0.343602339,5.4916042 0.194527949,5.34486414 0.194527949,5.34486414 C0.194527949,5.34486414 0.160176025,4.89271808 0.290454078,4.72886699 L0.480361888,4.60597867 C0.551658335,4.58212693 0.750640237,4.51731241 0.866010852,4.49864583 C1.35730819,4.41049809 1.90175379,4.56708996 2.40212521,4.49864583 C2.56999594,4.46960893 2.8312002,4.30938745 2.98027459,4.26427655 C2.90573739,3.8510192 2.74434816,2.48835885 3.07360812,2.25450808 C3.15786756,2.19280466 3.08657111,2.18554543 3.35036796,2.12436053"></path>
  <path fill="#F53851" d="M69.5918971,1.71525132 C70.1388395,5.22425741 70.136009,8.77416475 69.5834711,12.2826098 C69.4538412,12.9255698 68.8231917,13.497493 67.9760603,13.5685298 C57.3243711,14.1435641 48.324815,14.1440826 37.6718295,13.5685298 C36.8259944,13.4980116 36.1940486,12.9266068 36.0650668,12.2831283 C35.5124218,8.77435234 35.5093736,5.2241128 36.0559928,1.7147328 C36.1843264,1.07177281 36.815624,0.498812505 37.6627554,0.427775797 C48.3222224,-0.142591932 57.3276119,-0.142591932 67.9857826,0.427775797 C68.8335621,0.498812505 69.4635635,1.07229133 69.5918971,1.71525132"></path>
  <path fill="#FEFEFE" d="M59.7503948,11.2284665 C61.1354903,10.7721723 62.0292885,10.2702487 62.430493,9.72269571 C62.867994,9.20573514 63.0682722,8.15625852 63.0319758,6.57478437 C63.0682722,6.17915657 63.3054949,5.96604644 63.7429958,5.93597251 C64.2167931,5.96604644 64.472164,6.1641196 64.5084604,6.52915495 C64.5084604,7.41063235 64.472164,8.06499969 64.3995713,8.49070142 C64.3327703,8.92307171 64.2228833,9.35047968 64.0709595,9.76884365 C64.9851792,10.2064523 65.8969189,10.6473683 66.8061504,11.0915783 C67.2799477,11.3352808 67.4257814,11.6391313 67.2436514,12.0041666 C66.9519841,12.339128 66.5689277,12.3997944 66.0951304,12.1866843 L63.4150322,10.8634312 C62.2114185,11.6847607 61.190583,12.1866843 60.3518775,12.369202 C59.768543,12.4298684 59.3861347,12.3085356 59.2033566,12.0041666 C59.0938193,11.6090573 59.2759493,11.3503178 59.7503948,11.2284665 L59.7503948,11.2284665 Z M54.7726064,9.12951328 C54.8458473,8.82566283 54.9553846,8.41499807 55.1012183,7.89751898 C55.2470519,7.47181725 55.338441,7.19804074 55.3747374,7.07618945 C55.520571,6.74174656 55.8122383,6.6048583 56.2497392,6.66552469 C56.6139992,6.75678352 56.7786292,7.0004861 56.7423328,7.3961139 C56.5232583,8.24751736 56.322332,8.90136618 56.1402019,9.35817888 C55.9587201,9.7833621 55.6320527,10.0561016 55.2107555,9.9508428 C54.7518657,9.81913971 54.5898283,9.74188081 54.7732546,9.12951328 L54.7726064,9.12951328 Z M56.5777029,5.02286563 L57.1798338,5.02286563 L57.1798338,2.10361989 C57.1798338,1.79925093 57.3982602,1.61673325 57.8357611,1.55606687 C58.3102065,1.5861408 58.5649293,1.75362151 58.6018738,2.05799047 L58.6018738,2.69628381 L59.8048393,2.69628381 C59.9260433,2.7056171 60.0096546,2.72635774 60.0848399,2.75850574 C60.0239139,2.31569298 60.2241921,2.07250892 60.7349339,2.01184253 L66.8055023,2.01184253 C67.1704105,2.04191647 67.3713368,2.25502659 67.4076332,2.65065439 C67.3713368,3.04628219 67.1704105,3.24383683 66.8055023,3.24383683 L64.4002194,3.24383683 C64.33346,3.63998314 64.341886,3.64620534 64.251145,4.20205461 L65.9317967,4.20205461 C66.5514277,4.20205461 66.8612432,4.46027564 66.8612432,4.97723621 L66.8612432,9.31203095 C66.8249468,9.70765875 66.5695759,9.92025035 66.0957786,9.9508428 C65.6213331,9.9508428 65.3847585,9.75380668 65.3847585,9.35817888 L65.3847585,5.52530774 C65.3506183,5.46620278 65.2926376,5.41799232 65.2201286,5.38841949 L62.2671594,5.38841949 C62.1569739,5.41849342 62.1025294,5.46412284 62.1025294,5.52530774 L62.1025294,9.35817888 C62.066233,9.72269571 61.8290103,9.92025035 61.3915093,9.9508428 C60.9183602,9.92025035 60.6804893,9.72269571 60.6804893,9.35817888 L60.6804893,5.06849505 C60.644193,4.49086809 60.9903048,4.20205461 61.7201212,4.20205461 L62.6495676,4.20205461 C62.6858639,4.04961088 62.777253,3.3651696 62.8135494,3.24383683 L60.735582,3.24383683 C60.6130818,3.24383683 60.5709521,3.2588738 60.4620629,3.19820741 C60.4620629,3.65450159 60.2429884,3.88264869 59.8054875,3.88264869 L58.602522,3.88264869 L58.602522,5.02338414 L60.024562,5.02338414 C60.3525257,5.05345808 60.5346557,5.26708672 60.5709521,5.66167748 C60.5346557,6.05730528 60.3525257,6.25485992 60.024562,6.25485992 L58.602522,6.25485992 L58.602522,8.90136618 C58.6751147,8.68877458 59.1126156,7.33492899 59.1495602,7.21307771 C59.2953938,6.87863481 59.5870611,6.78737597 60.024562,6.9393012 C60.388822,7.12233739 60.5346557,7.39559538 60.4620629,7.76063073 C59.9150247,10.3770631 58.3102065,11.9284633 55.6489046,12.4148314 C55.06557,12.5060902 54.7006619,12.3847575 54.5548282,12.049796 C54.4822355,11.6546868 54.71881,11.3809103 55.2658482,11.2284665 C56.578351,10.8940236 57.4533529,10.4833589 57.8908538,9.99647222 C57.4177046,9.99647222 57.1804819,9.81395455 57.1804819,9.4489192 L57.1804819,6.25485992 L55.1569591,6.25485992 C54.71881,6.25485992 54.4822355,6.0578238 54.4452909,5.66167748 C54.4822355,5.2665682 54.71881,5.05345808 55.1569591,5.02338414 L55.1569591,2.60502497 C55.1569591,2.30065601 55.3753855,2.11761982 55.8128864,2.05747195 C56.2866837,2.08754589 56.5420546,2.25450808 56.578351,2.55939555 L56.578351,5.02338414 L56.5777029,5.02286563 Z M43.6704533,8.01211104 L43.6704533,3.0499118 C43.6322125,2.50806246 44.0301763,2.23739705 44.8630484,2.23739705 L49.7500958,2.23739705 C50.6212088,2.23739705 51.0379689,2.52361794 50.9997281,3.09450419 L50.9997281,8.10233285 C50.9621354,8.46322006 50.6775978,8.64366367 50.1474115,8.64366367 C49.6548178,8.61358974 49.408521,8.41810916 49.408521,8.05722194 L49.408521,3.72657533 C49.408521,3.54561321 49.3333357,3.45590992 49.1816687,3.45590992 L45.5455499,3.45590992 C45.3556421,3.48598386 45.2610122,3.56065018 45.2610122,3.68094592 L45.2610122,8.05722194 C45.2234196,8.4481831 44.9388819,8.64314516 44.4086956,8.64314516 C43.916102,8.61358974 43.6698052,8.40307219 43.6698052,8.01211104 M49.0675944,7.87677834 L49.0675944,10.5383216 C49.0675944,10.9292827 49.1674094,11.0303934 49.5796325,11.0303934 C50.284171,10.9977268 50.3042637,10.969727 50.3301896,10.5870621 C50.3703749,10.1074347 50.3379674,10.4522479 50.3904675,9.82121378 C50.4209306,9.45462288 50.5641716,9.30529024 51.0567652,9.2752163 C51.5493589,9.2752163 51.814452,9.44062295 51.8520447,9.77143623 C51.8520447,10.8240239 51.7198222,11.4856505 51.4547291,11.7563159 C51.1513951,12.0871292 50.5265789,12.2525358 49.5789843,12.2525358 C48.0642589,12.2826098 47.5340726,11.9891297 47.5340726,11.2149851 L47.5340726,8.95943999 C46.8522193,10.5232846 45.4314756,11.6360202 43.2724895,12.2976468 C42.7423032,12.4179425 42.3637839,12.3427577 42.1362834,12.0720922 C41.9087829,11.6811311 42.0034128,11.3954287 42.4201729,11.2149851 C44.0872135,10.6736543 45.1851787,9.95136132 45.7153651,9.04966179 C46.2455514,8.32788736 46.530089,6.89885694 46.5676817,4.76360757 C46.6059225,4.43279429 46.8522193,4.26790616 47.3065721,4.26790616 C47.7991658,4.29746158 48.0830553,4.47790519 48.1588887,4.80923699 L48.1588887,5.12449479 C48.1588887,5.81619529 48.1024997,6.56804366 47.9884254,7.3800399 C48.6320379,7.25974416 48.9917609,7.4251508 49.0675944,7.87677834 M39.2947959,3.36568812 L40.4886873,3.36568812 C40.1853533,3.15465206 39.9902603,2.90317174 39.7692414,2.59828426 C39.4885926,2.21043421 39.5035001,1.92162073 39.9202602,1.74117712 C40.3370203,1.50058564 40.860077,1.41451197 41.350078,1.9817686 C42.1460056,2.83265355 42.0410054,3.06494877 41.6248934,3.3651696 L42.6470252,3.3651696 C43.2154524,3.39524354 43.4429528,3.68146443 43.3295267,4.22227674 C42.9886,5.00419905 42.47721,5.83123225 41.7947086,6.70389488 C42.2873022,6.97456029 42.8181367,7.32041054 43.3859157,7.74092711 C43.7099904,8.02455543 43.612768,8.32736884 43.2724895,8.59855277 C42.8557294,8.89929212 42.6035992,8.87595889 42.2497096,8.64366367 C42.0116562,8.48677249 41.8014488,8.30465214 41.6248934,8.10233285 L41.6248934,12.0788329 C41.6248934,12.2810542 41.4187819,12.4443901 41.1647073,12.4443901 L40.5502615,12.4443901 C40.428616,12.4448001 40.311757,12.4065021 40.2254364,12.3379325 C40.1391159,12.2693628 40.0904184,12.1761492 40.0900754,12.0788329 L40.0900754,8.28277646 C40.0524827,8.31285039 39.8437785,8.50833097 39.6927597,8.59855277 C39.2001661,8.89929212 38.7834059,8.92936605 38.4431274,8.68877458 C38.1397935,8.38803523 38.1773861,8.05722194 38.5565536,7.69581621 C39.7685932,6.70389488 40.677947,5.7716029 41.2839668,4.89894028 C41.4349856,4.65886731 41.4161893,4.53857157 41.2269296,4.53857157 L39.239055,4.53857157 C38.7464614,4.53857157 38.4807201,4.34257248 38.4437756,3.95161133 C38.5189609,3.59072411 38.8034986,3.39524354 39.2954441,3.36568812"></path>
</svg>