<svg width="71px" height="15px" viewBox="0 0 71 15" version="1.1" xmlns="http://www.w3.org/2000/svg" xmlns:xlink="http://www.w3.org/1999/xlink">
  <defs>
    <polygon id="path-i2426q6y3a-1" points="0 0 13.6592075 0 13.6592075 14 0 14"></polygon>
    <polygon id="path-i2426q6y3a-3" points="0 0 3.10488269 0 3.10488269 10.9372891 0 10.9372891"></polygon>
  </defs>
  <g id="页面-1" stroke="none" stroke-width="1" fill="none" fill-rule="evenodd">
    <g id="编组" transform="translate(0.515818, 0.944250)">
      <g transform="translate(2.504014, 0.000000)" id="Clipped">
        <mask id="mask-i2426q6y3a-2" fill="white">
          <use xlink:href="#path-i2426q6y3a-1"></use>
        </mask>
        <g id="c"></g>
        <path d="M0.209616336,10.5381376 C0.569568369,12.884446 1.00113141,14.6489023 3.81530186,13.7709492 C6.51280801,12.9294462 9.11024844,11.4412909 11.3904189,9.75153483 C12.2061205,9.07518241 13.6307528,8.12522902 13.6592075,7.000225 C13.6307528,5.87522098 12.2061205,4.92481759 11.3904189,4.24891517 C9.11024844,2.55870914 6.51280801,1.07055382 3.81530186,0.229050818 C1.00065717,-0.648002314 0.569094124,1.11600399 0.209616336,3.46186236 C0.0313001768,4.62376651 0,5.8234708 0,7.000225 C0,8.1769792 0.0313001768,9.37623349 0.209616336,10.5381376" id="路径" fill="#0098FF" fill-rule="nonzero" mask="url(#mask-i2426q6y3a-2)"></path>
      </g>
      <g transform="translate(0.000000, 1.531355)" id="Clipped">
        <mask id="mask-i2426q6y3a-4" fill="white">
          <use xlink:href="#path-i2426q6y3a-3"></use>
        </mask>
        <g id="e"></g>
        <path d="M0.259412072,2.37015846 C0.568145634,0.817202919 1.0314831,-0.309601106 3.10488269,0.0765002732 C2.92988625,0.610652181 2.81891289,1.24605445 2.71363048,1.93050689 C2.53531432,3.09286105 2.50401415,4.29211533 2.50401415,5.46886953 C2.50401415,6.64562373 2.53531432,7.84487802 2.71363048,9.00678217 C2.81891289,9.69123461 2.92988625,10.3266369 3.10488269,10.8607888 C1.0314831,11.2477902 0.568145634,10.1209861 0.259412072,8.5675806 L0.237122552,8.4573302 L0.194914738,8.2327794 C0.0294031964,7.32512616 0,6.38822282 0,5.46886953 C0,4.54951625 0.0294031964,3.6126129 0.195388983,2.70450966 L0.238071042,2.48040886 L0.259412072,2.37015846 Z" id="路径" fill="#FF8800" fill-rule="nonzero" mask="url(#mask-i2426q6y3a-4)"></path>
      </g>
      <path d="M3.10440845,1.60785574 C3.24857896,1.63485584 3.40081164,1.66860596 3.56063224,1.71045611 C6.07887374,2.36790846 8.50274046,3.53026261 10.6311525,4.85056732 C11.3923159,5.37931921 12.7225734,6.12137186 12.7486569,7.000225 C12.7220991,7.87907814 11.3923159,8.62158079 10.6311525,9.14988268 C8.50274046,10.4701874 6.07839949,11.6325415 3.56063224,12.2899939 C3.40081164,12.331844 3.2490532,12.3655942 3.10488269,12.3925943 C2.92988625,11.8584424 2.81891289,11.2230401 2.71410473,10.5381376 C2.53531432,9.37623349 2.50401415,8.1769792 2.50401415,7.000225 C2.50401415,5.8234708 2.53531432,4.62421652 2.71410473,3.46231237 C2.81843865,2.78190994 2.92846351,2.15010768 3.10156298,1.61775578 L3.10440845,1.60785574 L3.10440845,1.60785574 Z" id="路径" fill="#43E700" fill-rule="nonzero"></path>
      <path d="M4.59021836,4.76956703 C4.59021836,4.76956703 4.43940841,5.0107679 4.43940841,7.00472502 C4.43940841,9.00273215 4.59021836,9.23223297 4.59021836,9.23223297 C4.64238532,9.47973386 4.75003896,9.55758413 5.02557536,9.49548391 C5.02557536,9.49548391 5.48701585,9.42528366 7.34178845,8.51763042 C9.1960868,7.60547716 9.50671734,7.26752596 9.50671734,7.26752596 C9.7049518,7.07312526 9.75664451,6.9448748 9.50671734,6.73877407 C9.50671734,6.73877407 8.99785235,6.28472245 7.34178845,5.4594195 C5.70279737,4.64221658 5.02557536,4.50586609 5.02557536,4.50586609 C4.79746347,4.44376587 4.65092173,4.51396612 4.59021836,4.76956703" id="路径" fill="#FFFFFF" fill-rule="nonzero"></path>
      <path d="M30.1060277,5.68712031 C30.1439673,5.86622095 30.464557,6.4116229 30.5859637,6.51872328 L26.9726903,6.51872328 C27.2984966,6.27932243 27.631891,5.92247115 27.8287027,5.68667031 L30.1060277,5.68667031 L30.1060277,5.68712031 Z M30.4830525,7.85792806 L30.3184895,8.63058082 L26.4002764,8.63058082 L26.7028448,7.33772621 L30.0884806,7.33772621 C30.6367079,7.33772621 30.5105587,7.71842757 30.4830525,7.85792806 L30.4830525,7.85792806 Z M33.099937,1.64790589 L32.0556493,1.64790589 C31.5899406,2.22345794 30.6993083,3.12481116 30.147287,3.35071197 L29.4809726,3.35071197 C29.6213492,3.13291119 30.3863065,1.64790589 30.3863065,1.64790589 L29.3078731,1.64790589 L28.4181893,3.30931182 C27.7827009,2.89846035 27.5076387,2.20410787 27.2814238,1.64790589 L26.1337507,1.64790589 C26.2812409,2.05605734 26.5439727,2.89891035 27.0499922,3.31471184 L25.4607969,3.31471184 L25.2573457,4.1427148 L27.8552604,4.1427148 C27.6859549,4.39426569 27.5379904,4.61791649 27.310827,4.85596734 L24.7072214,4.85596734 L24.5037702,5.65292019 L26.5819123,5.65292019 C25.9113297,6.31847257 24.9903457,6.83777442 24.2713901,6.83777442 L24.0617738,7.73012761 C24.0617738,7.73012761 25.1762498,7.53392691 25.7287454,7.26887596 L25.4081557,8.67693099 C25.3066672,9.09813249 25.4228573,9.41178361 25.8643795,9.41178361 L30.222692,9.41223362 C30.5731591,9.41223362 30.6661111,9.64803446 30.582644,9.99948571 L30.3308198,10.919739 C30.2022994,11.3661406 29.9831982,11.6050914 29.5933687,11.6050914 L25.6998164,11.6050914 L25.4304452,12.3610941 L29.4283314,12.3610941 C30.3322426,12.3610941 30.9805356,12.2832439 31.2247719,11.3080904 L31.7070791,9.23268297 C31.7810614,8.92533188 31.4950916,8.67378098 31.2062763,8.67558098 L31.4799157,7.33187619 C31.7037594,7.49702678 31.9864095,7.64732731 32.2576777,7.72562759 L32.5782674,7.08617531 C32.0020596,6.82337437 31.3291058,6.24017229 31.1498411,5.65742021 L32.8168127,5.65742021 L33.0278517,4.82941725 L28.5576174,4.82941725 L29.0138412,4.12921475 L32.6702709,4.12921475 L32.8685054,3.31966186 L31.5899406,3.31966186 C32.1732621,2.83231012 32.660786,2.24865803 33.099937,1.64790589 L33.099937,1.64790589 Z M52.7787376,11.4138408 C52.7787376,11.3944907 52.7811088,11.3733406 52.7858512,11.3485905 L53.6119862,7.20677574 L53.2136203,7.20677574 L54.0440235,3.25126161 L53.0647074,3.25126161 L52.2333557,7.32377616 C52.2058495,7.39577641 52.034647,7.85252804 51.6988815,8.43213011 C51.3318157,9.06438237 50.773155,9.83388512 50.0153113,10.3882871 C49.2963558,10.911189 48.7206222,11.20954 48.327473,11.3755906 C48.1818527,11.438047 48.0323447,11.4919979 47.8797856,11.5371412 C47.7792457,11.5672913 47.7356151,11.5731413 47.7356151,11.5731413 L47.6445601,11.5884414 L47.3913132,12.4411944 L47.6175281,12.4083443 C47.6322297,12.4047443 50.4293273,11.9898428 52.1641159,9.55713413 L51.7700182,11.3796406 C51.7453377,11.4915763 51.7319981,11.6054956 51.7301816,11.7198419 C51.7292331,11.9223426 51.7875653,12.1054932 51.9374267,12.2256437 C52.0863397,12.3453441 52.2888424,12.3885442 52.537821,12.3889942 L55.691551,12.3889942 L55.7171602,12.2787439 L55.8736611,11.6055414 L53.1016985,11.6055414 C52.8389667,11.5902414 52.7867997,11.5443412 52.7792118,11.4138408 L52.7787376,11.4138408 Z M48.5223878,7.71527755 L48.5650698,7.75442769 L49.5576648,7.74497766 L49.3926275,7.52807689 C49.3926275,7.52807689 49.2531995,7.34492623 49.0824712,7.06412523 C48.9126915,6.78377423 48.7139828,6.40847289 48.6020609,6.04037157 L48.569338,5.9359712 L48.2620272,5.94812124 L49.4571249,4.65886664 C49.4523824,4.65121661 49.950814,4.24081515 49.9702681,3.79936357 C49.9713595,3.64101963 49.8813552,3.49471263 49.7355067,3.41776221 C49.5790058,3.33046189 49.3641728,3.28996175 49.0573362,3.28996175 L45.8073345,3.28996175 L45.6494109,4.06936453 L48.7965014,4.06936453 L45.1993523,7.80077786 L44.8066774,9.35373341 L46.9388834,7.23422584 L45.7409402,12.3939443 L46.7145654,12.3939443 L46.7382777,12.2854939 L47.9722634,6.86567452 C48.2487483,7.46597666 48.5086346,7.70402751 48.5223878,7.71527755 L48.5223878,7.71527755 Z M34.6649458,11.4952911 L35.9150559,5.77847064 C36.0165444,5.30506895 35.7210897,4.81816721 35.1420364,4.81996224 L33.7027025,4.81996224 L33.506365,5.62547009 L34.6303259,5.62547009 C34.8802531,5.62547009 34.9366883,5.77937064 34.8883153,5.97197133 L33.6600205,11.5362412 C33.5153757,12.1941436 33.902834,12.3894442 34.6341199,12.3894442 L36.2859156,12.3894442 L36.5145017,11.6671917 L34.8337771,11.6671917 C34.7152158,11.6671917 34.6388624,11.6118415 34.6654201,11.4952911 L34.6649458,11.4952911 Z M42.7920842,11.3728906 L44.5501108,3.45871235 C44.668672,2.70630967 44.8877733,1.8472566 43.2388231,1.8472566 L38.2478676,1.8472566 L38.0562726,2.6329594 L42.5981179,2.6329594 C43.5930842,2.6329594 43.6125282,2.98216065 43.4636152,3.67156311 L41.7032174,11.5654913 C41.6131108,12.046093 41.7364146,12.3736942 42.5805709,12.3736942 C42.6327378,12.3736942 44.4158994,12.3543441 44.5894731,12.3682942 L44.8019349,11.5879914 L43.004546,11.5866414 C42.8485193,11.5866414 42.7446597,11.5614413 42.7920842,11.3728906 L42.7920842,11.3728906 Z M42.4335549,6.29687249 L39.9821819,6.29687249 L40.7324377,3.07801099 L39.75407,3.07801099 L39.0014431,6.30767253 L36.4832016,6.30767253 L36.2716882,7.11677542 L38.7941979,7.11677542 L37.6033685,12.3790942 L38.6120878,12.3790942 L39.8090825,7.08707531 L42.2239385,7.08707531 L42.4335549,6.29687249 L42.4335549,6.29687249 Z M62.949398,7.11722542 L63.1243945,6.89537463 L61.962494,6.89537463 L60.8764727,8.27012954 L61.4081015,5.76587059 L63.3572488,5.7667706 L63.5360392,5.01526791 L61.4763928,5.01526791 L61.7220517,3.87136383 L63.707716,3.87136383 L63.7323767,3.76111343 L63.8827124,3.08791103 L61.8956254,3.08746103 L62.2228545,1.56330558 L61.2753128,1.56330558 L60.5279025,5.01481791 L59.4774496,5.01481791 L60.0569772,2.34225837 L59.129828,2.34225837 L58.551249,5.01526791 L57.1119151,5.01526791 L56.9312277,5.7667706 L60.4624567,5.7667706 L59.6771068,9.31188326 L60.0313679,9.31188326 C59.2597711,10.2748867 58.4269967,10.8247887 57.7720643,11.1388898 C57.4960313,11.2725886 57.207571,11.3818031 56.9103609,11.4651409 C56.7002703,11.5209411 56.5850288,11.5353412 56.5850288,11.5353412 L56.4802206,11.5492912 L56.3147091,12.3538941 L56.4958707,12.3516441 C56.5233769,12.3534441 59.0435154,12.3025939 61.2378475,9.33978336 C61.9245544,8.41278005 62.9479753,7.11902543 62.9498723,7.11677542 L62.949398,7.11722542 Z M30.021612,10.1875864 L24.143344,10.1875864 L23.944161,10.8468387 L29.8219548,10.8468387 L30.021612,10.1875864 Z M23.8421983,2.65455948 L23.3798094,4.71466684 L21.9973849,4.71466684 L22.4706815,2.60955932 C22.6271824,2.46600881 23.1128094,2.4066086 23.2517632,2.4066086 C23.3793351,2.4066086 23.8900971,2.45610877 23.8426726,2.65500948 L23.8421983,2.65455948 Z M22.6674932,7.83722799 L21.28744,7.83722799 L21.8057899,5.50171965 L23.1848946,5.50171965 L22.6674932,7.83722799 L22.6674932,7.83722799 Z M23.6762125,1.57320562 C23.4471522,1.57320562 22.9458751,1.60200572 22.7163405,1.71945614 C22.7092268,1.68480602 22.7234541,1.62945582 22.7296193,1.58445566 L21.7650048,1.58445566 L19.5488574,11.21044 C19.491948,11.480891 19.4051611,11.5434412 19.3250137,11.5434412 L18.8607278,11.5434412 L18.6624933,12.3705442 L19.5683015,12.3705442 C19.7708041,12.3705442 20.2701842,12.2355437 20.438067,11.5047411 L21.0711842,8.70303108 L22.4811149,8.70303108 L21.9082268,11.2455402 C21.8759781,11.4030407 21.8475234,11.5429912 21.7356016,11.5429912 L21.1058041,11.5429912 L20.9208485,12.3709942 L21.7313334,12.3709942 C21.9153405,12.3709942 22.5754897,12.4456944 22.7723014,11.5483912 L24.8305251,2.51685899 C25.0022019,1.76760631 24.2348733,1.57320562 23.6762125,1.57320562 L23.6762125,1.57320562 Z M59.5409985,6.49262319 L59.5803608,6.32297258 L58.6356646,6.32297258 L58.6053129,6.42422294 C58.3515918,7.26707595 57.8844603,7.97087847 57.4799293,8.46183022 C57.0753982,8.95278197 56.7391584,9.22548295 56.7396327,9.22683295 L56.6993218,9.25968307 L56.4939737,10.4656874 L56.7685616,10.3054868 C56.780892,10.2964868 58.9183147,9.0445823 59.5409985,6.49262319 Z M48.6461657,2.87911028 L48.9458886,1.55880557 L48.0685352,1.55880557 L47.7436773,2.98846067 L48.6210307,2.98846067 L48.6461657,2.87911028 Z M50.5730236,8.72148115 L50.5986328,8.61213076 L51.8918992,3.03436084 C52.1745493,2.76165986 52.471901,2.63700942 52.8138317,2.63520941 L54.9095208,2.63520941 C54.9346558,2.63430941 54.9512544,2.63430941 54.9683272,2.63430941 C55.1722526,2.63340941 55.304567,2.67345955 55.376178,2.72790974 C55.4473148,2.78235994 55.4847801,2.85256019 55.4866771,2.98891067 C55.4856889,3.06612552 55.4745368,3.14292065 55.4534799,3.21751149 L54.1744409,8.72148115 L55.1390554,8.72148115 L56.42094,3.14371123 C56.4531886,3.02131079 56.4716842,2.90206036 56.4731651,2.78820996 C56.4764266,2.50155893 56.3374728,2.25180804 56.0842259,2.10645752 C55.832876,1.959757 55.4885741,1.89855678 55.0484746,1.89765678 C55.0119578,1.89765678 54.9749666,1.89765678 54.9365528,1.89855678 L52.9888281,1.89855678 C52.9200626,1.89720678 52.8522456,1.89720678 52.7886967,1.89720678 C52.4960875,1.90035679 52.2423663,1.9039568 52.0512456,1.98630709 L52.0403379,1.8765067 L51.1700982,1.8765067 L49.6112545,8.72148115 L50.5730236,8.72148115 L50.5730236,8.72148115 Z M67.6700338,11.476391 C67.3200409,11.1780399 66.5389592,10.3950371 65.9968971,8.96538202 L65.9613287,8.87403169 L65.8247461,8.87403169 L66.6252718,5.40901932 L65.6616058,5.40901932 L64.868668,8.76603131 C64.8544406,8.80968146 64.7795099,9.02703224 64.5879149,9.33798335 C64.2902688,9.81349048 63.9020659,10.2323564 63.4430872,10.5732378 C62.9995918,10.9108158 62.4996105,11.1754822 61.9639167,11.3562406 C61.57551,11.484041 61.3388617,11.5024911 61.3388617,11.5047411 L61.2392702,11.5146411 L60.9793839,12.3817942 L61.1837835,12.3727942 C61.1994336,12.3723442 63.8903003,12.2512938 65.3656768,9.8563852 C66.3976342,11.9335926 67.3978171,12.3372441 67.434334,12.3493941 L67.5566892,12.3970943 L67.9579006,11.6887917 L67.8511954,11.6185915 C67.8511954,11.6176915 67.7871723,11.5753913 67.6700338,11.476391 Z M35.7727824,3.95236412 L36.5315746,3.57481277 C36.5315746,3.57481277 36.1132904,3.080261 35.6741394,2.4079586 C35.2852584,1.77300633 35.2093792,1.57230562 35.2093792,1.57230562 L34.2390737,1.57005561 C34.2390737,1.57005561 34.5971288,2.2689081 34.7740222,2.55375912 C34.9504414,2.83951014 35.7727824,3.95236412 35.7727824,3.95236412 L35.7727824,3.95236412 Z M64.1075046,1.94265694 L63.9510037,2.67750956 L66.5228349,2.67750956 C66.1662026,3.35566198 65.7721049,3.90736395 65.5918918,4.03651442 C65.400771,4.09726463 65.1944744,4.12786474 65.0085703,4.20751503 L65.0005081,4.07971457 L64.1288456,4.07971457 L62.8232488,9.75423484 L63.7394904,9.75423484 L63.7636769,9.64398444 L64.7757159,5.18896853 C64.940279,5.01796792 65.0972541,4.91356755 65.2309912,4.86946739 C65.354295,4.8154672 65.7360623,4.77496705 66.0594974,4.77721706 L66.1102417,4.77811706 L67.5941546,4.77811706 C67.8986199,4.79836714 67.9038366,4.86451737 67.9242292,5.02426794 C67.9242292,5.06566809 67.918064,5.11336826 67.9066821,5.16421844 L66.9060249,9.77448491 L67.8236892,9.77448491 L68.7987372,5.34646909 C68.8509041,5.16556845 68.8803073,4.99546784 68.8807816,4.84246729 C68.8826785,4.57696635 68.7892523,4.35286555 68.6019254,4.20931503 C68.4155471,4.06531452 68.1627745,4.00816431 67.8668455,4.00771431 L66.7333997,4.00771431 C66.8154441,3.90241394 66.8993855,3.77371348 66.9923376,3.62611295 C67.1573749,3.35611199 67.333794,3.02581081 67.507842,2.67750956 L69.8453961,2.67750956 L69.8681599,2.56545916 L70,1.94265694 L64.1075046,1.94265694 L64.1075046,1.94265694 Z" id="形状" fill="currentColor" fill-rule="nonzero"></path>
    </g>
  </g>
</svg>
