
<svg width="70px" height="14px" viewBox="0 0 70 14" version="1.1" xmlns="http://www.w3.org/2000/svg" xmlns:xlink="http://www.w3.org/1999/xlink">
    <defs>
        <linearGradient x1="50%" y1="0.423385205%" x2="50%" y2="99.092307%" id="linearGradient-kw5ehjbw_u-1">
            <stop stop-color="#00D2FF" offset="0%"></stop>
            <stop stop-color="#00AAFF" offset="100%"></stop>
        </linearGradient>
        <linearGradient x1="49.9274507%" y1="0.156770405%" x2="49.9274507%" y2="99.1805566%" id="linearGradient-kw5ehjbw_u-2">
            <stop stop-color="#00D2FF" offset="0%"></stop>
            <stop stop-color="#00AAFF" offset="100%"></stop>
        </linearGradient>
        <linearGradient x1="50.14193%" y1="0.424687098%" x2="50.14193%" y2="99.397012%" id="linearGradient-kw5ehjbw_u-3">
            <stop stop-color="#00D2FF" offset="0%"></stop>
            <stop stop-color="#00AAFF" offset="100%"></stop>
        </linearGradient>
        <linearGradient x1="50%" y1="0.531420945%" x2="50%" y2="100.251727%" id="linearGradient-kw5ehjbw_u-4">
            <stop stop-color="#FF4B7D" offset="0%"></stop>
            <stop stop-color="#FF2D64" offset="100%"></stop>
        </linearGradient>
        <linearGradient x1="50%" y1="0.216352655%" x2="50%" y2="100.207338%" id="linearGradient-kw5ehjbw_u-5">
            <stop stop-color="#FF4B7D" offset="0%"></stop>
            <stop stop-color="#FF2D64" offset="100%"></stop>
        </linearGradient>
        <linearGradient x1="49.9857008%" y1="0.302743857%" x2="49.9857008%" y2="100.543132%" id="linearGradient-kw5ehjbw_u-6">
            <stop stop-color="#FF4B7D" offset="0%"></stop>
            <stop stop-color="#FF2D64" offset="100%"></stop>
        </linearGradient>
        <linearGradient x1="-0.705293158%" y1="50.0021563%" x2="100.312135%" y2="50.0021563%" id="linearGradient-kw5ehjbw_u-7">
            <stop stop-color="#00D2FF" offset="0%"></stop>
            <stop stop-color="#00AAFF" offset="100%"></stop>
        </linearGradient>
        <linearGradient x1="-9.29138965%" y1="38.2454309%" x2="100.956705%" y2="57.668556%" id="linearGradient-kw5ehjbw_u-8">
            <stop stop-color="#00D2FF" offset="0%"></stop>
            <stop stop-color="#00AAFF" offset="100%"></stop>
        </linearGradient>
        <linearGradient x1="-0.00194067313%" y1="50.0040223%" x2="99.6830366%" y2="50.0040223%" id="linearGradient-kw5ehjbw_u-9">
            <stop stop-color="#FF4B7D" offset="0%"></stop>
            <stop stop-color="#FF2D64" offset="100%"></stop>
        </linearGradient>
    </defs>
    <g id="页面-1" stroke="none" stroke-width="1" fill="none" fill-rule="evenodd">
        <g id="youku">
            <path d="M48.6713904,12.832452 C45.8695972,12.832452 43.5982951,10.5122715 43.5982951,7.65018377 L43.5982951,2.4689667 C43.5851418,1.99730585 43.8239555,1.55560757 44.2217724,1.3158129 C44.6195893,1.07601824 45.1135486,1.07601824 45.5113655,1.3158129 C45.9091824,1.55560757 46.147996,1.99730585 46.1348427,2.4689667 L46.1348427,7.65018377 C46.1348427,9.08122762 47.2704938,10.2413179 48.6713904,10.2413179 C50.0722869,10.2413179 51.207938,9.08122762 51.207938,7.65018377 L51.207938,2.4689667 C51.1947847,1.99730585 51.4335984,1.55560757 51.8314153,1.3158129 C52.2292321,1.07601824 52.7231915,1.07601824 53.1210084,1.3158129 C53.5188253,1.55560757 53.7576389,1.99730585 53.7444856,2.4689667 L53.7444856,7.65018377 C53.7444856,10.5122715 51.4731835,12.832452 48.6713904,12.832452 L48.6713904,12.832452 Z" id="路径" fill="url(#linearGradient-kw5ehjbw_u-1)"></path>
            <path d="M42.3953644,10.6029204 L38.8606621,6.99215133 L42.3593485,3.41817323 C42.8285841,2.93989087 42.903703,2.16307622 42.4818025,1.64064472 C42.2546927,1.35798422 41.9211852,1.18657965 41.5636371,1.16875806 C41.2060891,1.15093647 40.8578301,1.28835914 40.6048602,1.54709058 L36.5916611,5.64665369 C36.2427217,6.00307382 36.0466873,6.48650031 36.0466873,6.99057457 C36.0466873,7.49464884 36.2427217,7.97807532 36.5916611,8.33449545 L40.6048602,12.4340586 C40.6968756,12.530312 40.8031336,12.6111885 40.919742,12.6737253 C41.4766894,12.9717079 42.1632695,12.8080995 42.5336592,12.2891374 C42.9040489,11.7701754 42.8465299,11.0523908 42.3984515,10.6018692 L42.3953644,10.6029204 Z" id="路径" fill="url(#linearGradient-kw5ehjbw_u-2)" fill-rule="nonzero"></path>
            <path d="M35.5101554,2.46581319 C35.5233087,1.99415234 35.284495,1.55245406 34.8866781,1.31265939 C34.4888612,1.07286473 33.9949019,1.07286473 33.597085,1.31265939 C33.1992681,1.55245406 32.9604545,1.99415234 32.9736078,2.46581319 L32.9736078,11.534257 C32.993161,12.2354118 33.5552193,12.7934425 34.2418816,12.7934425 C34.9285439,12.7934425 35.4906022,12.2354118 35.5101554,11.534257 L35.5101554,2.46581319 Z" id="路径" fill="url(#linearGradient-kw5ehjbw_u-3)" fill-rule="nonzero"></path>
            <path d="M26.6358403,12.8250939 C25.2904664,12.8253726 24.0001021,12.2796191 23.0486826,11.3079222 C22.0972631,10.3362253 21.562745,9.01820309 21.562745,7.64387674 L21.562745,2.46581319 C21.5495917,1.99415234 21.7884054,1.55245406 22.1862223,1.31265939 C22.5840392,1.07286473 23.0779985,1.07286473 23.4758154,1.31265939 C23.8736323,1.55245406 24.1124459,1.99415234 24.0992926,2.46581319 L24.0992926,7.64808143 C24.0992927,9.07912524 25.2349437,10.2392154 26.6358403,10.2392154 C28.0367368,10.2392154 29.1723878,9.07912524 29.1723879,7.64808143 L29.1723879,2.46581319 C29.1592346,1.99415234 29.3980483,1.55245406 29.7958652,1.31265939 C30.1936821,1.07286473 30.6876414,1.07286473 31.0854583,1.31265939 C31.4832752,1.55245406 31.7220888,1.99415234 31.7089355,2.46581319 L31.7089355,7.64808143 C31.7066633,10.5083569 29.4358602,12.825675 26.6358403,12.8250939 Z" id="路径" fill="url(#linearGradient-kw5ehjbw_u-4)"></path>
            <path d="M15.8557701,1.16972054 C13.0539769,1.16972054 10.7826748,3.48990106 10.7826748,6.35198878 L10.7826748,7.64808143 C10.7826748,10.5101691 13.0539769,12.8303497 15.8557701,12.8303497 C18.6575632,12.8303497 20.9288654,10.5101691 20.9288654,7.64808143 L20.9288654,6.35198878 C20.9288654,4.97756579 20.3943801,3.65943559 19.4429902,2.68757177 C18.4916002,1.71570795 17.2012386,1.16972054 15.8557701,1.16972054 L15.8557701,1.16972054 Z M18.3923177,7.64808143 C18.3923177,9.07912528 17.2566667,10.2392155 15.8557701,10.2392155 C14.4548735,10.2392155 13.3192225,9.07912528 13.3192225,7.64808143 L13.3192225,6.35198878 C13.3192225,5.4262657 13.8026857,4.57086229 14.5874963,4.10800075 C15.3723068,3.6451392 16.3392334,3.6451392 17.1240439,4.10800075 C17.9088545,4.57086229 18.3923177,5.4262657 18.3923177,6.35198878 L18.3923177,7.64808143 Z" id="形状" fill="url(#linearGradient-kw5ehjbw_u-5)"></path>
            <path d="M6.67171833,7.21499937 L6.67171833,11.534257 C6.65216514,12.2354118 6.0901068,12.7934425 5.40344451,12.7934425 C4.71678222,12.7934425 4.15472388,12.2354118 4.13517069,11.534257 L4.13517069,7.2244599 L0.384373081,3.38663813 C0.056476842,3.06076579 -0.0744796064,2.5799128 0.0415600017,2.12787847 C0.15759961,1.67584415 0.502695636,1.32251265 0.944939965,1.20294001 C1.38718429,1.08336736 1.85820628,1.2160394 2.17796437,1.55024409 L5.39778487,4.84776447 L8.61657635,1.55024409 C8.93633444,1.2160394 9.40735642,1.08336736 9.84960075,1.20294001 C10.2918451,1.32251265 10.6369411,1.67584415 10.7529807,2.12787847 C10.8690203,2.5799128 10.7380639,3.06076579 10.4101676,3.38663813 L6.67171833,7.21499937 Z" id="路径" fill="url(#linearGradient-kw5ehjbw_u-6)"></path>
            <path d="M59.6634398,8.84746643 C58.3708073,9.6103028 57.928295,11.2991401 58.6750609,12.61959 C59.4218269,13.94004 61.075086,14.3920752 62.3677185,13.6292389 L68.2022926,10.1877082 L62.7957931,6.99950952 L59.6634398,8.84746643 Z" id="路径" fill="url(#linearGradient-kw5ehjbw_u-7)" fill-rule="nonzero"></path>
            <polygon id="路径" fill="url(#linearGradient-kw5ehjbw_u-8)" fill-rule="nonzero" style="mix-blend-mode: multiply;" points="68.2002346 10.1877082 62.7957931 6.99950952 61.8542349 7.55557846"></polygon>
            <path d="M68.2002346,3.81236199 L62.3677185,0.370831324 C61.0753701,-0.392005037 59.4223413,0.0597948205 58.6755754,1.37995455 C57.9288094,2.70011428 58.3710914,4.38871625 59.6634398,5.15155261 L62.7957931,6.99950952 L68.2002346,10.186657 L68.2002346,10.186657 C70.5999218,8.77073101 70.5999218,5.22933919 68.2002346,3.81236199 Z" id="路径" fill="url(#linearGradient-kw5ehjbw_u-9)" fill-rule="nonzero"></path>
        </g>
    </g>
</svg>