<svg width="32" height="32" viewBox="0 0 34 34" class="ai" fill="none" version="1.1" xmlns="http://www.w3.org/2000/svg" xmlns:xlink="http://www.w3.org/1999/xlink" xml:space="preserve">
  <g filter="url(#entryIcon_svg__filter0_d_219_5917)">
    <path d="M22.94 21.309l.58 1.364a45.819 45.819 0 0 0 2.125 4.34l.528.947-.108.056-1.077.543-.102.052-.054-.102-.576-1.087a44.077 44.077 0 0 1-.22-.423 7.704 7.704 0 0 0-3.902.001c-.087.169-.154.3-.219.422l-.576 1.087-.054.102-.102-.052-1.077-.543-.108-.056.059-.106.468-.841a45.902 45.902 0 0 0 2.125-4.34l.58-1.364.038-.086.091.017c.482.086.97.086 1.451 0l.093-.017.037.086zm6.011-.019a3.731 3.731 0 0 0-.173.9c-.022.342-.034.69-.034 1.035v3.067c0 .345.012.694.034 1.035l.022.227c.029.226.08.452.151.673l.05.153h-1.92l.049-.153c.095-.295.153-.597.173-.9.022-.345.033-.694.033-1.035v-3.067c0-.34-.01-.689-.033-1.034a3.753 3.753 0 0 0-.173-.9l-.05-.154h1.921l-.05.153zM17.161 5.395l.123.008a4.527 4.527 0 0 1 3.14 1.602 4.367 4.367 0 0 1 1.033 2.978l-.005.109c-.015.284-.063.56-.13.828l-.117.447 1.964-.504.113-.027c2.38-.549 4.824.818 5.465 3.136l.05.184a4.368 4.368 0 0 1-.534 3.265l-.06.097a4.495 4.495 0 0 1-1.965 1.674c-3.71 1.444-5.893-1.51-6.663-3.187l.134-.034 2.236-.575c.033.329.136.661.333.984a2.5 2.5 0 0 0 2.51 1.157l.113-.021a2.456 2.456 0 0 0 1.384-.825l.297-.448a2.37 2.37 0 0 0 .209-1.637l-.018-.075c-.334-1.268-1.63-2.035-2.914-1.753h-.01l-7.51 1.916h-.022a.056.056 0 0 1-.02-.01.048.048 0 0 1-.017-.037l.014-.205.136-2.238c.327.071.682.079 1.054-.008.973-.227 1.74-1.006 1.894-1.992a2.371 2.371 0 0 0-.303-1.578l-.055-.09a2.46 2.46 0 0 0-1.855-1.118l-.076-.006c-1.323-.076-2.469.897-2.596 2.188v.009l-.47 7.62a.047.047 0 0 1-.053.04l-.013-.002-.166-.065-2.15-.83c.169-.284.285-.612.316-.987l.007-.092a2.443 2.443 0 0 0-1.263-2.256l-.084-.043-.105-.048a2.482 2.482 0 0 0-1.508-.155l-.104.024a2.443 2.443 0 0 0-1.683 1.46c-.487 1.219.104 2.59 1.31 3.109l.008.003 7.22 2.797c.03.012.036.048.02.068l-.114.136-1.467 1.759a2.335 2.335 0 0 0-.79-.573l-.068-.03-.086-.034c-.873-.321-1.878-.147-2.566.484l-.069.065a2.407 2.407 0 0 0 .188 3.584 2.49 2.49 0 0 0 3.404-.268l.006-.006 3.485-4.165v3.166l-.5.607v-.004l-1.29 1.543c-1.559 1.868-4.346 2.229-6.28.782l-.092-.07a4.41 4.41 0 0 1-1.668-3.076l-.009-.113a4.384 4.384 0 0 1 1.619-3.688l.357-.297-1.892-.729c-2.323-.895-3.535-3.457-2.656-5.739a4.475 4.475 0 0 1 2.565-2.555 4.577 4.577 0 0 1 4.068.373l.393.244.12-1.995h-.001c.146-2.447 2.248-4.375 4.728-4.258zm4.679 17.909a45.987 45.987 0 0 1-.964 2.191 9.16 9.16 0 0 1 2.417 0 45.878 45.878 0 0 1-.963-2.191l-.245-.6-.245.6z" fill="#fff"></path>
  </g>
  <defs>
    <filter id="entryIcon_svg__filter0_d_219_5917" x="0" y="0" width="34.001" height="34" filterUnits="userSpaceOnUse" color-interpolation-filters="sRGB">
    <feFlood flood-opacity="0" result="BackgroundImageFix"></feFlood>
    <feColorMatrix in="SourceAlpha" values="0 0 0 0 0 0 0 0 0 0 0 0 0 0 0 0 0 0 127 0" result="hardAlpha"></feColorMatrix>
    <feOffset></feOffset>
    <feGaussianBlur stdDeviation="2.5"></feGaussianBlur>
    <feComposite in2="hardAlpha" operator="out"></feComposite>
    <feColorMatrix values="0 0 0 0 0 0 0 0 0 0 0 0 0 0 0 0 0 0 0.3 0"></feColorMatrix>
    <feBlend in2="BackgroundImageFix" result="effect1_dropShadow_219_5917"></feBlend>
    <feBlend in="SourceGraphic" in2="effect1_dropShadow_219_5917" result="shape"></feBlend>
    </filter>
  </defs>
</svg>
