<svg width="65" height="45" viewBox="0 0 92 64" fill="none" xmlns="http://www.w3.org/2000/svg">
	<g clip-path="url(#clip0_25494_106056)">
		<rect width="46" height="64" fill="#5E5E5E" />
		<rect x="46" width="46" height="64" fill="#F3F3F3" />
		<path d="M8 14C8 10.6863 10.6863 8 14 8H46V64H8V14Z" fill="#242424" />
		<path
			d="M27.0001 18.75C22.4437 18.75 18.75 22.4437 18.75 27.0001C18.75 31.5565 22.4437 35.2501 27.0001 35.2501C31.5565 35.2501 35.2501 31.5565 35.2501 27.0001C35.2501 26.4283 35.1919 25.8693 35.0806 25.3291C35.0104 24.9876 34.714 24.7396 34.3655 24.7305C34.017 24.7215 33.7082 24.9537 33.6203 25.2911C33.1695 27.0202 31.5964 28.2955 29.7274 28.2955C27.5056 28.2955 25.7046 26.4945 25.7046 24.2728C25.7046 22.4037 26.98 20.8306 28.7091 20.3798C29.0464 20.2919 29.2787 19.9831 29.2696 19.6346C29.2605 19.2861 29.0125 18.9898 28.671 18.9195C28.1308 18.8083 27.5718 18.75 27.0001 18.75Z"
			fill="white" />
		<path d="M54 14C54 10.6863 56.6863 8 60 8H92V64H54V14Z" fill="white" />
		<path
			d="M73.0001 18.7826C73.6304 18.7826 74.1414 18.2716 74.1414 17.6413C74.1414 17.011 73.6304 16.5 73.0001 16.5C72.3698 16.5 71.8588 17.011 71.8588 17.6413C71.8588 18.2716 72.3698 18.7826 73.0001 18.7826Z"
			fill="#FFBD2E" />
		<path
			d="M73 20.1522C69.2181 20.1522 66.1522 23.2181 66.1522 27C66.1522 30.7819 69.2181 33.8478 73 33.8478C76.782 33.8478 79.8479 30.7819 79.8479 27C79.8479 23.2181 76.782 20.1522 73 20.1522Z"
			fill="#FFBD2E" />
		<path
			d="M80.7609 20.3804C80.7609 21.0108 80.25 21.5217 79.6196 21.5217C78.9893 21.5217 78.4783 21.0108 78.4783 20.3804C78.4783 19.7501 78.9893 19.2391 79.6196 19.2391C80.25 19.2391 80.7609 19.7501 80.7609 20.3804Z"
			fill="#FFBD2E" />
		<path
			d="M82.3588 28.1413C82.9891 28.1413 83.5001 27.6303 83.5001 27C83.5001 26.3697 82.9891 25.8587 82.3588 25.8587C81.7285 25.8587 81.2175 26.3697 81.2175 27C81.2175 27.6303 81.7285 28.1413 82.3588 28.1413Z"
			fill="#FFBD2E" />
		<path
			d="M80.7609 33.6196C80.7609 34.2499 80.25 34.7609 79.6196 34.7609C78.9893 34.7609 78.4783 34.2499 78.4783 33.6196C78.4783 32.9892 78.9893 32.4783 79.6196 32.4783C80.25 32.4783 80.7609 32.9892 80.7609 33.6196Z"
			fill="#FFBD2E" />
		<path
			d="M73.0001 37.5C73.6304 37.5 74.1414 36.989 74.1414 36.3587C74.1414 35.7284 73.6304 35.2174 73.0001 35.2174C72.3698 35.2174 71.8588 35.7284 71.8588 36.3587C71.8588 36.989 72.3698 37.5 73.0001 37.5Z"
			fill="#FFBD2E" />
		<path
			d="M67.5218 33.6196C67.5218 34.2499 67.0108 34.7609 66.3805 34.7609C65.7501 34.7609 65.2392 34.2499 65.2392 33.6196C65.2392 32.9892 65.7501 32.4783 66.3805 32.4783C67.0108 32.4783 67.5218 32.9892 67.5218 33.6196Z"
			fill="#FFBD2E" />
		<path
			d="M63.6413 28.1413C64.2716 28.1413 64.7826 27.6303 64.7826 27C64.7826 26.3697 64.2716 25.8587 63.6413 25.8587C63.011 25.8587 62.5 26.3697 62.5 27C62.5 27.6303 63.011 28.1413 63.6413 28.1413Z"
			fill="#FFBD2E" />
		<path
			d="M67.5218 20.3804C67.5218 21.0108 67.0108 21.5217 66.3805 21.5217C65.7501 21.5217 65.2392 21.0108 65.2392 20.3804C65.2392 19.7501 65.7501 19.2391 66.3805 19.2391C67.0108 19.2391 67.5218 19.7501 67.5218 20.3804Z"
			fill="#FFBD2E" />
	</g>
	<defs>
		<clipPath id="clip0_25494_106056">
			<rect width="92" height="64" rx="9" fill="white" />
		</clipPath>
	</defs>
</svg>