<svg width="65" height="45" viewBox="0 0 92 64" fill="none" xmlns="http://www.w3.org/2000/svg">
	<g clip-path="url(#clip0_25494_106016)">
		<rect width="92" height="64" fill="#F3F3F3" />
		<path d="M8 14C8 10.6863 10.6863 8 14 8H78C81.3137 8 84 10.6863 84 14V64H8V14Z" fill="white" />
		<path
			d="M27.0001 18.7826C27.6304 18.7826 28.1414 18.2716 28.1414 17.6413C28.1414 17.011 27.6304 16.5 27.0001 16.5C26.3698 16.5 25.8588 17.011 25.8588 17.6413C25.8588 18.2716 26.3698 18.7826 27.0001 18.7826Z"
			fill="#FFBD2E" />
		<path
			d="M27 20.1522C23.2181 20.1522 20.1522 23.2181 20.1522 27C20.1522 30.7819 23.2181 33.8478 27 33.8478C30.782 33.8478 33.8479 30.7819 33.8479 27C33.8479 23.2181 30.782 20.1522 27 20.1522Z"
			fill="#FFBD2E" />
		<path
			d="M34.7609 20.3804C34.7609 21.0108 34.25 21.5217 33.6196 21.5217C32.9893 21.5217 32.4783 21.0108 32.4783 20.3804C32.4783 19.7501 32.9893 19.2391 33.6196 19.2391C34.25 19.2391 34.7609 19.7501 34.7609 20.3804Z"
			fill="#FFBD2E" />
		<path
			d="M36.3588 28.1413C36.9891 28.1413 37.5001 27.6303 37.5001 27C37.5001 26.3697 36.9891 25.8587 36.3588 25.8587C35.7285 25.8587 35.2175 26.3697 35.2175 27C35.2175 27.6303 35.7285 28.1413 36.3588 28.1413Z"
			fill="#FFBD2E" />
		<path
			d="M34.7609 33.6196C34.7609 34.2499 34.25 34.7609 33.6196 34.7609C32.9893 34.7609 32.4783 34.2499 32.4783 33.6196C32.4783 32.9892 32.9893 32.4783 33.6196 32.4783C34.25 32.4783 34.7609 32.9892 34.7609 33.6196Z"
			fill="#FFBD2E" />
		<path
			d="M27.0001 37.5C27.6304 37.5 28.1414 36.989 28.1414 36.3587C28.1414 35.7284 27.6304 35.2174 27.0001 35.2174C26.3698 35.2174 25.8588 35.7284 25.8588 36.3587C25.8588 36.989 26.3698 37.5 27.0001 37.5Z"
			fill="#FFBD2E" />
		<path
			d="M21.5218 33.6196C21.5218 34.2499 21.0108 34.7609 20.3805 34.7609C19.7501 34.7609 19.2392 34.2499 19.2392 33.6196C19.2392 32.9892 19.7501 32.4783 20.3805 32.4783C21.0108 32.4783 21.5218 32.9892 21.5218 33.6196Z"
			fill="#FFBD2E" />
		<path
			d="M17.6413 28.1413C18.2716 28.1413 18.7826 27.6303 18.7826 27C18.7826 26.3697 18.2716 25.8587 17.6413 25.8587C17.011 25.8587 16.5 26.3697 16.5 27C16.5 27.6303 17.011 28.1413 17.6413 28.1413Z"
			fill="#FFBD2E" />
		<path
			d="M21.5218 20.3804C21.5218 21.0108 21.0108 21.5217 20.3805 21.5217C19.7501 21.5217 19.2392 21.0108 19.2392 20.3804C19.2392 19.7501 19.7501 19.2391 20.3805 19.2391C21.0108 19.2391 21.5218 19.7501 21.5218 20.3804Z"
			fill="#FFBD2E" />
	</g>
    <defs>
			<filter id="filter0_d_25494_106016" x="67.0146" y="41.9644" width="18.9705" height="14.0208"
				filterUnits="userSpaceOnUse" color-interpolation-filters="sRGB">
				<feFlood flood-opacity="0" result="BackgroundImageFix" />
				<feColorMatrix in="SourceAlpha" type="matrix" values="0 0 0 0 0 0 0 0 0 0 0 0 0 0 0 0 0 0 127 0"
					result="hardAlpha" />
				<feOffset dy="1" />
				<feGaussianBlur stdDeviation="0.5" />
				<feComposite in2="hardAlpha" operator="out" />
				<feColorMatrix type="matrix" values="0 0 0 0 0 0 0 0 0 0 0 0 0 0 0 0 0 0 0.15 0" />
				<feBlend mode="normal" in2="BackgroundImageFix" result="effect1_dropShadow_25494_106016" />
				<feBlend mode="normal" in="SourceGraphic" in2="effect1_dropShadow_25494_106016" result="shape" />
		</filter>
		<clipPath id="clip0_25494_106016">
			<rect width="92" height="64" rx="9" fill="white" />
		</clipPath>
  </defs>
</svg>