
<svg fill="none" viewBox="0 0 71 14" width="71px" height="14px" >
  <defs>
    <polygon id="path-hn2nbvz0bn-1" points="0 0 70 0 70 14 0 14"></polygon>
  </defs>
  <g id="页面-1" stroke="none" stroke-width="1" fill="none" fill-rule="evenodd">
    <g id="mgtv">
      <mask id="mask-hn2nbvz0bn-2" fill="white">
        <use xlink:href="#path-hn2nbvz0bn-1"></use>
      </mask>
      <g id="a"></g>
      <path fill="currentColor" d="M33.9054715,3.05135374 L35.6404415,3.05135374 L35.5320058,4.02727436 L33.7970359,4.02727436 L33.652455,5.1116306 L31.8090494,5.1116306 L31.9536302,4.02727436 L26.1342517,4.02727436 L25.9896709,5.1116306 L24.1462653,5.1116306 L24.2908461,4.02727436 L22.881183,4.02727436 L23.0257638,3.05135374 L24.4354269,3.05135374 L24.5800078,2.03928791 L26.4234134,2.03928791 L26.2788325,3.05135374 L32.0259207,3.05135374 L32.1705015,2.03928791 L34.0139071,2.03928791 L33.9054715,3.05135374 Z M47.0261821,3.7742579 L47.1346177,3.01520853 L43.7008229,3.01520853 L43.5200969,4.35258123 L46.9538916,4.35258123 L47.0261821,3.7742579 Z M45.977971,6.48514851 C46.4117135,6.48514851 46.7370204,6.15984164 46.7731656,5.76224435 L46.845456,5.18392102 L43.4116612,5.18392102 L43.2309352,6.52129372 L45.977971,6.52129372 L45.977971,6.48514851 Z M37.98988,6.48514851 L41.3875296,6.48514851 L41.5682556,5.14777581 L38.170606,5.14777581 L38.0983156,5.72609914 L37.98988,6.48514851 Z M39.1465267,3.01520853 C38.7127842,3.01520853 38.3874773,3.3405154 38.3513321,3.73811269 L38.2790417,4.31643602 L41.6766912,4.31643602 L41.8574173,2.97906332 L39.1465267,2.97906332 L39.1465267,3.01520853 Z M47.2791985,2.03928791 L48.8695877,2.03928791 L48.8695877,2.03928791 L48.8695877,2.03928791 L48.761152,3.01520853 L48.761152,3.01520853 L48.3997,5.5453731 L48.3274095,6.08755122 C48.1105383,6.8466006 47.3876341,7.42492393 46.5562943,7.42492393 L43.1586448,7.42492393 L43.0502092,8.1839733 L48.0743931,8.1839733 L47.9298123,9.15989392 L45.4357929,9.15989392 L46.5562943,10.7502831 C46.5924396,10.7864283 46.9538916,11.4008968 47.1707629,11.5093325 C47.3153437,11.5816229 47.6045054,11.5816229 47.6045054,11.5816229 L47.4599245,12.5575435 L46.8093108,12.5575435 C46.6285848,12.5575435 46.4478587,12.5575435 46.3394231,12.5213983 C45.6888093,12.2683818 43.7008229,9.19603913 43.7008229,9.19603913 L42.9056283,9.19603913 L42.4357406,12.5936887 L40.592335,12.5936887 L41.0622227,9.19603913 L40.1947377,9.19603913 L38.0260252,11.5093325 C37.5922827,11.9792202 37.122395,12.4491079 36.5079265,12.5936887 L35.6042963,12.5936887 L35.7488771,11.6177681 C35.7488771,11.6177681 35.8934579,11.6177681 35.9657483,11.5454777 C36.1826196,11.4008968 36.5802169,11.0032995 36.7247977,10.8225735 L38.3151869,9.19603913 L36.074184,9.19603913 L36.1826196,8.22011851 L41.1706583,8.22011851 L41.2790939,7.46106914 L37.8452992,7.46106914 L37.8452992,7.46106914 L36.25491,7.46106914 L36.25491,7.46106914 L36.25491,7.46106914 L36.3633456,6.48514851 L36.3633456,6.48514851 L36.7247977,3.95498394 L36.7970881,3.41280582 C37.0139594,2.65375645 37.7368635,2.07543311 38.5682033,2.07543311 L47.2791985,2.07543311 L47.2791985,2.03928791 Z M29.7487725,5.1116306 L30.0379342,6.48514851 L35.1705538,6.48514851 L35.0621181,7.46106914 L25.664364,7.46106914 L25.2667667,10.5334118 C25.2306215,11.1117352 25.5920736,11.5816229 26.1342517,11.6539133 L34.4476496,11.6539133 L34.3030688,12.6298339 C33.6886002,12.6298339 31.736759,12.6298339 25.2306215,12.6298339 C24.0739748,12.5575435 23.2426351,11.7984941 23.3872159,10.569557 L23.8209584,7.49721434 L22.4112953,7.49721434 L22.5558761,6.52129372 L28.2306738,6.52129372 L27.9415121,5.14777581 L29.7487725,5.14777581 L29.7487725,5.1116306 Z M55.4238839,2.03928791 C55.3877387,2.25615916 55.3154483,3.08749894 55.1708674,4.09956477 L56.9058374,4.09956477 L56.7974018,5.1116306 L55.0262866,5.1116306 C54.7371249,7.38877872 54.4118181,10.0996693 54.4118181,10.0996693 C54.3756729,10.4972666 54.4118181,10.7864283 54.4841085,11.0032995 C54.5563989,11.2201708 54.7009797,11.3647516 54.8455606,11.437042 C55.0262866,11.5093325 55.2070127,11.5816229 55.3877387,11.5816229 C55.4600291,11.5816229 55.966062,11.5816229 56.2913689,11.5816229 L56.1467881,12.6298339 C55.6046099,12.6298339 54.5925441,12.6298339 54.4118181,12.6298339 C53.9057852,12.6298339 53.5443331,12.5575435 53.2551714,12.4491079 C52.9660097,12.3406722 52.7491385,12.123801 52.6045577,11.8707845 C52.4599768,11.6177681 52.4238316,11.2201708 52.4599768,10.7502831 C52.4599768,10.7141379 52.8575741,7.64179518 53.182881,5.14777581 L51.7009275,5.14777581 C51.7370727,4.89475935 51.7732179,4.56945248 51.8455083,4.09956477 L53.3997522,4.09956477 C53.5443331,3.05135374 53.6527687,2.25615916 53.6527687,2.03928791 L55.4238839,2.03928791 L55.4238839,2.03928791 Z M64.0987339,4.09956477 L66.1228655,4.09956477 L62.3999091,11.943075 C62.1468926,12.304527 61.7854405,12.6298339 61.2794076,12.6298339 L61.2071172,12.6298339 L59.7974541,12.6298339 L57.4118704,4.09956477 L59.1829856,4.09956477 L61.0986816,11.2201708 L64.0987339,4.09956477 Z" id="形状" fill-rule="nonzero" ></path>
      <path d="M17.1769545,9.49606818 C17.1769545,9.46513636 17.1769545,9.46513636 17.1769545,9.43420455 L17.1769545,9.43420455 L17.1769545,5.25840909 L17.1769545,5.25840909 C17.1769545,4.85629545 16.8985682,4.51604545 16.5273864,4.39231818 L16.5273864,4.39231818 L15.1663864,3.99020455 L15.1663864,3.99020455 L13.2176818,8.10413636 L11.1761818,2.84572727 L11.1761818,2.84572727 L9.07281818,2.25802273 L9.07281818,2.25802273 L9.07281818,2.25802273 C8.98002273,2.22709091 8.88722727,2.22709091 8.79443182,2.22709091 C8.20672727,2.22709091 7.71181818,2.722 7.71181818,3.30970455 L7.71181818,3.30970455 L7.71181818,9.55793182 L7.71181818,9.55793182 C7.71181818,10.1147045 8.17579545,10.5786818 8.73256818,10.5786818 C8.7635,10.5786818 8.79443182,10.5786818 8.82536364,10.5786818 L8.82536364,10.5786818 L9.69145455,10.4858864 L9.69145455,10.4858864 L9.69145455,10.4858864 L9.69145455,3.95927273 L12.1350682,10.2693636 L12.1350682,10.2693636 L13.9909773,10.0837727 L13.9909773,10.0837727 L13.9909773,10.0837727 L13.9909773,10.0837727 L13.9909773,10.0837727 L16.2799318,5.25840909 L16.2799318,8.72277273 L16.2799318,8.72277273 C16.2799318,8.72277273 16.2799318,8.75370455 16.2799318,8.75370455 C16.2799318,9.99097727 15.3519773,11.0735909 14.1147045,11.22825 L8.23765909,11.8159545 C8.17579545,11.8159545 8.14486364,11.8159545 8.083,11.8159545 C7.06225,11.8159545 6.22709091,10.9807955 6.22709091,9.96004545 L6.22709091,9.92911364 L6.22709091,3.03131818 L6.22709091,3.00038636 C6.22709091,1.88684091 7.12411364,0.989818182 8.23765909,0.989818182 C8.45418182,0.989818182 8.63977273,1.02075 8.85629545,1.08261364 L15.7850227,3.06225 L15.7850227,3.06225 C15.8159545,3.06225 15.8468864,3.09318182 15.90875,3.09318182 C16.1252727,3.09318182 16.2799318,2.93852273 16.2799318,2.722 C16.2799318,2.56734091 16.1871364,2.41268182 16.0324773,2.38175 L16.0324773,2.38175 L16.0324773,2.38175 L8.51604545,0.216522727 C8.14486364,0.0618636364 7.74275,-4.97379915e-14 7.34063636,-4.97379915e-14 C5.51565909,-4.97379915e-14 4,1.51565909 4,3.34063636 L4,10.5168182 L4,10.5168182 C4,12.2180682 5.39193182,13.61 7.09318182,13.61 C7.18597727,13.61 7.27877273,13.61 7.34063636,13.61 L7.34063636,13.61 L14.0528409,12.9604318 L14.0528409,12.9604318 C14.0528409,12.9604318 14.0528409,12.9604318 14.0528409,12.9604318 L14.0528409,12.9604318 L14.0528409,12.9604318 C15.8468864,12.7439091 17.1769545,11.2591818 17.1769545,9.49606818" id="路径" fill="#ED6A2C" fill-rule="nonzero"></path>
    </g>
  </g>
</svg>